<svg width="22" height="23" viewBox="0 0 22 23" fill="none" xmlns="http://www.w3.org/2000/svg">
<circle cx="11" cy="11.1758" r="11" fill="#F0F0F0"/>
<g clip-path="url(#clip0_138_990)">
<path d="M15.2884 7.10135C15.285 7.09489 15.2795 7.08982 15.2728 7.08707C14.4947 6.73006 13.6736 6.47549 12.83 6.32973C12.8223 6.3283 12.8144 6.32933 12.8073 6.33266C12.8003 6.336 12.7945 6.34147 12.7907 6.3483C12.6789 6.55124 12.5774 6.75968 12.4866 6.97285C11.5773 6.83481 10.6523 6.83481 9.74295 6.97285C9.65155 6.75914 9.54843 6.55064 9.43405 6.3483C9.43012 6.34162 9.42428 6.33627 9.41728 6.33296C9.41027 6.32965 9.40243 6.32852 9.39478 6.32973C8.5511 6.47519 7.72993 6.72978 6.95193 7.08709C6.94527 7.08991 6.93965 7.09473 6.93584 7.10088C5.38 9.42433 4.95379 11.6907 5.16288 13.9289C5.16346 13.9344 5.16515 13.9397 5.16783 13.9445C5.17051 13.9494 5.17414 13.9536 5.17849 13.957C6.08444 14.6278 7.09776 15.1398 8.17521 15.4712C8.1828 15.4735 8.1909 15.4734 8.19843 15.4709C8.20596 15.4684 8.21255 15.4637 8.21732 15.4574C8.44873 15.1425 8.65378 14.8091 8.83038 14.4605C8.8328 14.4557 8.83419 14.4505 8.83444 14.4451C8.83469 14.4398 8.83381 14.4344 8.83184 14.4294C8.82988 14.4244 8.82688 14.4199 8.82304 14.4162C8.8192 14.4124 8.81461 14.4095 8.80958 14.4077C8.48623 14.284 8.17319 14.1348 7.8734 13.9617C7.86796 13.9585 7.86339 13.954 7.86009 13.9486C7.85679 13.9432 7.85487 13.9371 7.8545 13.9308C7.85412 13.9245 7.85531 13.9182 7.85795 13.9124C7.86059 13.9067 7.8646 13.9017 7.86963 13.8979C7.93253 13.8507 7.99548 13.8017 8.05555 13.7522C8.06088 13.7478 8.06734 13.745 8.07419 13.7441C8.08104 13.7431 8.08802 13.7442 8.09432 13.747C10.0584 14.6433 12.1847 14.6433 14.1255 13.747C14.1319 13.744 14.1389 13.7428 14.1458 13.7437C14.1528 13.7445 14.1594 13.7473 14.1648 13.7517C14.2249 13.8013 14.2878 13.8507 14.3512 13.8979C14.3562 13.9017 14.3603 13.9066 14.363 13.9123C14.3656 13.9181 14.3669 13.9244 14.3666 13.9307C14.3662 13.937 14.3643 13.9431 14.3611 13.9485C14.3578 13.9539 14.3533 13.9584 14.3479 13.9617C14.0488 14.1363 13.7354 14.2853 13.4113 14.4072C13.4062 14.4091 13.4016 14.4121 13.3978 14.4159C13.394 14.4197 13.3911 14.4243 13.3891 14.4293C13.3872 14.4343 13.3864 14.4397 13.3867 14.4451C13.3869 14.4505 13.3884 14.4557 13.3908 14.4605C13.5704 14.8072 13.7751 15.1402 14.0034 15.4568C14.0081 15.4633 14.0146 15.4682 14.0222 15.4708C14.0297 15.4733 14.0379 15.4735 14.0455 15.4711C15.1249 15.1409 16.14 14.6288 17.0471 13.957C17.0515 13.9538 17.0552 13.9496 17.0579 13.9449C17.0606 13.9401 17.0622 13.9348 17.0627 13.9294C17.313 11.3417 16.6436 9.09398 15.2884 7.10135ZM9.12369 12.566C8.53237 12.566 8.04514 12.0234 8.04514 11.357C8.04514 10.6905 8.52292 10.1479 9.12369 10.1479C9.72916 10.1479 10.2117 10.6953 10.2022 11.3569C10.2022 12.0234 9.72442 12.566 9.12369 12.566ZM13.1114 12.566C12.5201 12.566 12.0329 12.0234 12.0329 11.357C12.0329 10.6905 12.5107 10.1479 13.1114 10.1479C13.7169 10.1479 14.1994 10.6953 14.19 11.3569C14.19 12.0234 13.7169 12.566 13.1114 12.566Z" fill="#232323"/>
</g>
<defs>
<clipPath id="clip0_138_990">
<rect width="13.0625" height="10.45" fill="white" transform="translate(4.58301 5.67578)"/>
</clipPath>
</defs>
</svg>
