<svg width="600" height="250" viewBox="0 0 600 250" fill="none" xmlns="http://www.w3.org/2000/svg">
<rect x="199.667" y="127.288" width="28.4525" height="83.1113" fill="#F0F0F0"/>
<rect x="199.667" y="127.288" width="28.4525" height="83.1113" fill="#0052B4"/>
<rect x="290.266" y="104.825" width="28.4525" height="105.574" fill="#F0F0F0"/>
<rect x="290.266" y="104.825" width="28.4525" height="105.574" fill="#0052B4"/>
<rect x="374.875" y="80.1162" width="28.4525" height="130.283" fill="#F0F0F0"/>
<rect x="374.875" y="80.1162" width="28.4525" height="130.283" fill="#0052B4"/>
<rect x="458.735" y="93.5938" width="28.4525" height="116.805" fill="#F0F0F0"/>
<rect x="458.735" y="93.5938" width="28.4525" height="116.805" fill="#0052B4"/>
<rect x="550.083" y="33.6938" width="28.4525" height="176.705" fill="#F0F0F0"/>
<rect x="550.083" y="33.6938" width="28.4525" height="176.705" fill="#0052B4"/>
<path d="M285.977 96.8595C285.09 96.8595 284.278 96.6854 283.541 96.3374C282.81 95.9893 282.223 95.5048 281.78 94.8838C281.336 94.2627 281.084 93.5598 281.022 92.775H282.394C282.49 93.6008 282.875 94.2832 283.551 94.8223C284.226 95.3547 285.042 95.6208 285.997 95.6208C287.096 95.6208 287.997 95.2728 288.7 94.5767C289.41 93.8737 289.765 92.9797 289.765 91.8946C289.765 90.8163 289.413 89.9223 288.71 89.2126C288.014 88.5028 287.13 88.1479 286.059 88.1479C285.315 88.1479 284.636 88.3151 284.022 88.6495C283.408 88.9839 282.93 89.4446 282.589 90.0315H281.248L282.087 81.8523H290.276V83.1012H283.244L282.691 88.5574H282.732C283.094 88.0524 283.588 87.6566 284.216 87.3699C284.851 87.0765 285.54 86.9298 286.284 86.9298C287.69 86.9298 288.854 87.3972 289.775 88.3322C290.703 89.2672 291.167 90.4444 291.167 91.8639C291.167 93.3244 290.679 94.5221 289.703 95.457C288.727 96.392 287.485 96.8595 285.977 96.8595ZM298.118 96.8595C297.231 96.8595 296.419 96.6854 295.681 96.3374C294.951 95.9893 294.364 95.5048 293.921 94.8838C293.477 94.2627 293.225 93.5598 293.163 92.775H294.535C294.63 93.6008 295.016 94.2832 295.692 94.8223C296.367 95.3547 297.183 95.6208 298.138 95.6208C299.237 95.6208 300.138 95.2728 300.841 94.5767C301.551 93.8737 301.905 92.9797 301.905 91.8946C301.905 90.8163 301.554 89.9223 300.851 89.2126C300.155 88.5028 299.271 88.1479 298.2 88.1479C297.456 88.1479 296.777 88.3151 296.163 88.6495C295.548 88.9839 295.071 89.4446 294.729 90.0315H293.388L294.228 81.8523H302.417V83.1012H295.385L294.832 88.5574H294.873C295.234 88.0524 295.729 87.6566 296.357 87.3699C296.992 87.0765 297.681 86.9298 298.425 86.9298C299.831 86.9298 300.994 87.3972 301.916 88.3322C302.844 89.2672 303.308 90.4444 303.308 91.8639C303.308 93.3244 302.82 94.5221 301.844 95.457C300.868 96.392 299.626 96.8595 298.118 96.8595ZM310.504 96.8595C309.515 96.8595 308.628 96.6172 307.843 96.1327C307.065 95.6481 306.447 94.9588 305.99 94.0648C305.328 92.9115 304.997 91.4067 304.997 89.5504C304.997 87.0731 305.492 85.1315 306.481 83.7256C307.478 82.3198 308.853 81.6169 310.607 81.6169C311.835 81.6169 312.883 81.9581 313.749 82.6405C314.616 83.323 315.155 84.2307 315.367 85.3635H313.954C313.77 84.6128 313.371 84.0089 312.756 83.5516C312.142 83.0875 311.422 82.8555 310.597 82.8555C309.245 82.8555 308.198 83.4595 307.454 84.6674C306.717 85.8685 306.348 87.5644 306.348 89.7551H306.379C306.679 88.9225 307.229 88.2469 308.027 87.7282C308.832 87.2096 309.733 86.9502 310.73 86.9502C312.135 86.9502 313.302 87.4143 314.231 88.3424C315.166 89.2706 315.633 90.4342 315.633 91.8332C315.633 93.28 315.148 94.4811 314.179 95.4366C313.21 96.3852 311.985 96.8595 310.504 96.8595ZM310.494 95.6106C311.531 95.6106 312.408 95.2489 313.125 94.5255C313.848 93.8021 314.21 92.9183 314.21 91.8741C314.21 90.8163 313.859 89.9394 313.156 89.2433C312.46 88.5404 311.576 88.1889 310.504 88.1889C309.453 88.1889 308.563 88.5369 307.833 89.233C307.109 89.9223 306.747 90.7686 306.747 91.7718C306.747 92.8501 307.106 93.7611 307.822 94.505C308.546 95.2421 309.436 95.6106 310.494 95.6106ZM318.53 96.624L325.378 83.1421V83.1012H317.158V81.8523L326.781 81.8523V83.1626L320.014 96.624H318.53Z" fill="#F0F0F0"/>
<path d="M454.446 88.6231C453.559 88.6231 452.746 88.4491 452.009 88.1011C451.279 87.753 450.692 87.2685 450.249 86.6474C449.805 86.0264 449.553 85.3235 449.491 84.5387H450.863C450.958 85.3644 451.344 86.0469 452.02 86.586C452.695 87.1183 453.511 87.3845 454.466 87.3845C455.565 87.3845 456.466 87.0364 457.169 86.3403C457.878 85.6374 458.233 84.7434 458.233 83.6583C458.233 82.58 457.882 81.686 457.179 80.9762C456.483 80.2665 455.599 79.9116 454.528 79.9116C453.784 79.9116 453.105 80.0788 452.49 80.4132C451.876 80.7476 451.399 81.2083 451.057 81.7952H449.716L450.556 73.616H458.745V74.8649H451.712L451.16 80.3211H451.201C451.562 79.8161 452.057 79.4202 452.685 79.1336C453.32 78.8402 454.009 78.6934 454.753 78.6934C456.159 78.6934 457.322 79.1609 458.244 80.0959C459.172 81.0308 459.636 82.2081 459.636 83.6276C459.636 85.088 459.148 86.2857 458.172 87.2207C457.196 88.1557 455.954 88.6231 454.446 88.6231ZM466.208 88.6231C464.966 88.6231 463.911 88.2819 463.045 87.5995C462.178 86.9102 461.642 86.0025 461.437 84.8765H462.86C463.045 85.6272 463.44 86.2346 464.048 86.6986C464.655 87.1627 465.379 87.3947 466.218 87.3947C467.535 87.3947 468.562 86.8181 469.299 85.6647C470.036 84.5045 470.422 82.8837 470.456 80.8022C470.456 80.7749 470.453 80.7237 470.446 80.6487C470.446 80.5668 470.446 80.5053 470.446 80.4644H470.436H470.425C470.146 81.297 469.603 81.976 468.798 82.5015C467.992 83.027 467.085 83.2898 466.075 83.2898C464.669 83.2898 463.498 82.8291 462.564 81.9078C461.635 80.9797 461.171 79.8229 461.171 78.4375C461.171 76.9771 461.656 75.7691 462.625 74.8137C463.594 73.8582 464.819 73.3805 466.3 73.3805C467.296 73.3805 468.184 73.6228 468.962 74.1073C469.746 74.5919 470.364 75.2812 470.814 76.1752C471.476 77.3285 471.807 78.8333 471.807 80.6896C471.807 83.1669 471.313 85.1085 470.323 86.5144C469.333 87.9202 467.962 88.6231 466.208 88.6231ZM466.3 82.0511C467.358 82.0511 468.248 81.7031 468.972 81.007C469.702 80.3108 470.067 79.4646 470.067 78.4682C470.067 77.3968 469.705 76.4925 468.982 75.7555C468.259 75.0116 467.368 74.6397 466.31 74.6397C465.259 74.6397 464.375 75.0014 463.659 75.7248C462.942 76.4482 462.584 77.3388 462.584 78.3966C462.584 79.4339 462.935 80.304 463.638 81.007C464.341 81.7031 465.228 82.0511 466.3 82.0511ZM479.178 88.6231C478.188 88.6231 477.301 88.3809 476.516 87.8963C475.738 87.4118 475.121 86.7225 474.663 85.8285C474.001 84.6751 473.67 83.1703 473.67 81.3141C473.67 78.8367 474.165 76.8952 475.155 75.4893C476.151 74.0835 477.526 73.3805 479.28 73.3805C480.509 73.3805 481.556 73.7217 482.423 74.4042C483.29 75.0867 483.829 75.9943 484.04 77.1272H482.628C482.443 76.3765 482.044 75.7725 481.43 75.3153C480.816 74.8512 480.096 74.6192 479.27 74.6192C477.919 74.6192 476.871 75.2231 476.127 76.4311C475.39 77.6322 475.022 79.3281 475.022 81.5188H475.052C475.353 80.6862 475.902 80.0106 476.701 79.4919C477.506 78.9732 478.407 78.7139 479.403 78.7139C480.809 78.7139 481.976 79.178 482.904 80.1061C483.839 81.0342 484.307 82.1978 484.307 83.5969C484.307 85.0437 483.822 86.2448 482.853 87.2002C481.884 88.1488 480.659 88.6231 479.178 88.6231ZM479.168 87.3743C480.205 87.3743 481.082 87.0125 481.798 86.2891C482.522 85.5657 482.884 84.682 482.884 83.6378C482.884 82.58 482.532 81.7031 481.829 81.007C481.133 80.304 480.249 79.9526 479.178 79.9526C478.127 79.9526 477.236 80.3006 476.506 80.9967C475.783 81.686 475.421 82.5322 475.421 83.5354C475.421 84.6137 475.779 85.5248 476.496 86.2687C477.219 87.0057 478.11 87.3743 479.168 87.3743ZM486.262 77.7516C486.269 76.4959 486.719 75.4552 487.613 74.6294C488.514 73.7968 489.64 73.3805 490.991 73.3805C492.281 73.3805 493.37 73.7695 494.257 74.5475C495.144 75.3255 495.587 76.281 495.587 77.4138C495.587 78.2191 495.362 79.0005 494.912 79.7581C494.468 80.5088 493.632 81.5222 492.404 82.7984L488.289 87.0979V87.1388H495.966V88.3877H486.333V87.405L491.554 81.8873C492.612 80.7749 493.315 79.9253 493.663 79.3383C494.018 78.7514 494.195 78.1372 494.195 77.4957C494.195 76.6904 493.881 76.008 493.253 75.4484C492.626 74.8887 491.858 74.6089 490.95 74.6089C490.002 74.6089 489.21 74.9092 488.575 75.5098C487.947 76.1035 487.627 76.8508 487.613 77.7516V77.7619H486.262V77.7516Z" fill="#F0F0F0"/>
<path d="M545.793 21.2354C544.251 21.2354 542.988 20.8362 542.006 20.0377C541.023 19.2393 540.532 18.2224 540.532 16.9872C540.532 16.059 540.835 15.2469 541.443 14.5508C542.05 13.8547 542.845 13.4009 543.828 13.1893V13.1586C542.988 12.9266 542.323 12.5171 541.832 11.9302C541.34 11.3364 541.095 10.6438 541.095 9.85211C541.095 8.73288 541.538 7.81157 542.425 7.08817C543.313 6.35794 544.435 5.99283 545.793 5.99283C547.158 5.99283 548.281 6.35794 549.161 7.08817C550.042 7.81157 550.482 8.73288 550.482 9.85211C550.482 10.6301 550.236 11.316 549.745 11.9097C549.253 12.5034 548.591 12.9197 547.759 13.1586V13.1893C548.742 13.4009 549.537 13.8547 550.144 14.5508C550.751 15.2469 551.055 16.059 551.055 16.9872C551.055 18.2292 550.564 19.2495 549.581 20.048C548.605 20.8396 547.343 21.2354 545.793 21.2354ZM543.019 19.1369C543.736 19.717 544.66 20.007 545.793 20.007C546.926 20.007 547.848 19.717 548.557 19.1369C549.274 18.55 549.632 17.8061 549.632 16.9053C549.632 16.0181 549.274 15.2913 548.557 14.7248C547.848 14.1584 546.926 13.8752 545.793 13.8752C544.667 13.8752 543.746 14.1584 543.029 14.7248C542.313 15.2913 541.955 16.0181 541.955 16.9053C541.955 17.8061 542.309 18.55 543.019 19.1369ZM545.793 12.6263C546.756 12.6263 547.544 12.3772 548.158 11.879C548.779 11.3808 549.09 10.7427 549.09 9.96471C549.09 9.16624 548.783 8.50767 548.168 7.98901C547.561 7.47034 546.769 7.21101 545.793 7.21101C544.817 7.21101 544.022 7.47034 543.408 7.98901C542.794 8.50767 542.487 9.16624 542.487 9.96471C542.487 10.7427 542.794 11.3808 543.408 11.879C544.029 12.3772 544.824 12.6263 545.793 12.6263ZM558.446 21.2354C557.457 21.2354 556.569 20.9932 555.785 20.5086C555.007 20.0241 554.389 19.3348 553.932 18.4408C553.27 17.2874 552.939 15.7826 552.939 13.9264C552.939 11.4491 553.433 9.50747 554.423 8.10161C555.419 6.69576 556.795 5.99283 558.548 5.99283C559.777 5.99283 560.824 6.33405 561.691 7.01651C562.558 7.69896 563.097 8.60663 563.309 9.7395H561.896C561.712 8.9888 561.312 8.38483 560.698 7.92759C560.084 7.46352 559.364 7.23148 558.538 7.23148C557.187 7.23148 556.139 7.83545 555.396 9.0434C554.658 10.2445 554.29 11.9404 554.29 14.1311H554.321C554.621 13.2985 555.17 12.6229 555.969 12.1042C556.774 11.5855 557.675 11.3262 558.671 11.3262C560.077 11.3262 561.244 11.7903 562.172 12.7184C563.107 13.6466 563.575 14.8101 563.575 16.2092C563.575 17.656 563.09 18.8571 562.121 19.8125C561.152 20.7611 559.927 21.2354 558.446 21.2354ZM558.436 19.9866C559.473 19.9866 560.35 19.6249 561.067 18.9015C561.79 18.1781 562.152 17.2943 562.152 16.2501C562.152 15.1923 561.8 14.3154 561.097 13.6193C560.401 12.9163 559.518 12.5649 558.446 12.5649C557.395 12.5649 556.504 12.9129 555.774 13.609C555.051 14.2983 554.689 15.1445 554.689 16.1477C554.689 17.226 555.047 18.1371 555.764 18.881C556.487 19.618 557.378 19.9866 558.436 19.9866ZM568.437 13.9673V12.7798H570.157C571.119 12.7798 571.904 12.5137 572.511 11.9814C573.119 11.4491 573.423 10.77 573.423 9.94424C573.423 9.13212 573.132 8.47696 572.552 7.97877C571.979 7.47375 571.201 7.22125 570.218 7.22125C569.304 7.22125 568.546 7.47375 567.946 7.97877C567.345 8.48379 567.007 9.14577 566.932 9.96471H565.581C565.67 8.77724 566.141 7.81839 566.994 7.08817C567.854 6.35794 568.949 5.99283 570.28 5.99283C571.583 5.99283 572.668 6.35112 573.535 7.06769C574.402 7.77745 574.835 8.67829 574.835 9.77021C574.835 10.6915 574.559 11.4661 574.006 12.094C573.453 12.7218 572.703 13.1211 571.754 13.2917V13.3326C572.887 13.4009 573.788 13.7626 574.456 14.4177C575.132 15.0661 575.47 15.9123 575.47 16.9565C575.47 17.7754 575.245 18.5125 574.794 19.1676C574.344 19.8228 573.73 20.3312 572.952 20.6929C572.174 21.0546 571.31 21.2354 570.362 21.2354C568.888 21.2354 567.683 20.8567 566.748 20.0992C565.813 19.3416 565.322 18.3657 565.274 17.1714H566.625C566.68 18.004 567.048 18.6865 567.731 19.2188C568.42 19.7443 569.294 20.007 570.351 20.007C571.423 20.007 572.307 19.7238 573.003 19.1574C573.699 18.5909 574.047 17.8709 574.047 16.9974C574.047 16.0556 573.706 15.3152 573.023 14.776C572.341 14.2369 571.406 13.9673 570.218 13.9673H568.437ZM582.728 21.2354C581.056 21.2354 579.745 20.553 578.797 19.1881C577.848 17.8164 577.374 15.9567 577.374 13.609C577.374 11.275 577.852 9.42216 578.807 8.05043C579.763 6.67869 581.069 5.99283 582.728 5.99283C584.393 5.99283 585.7 6.67869 586.649 8.05043C587.597 9.41534 588.071 11.2648 588.071 13.5988C588.071 15.9464 587.597 17.8061 586.649 19.1778C585.7 20.5496 584.393 21.2354 582.728 21.2354ZM579.831 18.2872C580.527 19.4338 581.493 20.007 582.728 20.007C583.963 20.007 584.929 19.4338 585.625 18.2872C586.321 17.1407 586.669 15.5813 586.669 13.609C586.669 11.6504 586.318 10.0978 585.615 8.95127C584.918 7.80474 583.956 7.23148 582.728 7.23148C581.506 7.23148 580.544 7.80816 579.841 8.9615C579.138 10.1149 578.787 11.6606 578.787 13.5988C578.787 15.5779 579.135 17.1407 579.831 18.2872Z" fill="#F0F0F0"/>
<path d="M77.6211 21.7139H598.377" stroke="#0052B4" stroke-width="0.74875"/>
<path d="M77.6211 68.8853H598.377" stroke="#0052B4" stroke-width="0.74875"/>
<path d="M77.6211 116.056H598.377" stroke="#0052B4" stroke-width="0.74875"/>
<path d="M77.6211 163.228H598.377" stroke="#0052B4" stroke-width="0.74875"/>
<path d="M77.6211 210.399H598.377" stroke="#0052B4" stroke-width="0.74875"/>
<rect x="100.833" y="149.001" width="28.4525" height="61.3975" fill="#F0F0F0"/>
<rect x="100.833" y="149.001" width="28.4525" height="61.3975" fill="#0052B4"/>
<path d="M370.832 72.8995C369.842 72.8995 368.955 72.6572 368.17 72.1727C367.392 71.6882 366.774 70.9989 366.317 70.1049C365.655 68.9515 365.324 67.4467 365.324 65.5904C365.324 63.1131 365.819 61.1715 366.808 59.7657C367.805 58.3598 369.18 57.6569 370.934 57.6569C372.162 57.6569 373.21 57.9981 374.077 58.6806C374.943 59.363 375.482 60.2707 375.694 61.4036H374.281C374.097 60.6529 373.698 60.0489 373.084 59.5916C372.469 59.1276 371.749 58.8955 370.924 58.8955C369.572 58.8955 368.525 59.4995 367.781 60.7075C367.044 61.9086 366.675 63.6045 366.675 65.7952H366.706C367.006 64.9626 367.556 64.2869 368.354 63.7683C369.16 63.2496 370.06 62.9903 371.057 62.9903C372.463 62.9903 373.63 63.4543 374.558 64.3825C375.493 65.3106 375.96 66.4742 375.96 67.8732C375.96 69.32 375.476 70.5212 374.507 71.4766C373.537 72.4252 372.312 72.8995 370.832 72.8995ZM370.821 71.6506C371.859 71.6506 372.736 71.2889 373.452 70.5655C374.176 69.8421 374.537 68.9583 374.537 67.9142C374.537 66.8564 374.186 65.9794 373.483 65.2833C372.787 64.5804 371.903 64.2289 370.832 64.2289C369.781 64.2289 368.89 64.577 368.16 65.2731C367.436 65.9624 367.075 66.8086 367.075 67.8118C367.075 68.8901 367.433 69.8012 368.149 70.545C368.873 71.2821 369.763 71.6506 370.821 71.6506ZM384.999 72.6641V69.3269H377.506V68.0473C379.021 65.5017 381.29 62.1099 384.313 57.8719H386.361V68.0882H388.562V69.3269H386.361V72.6641H384.999ZM378.919 68.0473V68.0882H384.999V59.1003H384.979C382.495 62.5399 380.475 65.5222 378.919 68.0473ZM397.427 72.6641V69.3269H389.933V68.0473C391.448 65.5017 393.718 62.1099 396.741 57.8719H398.788V68.0882H400.989V69.3269H398.788V72.6641H397.427ZM391.346 68.0473V68.0882H397.427V59.1003H397.406C394.922 62.5399 392.902 65.5222 391.346 68.0473ZM403.528 72.6641L410.376 59.1822V59.1412H402.156V57.8923H411.779V59.2026L405.012 72.6641H403.528Z" fill="#F0F0F0"/>
<path d="M98.6112 140.051V136.714H91.1179V135.434C92.6329 132.889 94.9021 129.497 97.9253 125.259H99.9727V135.475H102.174V136.714H99.9727V140.051H98.6112ZM92.5305 135.434V135.475H98.6112V126.487H98.5907C96.1066 129.927 94.0865 132.909 92.5305 135.434ZM107.64 140.051V126.784H107.599C107.504 126.846 106.859 127.293 105.664 128.125C104.47 128.951 103.794 129.412 103.637 129.507V128.013C103.76 127.938 104.415 127.487 105.603 126.662C106.79 125.836 107.463 125.375 107.62 125.28H108.991V140.051H107.64ZM117.611 140.287C116.068 140.287 114.806 139.887 113.823 139.089C112.84 138.291 112.349 137.274 112.349 136.038C112.349 135.11 112.653 134.298 113.26 133.602C113.867 132.906 114.663 132.452 115.645 132.241V132.21C114.806 131.978 114.14 131.568 113.649 130.981C113.158 130.388 112.912 129.695 112.912 128.903C112.912 127.784 113.356 126.863 114.243 126.139C115.13 125.409 116.253 125.044 117.611 125.044C118.976 125.044 120.098 125.409 120.979 126.139C121.859 126.863 122.299 127.784 122.299 128.903C122.299 129.681 122.054 130.367 121.562 130.961C121.071 131.555 120.409 131.971 119.576 132.21V132.241C120.559 132.452 121.354 132.906 121.961 133.602C122.569 134.298 122.872 135.11 122.872 136.038C122.872 137.281 122.381 138.301 121.398 139.099C120.422 139.891 119.16 140.287 117.611 140.287ZM114.837 138.188C115.553 138.768 116.478 139.058 117.611 139.058C118.744 139.058 119.665 138.768 120.375 138.188C121.091 137.601 121.45 136.857 121.45 135.957C121.45 135.069 121.091 134.343 120.375 133.776C119.665 133.21 118.744 132.926 117.611 132.926C116.485 132.926 115.563 133.21 114.847 133.776C114.13 134.343 113.772 135.069 113.772 135.957C113.772 136.857 114.127 137.601 114.837 138.188ZM117.611 131.678C118.573 131.678 119.361 131.428 119.975 130.93C120.596 130.432 120.907 129.794 120.907 129.016C120.907 128.218 120.6 127.559 119.986 127.04C119.378 126.522 118.587 126.262 117.611 126.262C116.635 126.262 115.84 126.522 115.226 127.04C114.611 127.559 114.304 128.218 114.304 129.016C114.304 129.794 114.611 130.432 115.226 130.93C115.847 131.428 116.642 131.678 117.611 131.678ZM130.263 140.287C129.274 140.287 128.387 140.044 127.602 139.56C126.824 139.075 126.206 138.386 125.749 137.492C125.087 136.339 124.756 134.834 124.756 132.978C124.756 130.5 125.251 128.559 126.24 127.153C127.237 125.747 128.612 125.044 130.366 125.044C131.594 125.044 132.642 125.385 133.509 126.068C134.375 126.75 134.914 127.658 135.126 128.791H133.713C133.529 128.04 133.13 127.436 132.516 126.979C131.901 126.515 131.181 126.283 130.356 126.283C129.004 126.283 127.957 126.887 127.213 128.095C126.476 129.296 126.107 130.992 126.107 133.182H126.138C126.438 132.35 126.988 131.674 127.786 131.155C128.591 130.637 129.492 130.377 130.489 130.377C131.895 130.377 133.062 130.842 133.99 131.77C134.925 132.698 135.392 133.861 135.392 135.26C135.392 136.707 134.908 137.908 133.938 138.864C132.969 139.812 131.744 140.287 130.263 140.287ZM130.253 139.038C131.291 139.038 132.167 138.676 132.884 137.953C133.607 137.229 133.969 136.346 133.969 135.301C133.969 134.244 133.618 133.367 132.915 132.671C132.219 131.968 131.335 131.616 130.263 131.616C129.212 131.616 128.322 131.964 127.592 132.66C126.868 133.35 126.507 134.196 126.507 135.199C126.507 136.277 126.865 137.188 127.581 137.932C128.305 138.669 129.195 139.038 130.253 139.038Z" fill="#F0F0F0"/>
<path d="M197.446 115.343V112.006H189.953V110.726C191.468 108.18 193.737 104.789 196.76 100.551H198.808V110.767H201.009V112.006H198.808V115.343H197.446ZM191.366 110.726V110.767H197.446V101.779H197.426C194.942 105.219 192.921 108.201 191.366 110.726ZM207.806 115.578C206.919 115.578 206.107 115.404 205.369 115.056C204.639 114.708 204.052 114.224 203.609 113.603C203.165 112.981 202.913 112.279 202.851 111.494H204.223C204.318 112.32 204.704 113.002 205.38 113.541C206.055 114.073 206.871 114.34 207.826 114.34C208.925 114.34 209.826 113.992 210.529 113.295C211.239 112.592 211.593 111.698 211.593 110.613C211.593 109.535 211.242 108.641 210.539 107.931C209.843 107.222 208.959 106.867 207.888 106.867C207.144 106.867 206.465 107.034 205.851 107.368C205.236 107.703 204.759 108.163 204.417 108.75H203.076L203.916 100.571H212.105V101.82H205.073L204.52 107.276H204.561C204.922 106.771 205.417 106.375 206.045 106.089C206.68 105.795 207.369 105.649 208.113 105.649C209.519 105.649 210.682 106.116 211.604 107.051C212.532 107.986 212.996 109.163 212.996 110.583C212.996 112.043 212.508 113.241 211.532 114.176C210.556 115.111 209.314 115.578 207.806 115.578ZM219.568 115.578C218.326 115.578 217.271 115.237 216.405 114.555C215.538 113.865 215.002 112.958 214.798 111.832H216.22C216.405 112.582 216.801 113.19 217.408 113.654C218.015 114.118 218.739 114.35 219.578 114.35C220.895 114.35 221.922 113.773 222.659 112.62C223.396 111.46 223.782 109.839 223.816 107.757C223.816 107.73 223.813 107.679 223.806 107.604C223.806 107.522 223.806 107.46 223.806 107.419H223.796H223.785C223.506 108.252 222.963 108.931 222.158 109.457C221.353 109.982 220.445 110.245 219.435 110.245C218.029 110.245 216.859 109.784 215.924 108.863C214.995 107.935 214.531 106.778 214.531 105.393C214.531 103.932 215.016 102.724 215.985 101.769C216.954 100.813 218.179 100.336 219.66 100.336C220.656 100.336 221.544 100.578 222.322 101.062C223.106 101.547 223.724 102.236 224.174 103.13C224.836 104.284 225.167 105.788 225.167 107.645C225.167 110.122 224.673 112.064 223.683 113.469C222.694 114.875 221.322 115.578 219.568 115.578ZM219.66 109.006C220.718 109.006 221.608 108.658 222.332 107.962C223.062 107.266 223.427 106.42 223.427 105.423C223.427 104.352 223.066 103.448 222.342 102.711C221.619 101.967 220.728 101.595 219.67 101.595C218.619 101.595 217.736 101.956 217.019 102.68C216.302 103.403 215.944 104.294 215.944 105.352C215.944 106.389 216.296 107.259 216.998 107.962C217.701 108.658 218.589 109.006 219.66 109.006ZM230.921 115.343V102.076H230.88C230.784 102.137 230.139 102.584 228.945 103.417C227.751 104.243 227.075 104.703 226.918 104.799V103.304C227.041 103.229 227.696 102.779 228.883 101.953C230.071 101.127 230.743 100.667 230.9 100.571H232.272V115.343H230.921Z" fill="#F0F0F0"/>
<path opacity="0.5" d="M1.50906 207.302C1.51491 206.226 1.90098 205.334 2.66728 204.626C3.43943 203.912 4.40461 203.556 5.56284 203.556C6.66841 203.556 7.60143 203.889 8.36188 204.556C9.12232 205.223 9.50255 206.042 9.50255 207.013C9.50255 207.703 9.30951 208.373 8.92344 209.022C8.54321 209.666 7.82664 210.534 6.77371 211.628L3.24639 215.313V215.348H9.8272V216.419H1.57048V215.577L6.04543 210.847C6.95212 209.894 7.55463 209.165 7.85296 208.662C8.15714 208.159 8.30923 207.633 8.30923 207.083C8.30923 206.393 8.04015 205.808 7.50198 205.328C6.96382 204.848 6.30574 204.609 5.52774 204.609C4.71464 204.609 4.03609 204.866 3.49208 205.381C2.95391 205.89 2.67898 206.53 2.66728 207.302V207.311H1.50906V207.302ZM15.9693 216.621C14.5361 216.621 13.413 216.036 12.5999 214.866C11.7868 213.69 11.3803 212.096 11.3803 210.084C11.3803 208.083 11.7897 206.495 12.6087 205.319C13.4276 204.144 14.5478 203.556 15.9693 203.556C17.3966 203.556 18.5168 204.144 19.3299 205.319C20.143 206.489 20.5495 208.074 20.5495 210.075C20.5495 212.087 20.143 213.681 19.3299 214.857C18.5168 216.033 17.3966 216.621 15.9693 216.621ZM13.4861 214.094C14.0828 215.076 14.9105 215.568 15.9693 215.568C17.0281 215.568 17.8558 215.076 18.4525 214.094C19.0491 213.111 19.3474 211.774 19.3474 210.084C19.3474 208.405 19.0462 207.074 18.4437 206.091C17.847 205.109 17.0222 204.617 15.9693 204.617C14.9222 204.617 14.0974 205.112 13.4949 206.1C12.8924 207.089 12.5911 208.414 12.5911 210.075C12.5911 211.771 12.8895 213.111 13.4861 214.094ZM26.6916 216.621C25.2585 216.621 24.1353 216.036 23.3223 214.866C22.5092 213.69 22.1026 212.096 22.1026 210.084C22.1026 208.083 22.5121 206.495 23.331 205.319C24.15 204.144 25.2702 203.556 26.6916 203.556C28.1189 203.556 29.2391 204.144 30.0522 205.319C30.8653 206.489 31.2719 208.074 31.2719 210.075C31.2719 212.087 30.8653 213.681 30.0522 214.857C29.2391 216.033 28.1189 216.621 26.6916 216.621ZM24.2085 214.094C24.8051 215.076 25.6328 215.568 26.6916 215.568C27.7504 215.568 28.5781 215.076 29.1748 214.094C29.7714 213.111 30.0698 211.774 30.0698 210.084C30.0698 208.405 29.7685 207.074 29.166 206.091C28.5694 205.109 27.7446 204.617 26.6916 204.617C25.6445 204.617 24.8198 205.112 24.2172 206.1C23.6147 207.089 23.3135 208.414 23.3135 210.075C23.3135 211.771 23.6118 213.111 24.2085 214.094ZM37.414 216.621C35.9808 216.621 34.8577 216.036 34.0446 214.866C33.2315 213.69 32.8249 212.096 32.8249 210.084C32.8249 208.083 33.2344 206.495 34.0534 205.319C34.8723 204.144 35.9925 203.556 37.414 203.556C38.8413 203.556 39.9615 204.144 40.7746 205.319C41.5877 206.489 41.9942 208.074 41.9942 210.075C41.9942 212.087 41.5877 213.681 40.7746 214.857C39.9615 216.033 38.8413 216.621 37.414 216.621ZM34.9308 214.094C35.5275 215.076 36.3552 215.568 37.414 215.568C38.4727 215.568 39.3005 215.076 39.8971 214.094C40.4938 213.111 40.7921 211.774 40.7921 210.084C40.7921 208.405 40.4909 207.074 39.8883 206.091C39.2917 205.109 38.4669 204.617 37.414 204.617C36.3669 204.617 35.5421 205.112 34.9396 206.1C34.3371 207.089 34.0358 208.414 34.0358 210.075C34.0358 211.771 34.3341 213.111 34.9308 214.094ZM44.1176 218.841H43.1437L43.986 214.611H45.2232L44.1176 218.841ZM51.8917 216.621C50.4586 216.621 49.3355 216.036 48.5224 214.866C47.7093 213.69 47.3027 212.096 47.3027 210.084C47.3027 208.083 47.7122 206.495 48.5311 205.319C49.3501 204.144 50.4703 203.556 51.8917 203.556C53.3191 203.556 54.4393 204.144 55.2523 205.319C56.0654 206.489 56.472 208.074 56.472 210.075C56.472 212.087 56.0654 213.681 55.2523 214.857C54.4393 216.033 53.3191 216.621 51.8917 216.621ZM49.4086 214.094C50.0052 215.076 50.833 215.568 51.8917 215.568C52.9505 215.568 53.7782 215.076 54.3749 214.094C54.9716 213.111 55.2699 211.774 55.2699 210.084C55.2699 208.405 54.9686 207.074 54.3661 206.091C53.7695 205.109 52.9447 204.617 51.8917 204.617C50.8447 204.617 50.0199 205.112 49.4174 206.1C48.8149 207.089 48.5136 208.414 48.5136 210.075C48.5136 211.771 48.8119 213.111 49.4086 214.094ZM62.6141 216.621C61.1809 216.621 60.0578 216.036 59.2447 214.866C58.4316 213.69 58.0251 212.096 58.0251 210.084C58.0251 208.083 58.4345 206.495 59.2535 205.319C60.0724 204.144 61.1926 203.556 62.6141 203.556C64.0414 203.556 65.1616 204.144 65.9747 205.319C66.7878 206.489 67.1943 208.074 67.1943 210.075C67.1943 212.087 66.7878 213.681 65.9747 214.857C65.1616 216.033 64.0414 216.621 62.6141 216.621ZM60.1309 214.094C60.7276 215.076 61.5553 215.568 62.6141 215.568C63.6729 215.568 64.5006 215.076 65.0972 214.094C65.6939 213.111 65.9922 211.774 65.9922 210.084C65.9922 208.405 65.691 207.074 65.0885 206.091C64.4918 205.109 63.667 204.617 62.6141 204.617C61.567 204.617 60.7422 205.112 60.1397 206.1C59.5372 207.089 59.2359 208.414 59.2359 210.075C59.2359 211.771 59.5343 213.111 60.1309 214.094Z" fill="#F0F0F0"/>
<path opacity="0.5" d="M4.00099 163.22V162.202H5.47509C6.29989 162.202 6.97259 161.974 7.49321 161.517C8.01382 161.061 8.27413 160.479 8.27413 159.771C8.27413 159.075 8.02552 158.514 7.52831 158.087C7.03694 157.654 6.37008 157.437 5.52774 157.437C4.74389 157.437 4.09459 157.654 3.57982 158.087C3.06505 158.519 2.7755 159.087 2.71115 159.789H1.55293C1.62897 158.771 2.0326 157.949 2.7638 157.323C3.50085 156.697 4.43971 156.384 5.58039 156.384C6.69766 156.384 7.62775 156.691 8.37065 157.306C9.11355 157.914 9.485 158.686 9.485 159.622C9.485 160.412 9.24809 161.076 8.77427 161.614C8.30045 162.152 7.657 162.494 6.8439 162.64V162.676C7.81494 162.734 8.58709 163.044 9.16035 163.606C9.73946 164.161 10.029 164.887 10.029 165.782C10.029 166.484 9.83598 167.115 9.4499 167.677C9.06383 168.239 8.53736 168.674 7.87051 168.984C7.20365 169.294 6.46368 169.449 5.65058 169.449C4.38707 169.449 3.35461 169.125 2.55321 168.475C1.75182 167.826 1.33064 166.99 1.2897 165.966H2.44792C2.49472 166.68 2.8106 167.265 3.39556 167.721C3.98637 168.171 4.73512 168.396 5.64181 168.396C6.5602 168.396 7.31772 168.154 7.91438 167.668C8.51104 167.183 8.80937 166.566 8.80937 165.817C8.80937 165.01 8.51689 164.375 7.93193 163.913C7.34697 163.451 6.54557 163.22 5.52774 163.22H4.00099ZM12.5648 169.248L18.4349 157.692V157.657H11.389V156.586H19.637V157.709L13.8371 169.248H12.5648ZM25.5334 169.449C24.773 169.449 24.0769 169.3 23.4451 169.002C22.8192 168.704 22.3161 168.288 21.9359 167.756C21.5557 167.224 21.3392 166.621 21.2866 165.948H22.4624C22.5443 166.656 22.8748 167.241 23.4539 167.703C24.033 168.16 24.732 168.388 25.551 168.388C26.4927 168.388 27.2649 168.089 27.8674 167.493C28.4758 166.89 28.7799 166.124 28.7799 165.194C28.7799 164.27 28.4787 163.503 27.8762 162.895C27.2795 162.287 26.522 161.982 25.6036 161.982C24.966 161.982 24.384 162.126 23.8575 162.412C23.331 162.699 22.9216 163.094 22.6291 163.597H21.4796L22.1991 156.586H29.2187V157.657H23.1906L22.7168 162.333H22.7519C23.0619 161.9 23.486 161.561 24.0242 161.315C24.5682 161.064 25.159 160.938 25.7966 160.938C27.0017 160.938 27.999 161.339 28.7887 162.14C29.5843 162.942 29.982 163.951 29.982 165.167C29.982 166.419 29.5638 167.446 28.7273 168.247C27.8908 169.049 26.8262 169.449 25.5334 169.449ZM35.9925 169.449C34.5594 169.449 33.4362 168.864 32.6231 167.694C31.81 166.519 31.4035 164.925 31.4035 162.912C31.4035 160.912 31.813 159.324 32.6319 158.148C33.4509 156.972 34.5711 156.384 35.9925 156.384C37.4198 156.384 38.54 156.972 39.3531 158.148C40.1662 159.318 40.5728 160.903 40.5728 162.904C40.5728 164.916 40.1662 166.51 39.3531 167.686C38.54 168.861 37.4198 169.449 35.9925 169.449ZM33.5093 166.922C34.106 167.905 34.9337 168.396 35.9925 168.396C37.0513 168.396 37.879 167.905 38.4757 166.922C39.0723 165.94 39.3707 164.603 39.3707 162.912C39.3707 161.234 39.0694 159.903 38.4669 158.92C37.8702 157.937 37.0454 157.446 35.9925 157.446C34.9454 157.446 34.1206 157.94 33.5181 158.929C32.9156 159.917 32.6144 161.242 32.6144 162.904C32.6144 164.6 32.9127 165.94 33.5093 166.922ZM42.6962 171.669H41.7222L42.5645 167.44H43.8017L42.6962 171.669ZM50.4703 169.449C49.0371 169.449 47.914 168.864 47.1009 167.694C46.2878 166.519 45.8813 164.925 45.8813 162.912C45.8813 160.912 46.2907 159.324 47.1097 158.148C47.9286 156.972 49.0488 156.384 50.4703 156.384C51.8976 156.384 53.0178 156.972 53.8309 158.148C54.644 159.318 55.0505 160.903 55.0505 162.904C55.0505 164.916 54.644 166.51 53.8309 167.686C53.0178 168.861 51.8976 169.449 50.4703 169.449ZM47.9871 166.922C48.5838 167.905 49.4115 168.396 50.4703 168.396C51.5291 168.396 52.3568 167.905 52.9534 166.922C53.5501 165.94 53.8484 164.603 53.8484 162.912C53.8484 161.234 53.5472 159.903 52.9447 158.92C52.348 157.937 51.5232 157.446 50.4703 157.446C49.4232 157.446 48.5984 157.94 47.9959 158.929C47.3934 159.917 47.0921 161.242 47.0921 162.904C47.0921 164.6 47.3905 165.94 47.9871 166.922ZM61.1926 169.449C59.7595 169.449 58.6363 168.864 57.8233 167.694C57.0102 166.519 56.6036 164.925 56.6036 162.912C56.6036 160.912 57.0131 159.324 57.832 158.148C58.651 156.972 59.7712 156.384 61.1926 156.384C62.6199 156.384 63.7401 156.972 64.5532 158.148C65.3663 159.318 65.7729 160.903 65.7729 162.904C65.7729 164.916 65.3663 166.51 64.5532 167.686C63.7401 168.861 62.6199 169.449 61.1926 169.449ZM58.7095 166.922C59.3061 167.905 60.1338 168.396 61.1926 168.396C62.2514 168.396 63.0791 167.905 63.6758 166.922C64.2724 165.94 64.5708 164.603 64.5708 162.912C64.5708 161.234 64.2695 159.903 63.667 158.92C63.0704 157.937 62.2456 157.446 61.1926 157.446C60.1455 157.446 59.3208 157.94 58.7182 158.929C58.1157 159.917 57.8145 161.242 57.8145 162.904C57.8145 164.6 58.1128 165.94 58.7095 166.922Z" fill="#F0F0F0"/>
<path opacity="0.5" d="M5.80852 122.278C5.04807 122.278 4.35197 122.129 3.72021 121.83C3.0943 121.532 2.59124 121.117 2.21101 120.585C1.83079 120.052 1.61435 119.45 1.5617 118.777H2.73748C2.81937 119.485 3.14987 120.07 3.72898 120.532C4.3081 120.988 5.00712 121.216 5.82607 121.216C6.76786 121.216 7.54001 120.918 8.14252 120.321C8.75087 119.719 9.05505 118.952 9.05505 118.022C9.05505 117.098 8.7538 116.332 8.15129 115.723C7.55463 115.115 6.7971 114.811 5.87872 114.811C5.24111 114.811 4.65907 114.954 4.13261 115.241C3.60614 115.528 3.19667 115.922 2.90419 116.425H1.75474L2.47424 109.415H9.49378V110.485H3.46575L2.99193 115.162H3.02703C3.33706 114.729 3.76116 114.39 4.29932 114.144C4.84334 113.893 5.43415 113.767 6.07175 113.767C7.27677 113.767 8.27413 114.167 9.06383 114.969C9.85938 115.77 10.2571 116.779 10.2571 117.996C10.2571 119.248 9.8389 120.274 9.00241 121.076C8.16591 121.877 7.10128 122.278 5.80852 122.278ZM16.215 122.278C15.4545 122.278 14.7584 122.129 14.1267 121.83C13.5008 121.532 12.9977 121.117 12.6175 120.585C12.2372 120.052 12.0208 119.45 11.9682 118.777H13.1439C13.2258 119.485 13.5563 120.07 14.1354 120.532C14.7146 120.988 15.4136 121.216 16.2325 121.216C17.1743 121.216 17.9465 120.918 18.549 120.321C19.1573 119.719 19.4615 118.952 19.4615 118.022C19.4615 117.098 19.1603 116.332 18.5577 115.723C17.9611 115.115 17.2036 114.811 16.2852 114.811C15.6476 114.811 15.0655 114.954 14.5391 115.241C14.0126 115.528 13.6031 115.922 13.3106 116.425H12.1612L12.8807 109.415H19.9002V110.485H13.8722L13.3984 115.162H13.4335C13.7435 114.729 14.1676 114.39 14.7058 114.144C15.2498 113.893 15.8406 113.767 16.4782 113.767C17.6832 113.767 18.6806 114.167 19.4703 114.969C20.2658 115.77 20.6636 116.779 20.6636 117.996C20.6636 119.248 20.2454 120.274 19.4089 121.076C18.5724 121.877 17.5077 122.278 16.215 122.278ZM26.6741 122.278C25.2409 122.278 24.1178 121.693 23.3047 120.523C22.4916 119.347 22.0851 117.753 22.0851 115.741C22.0851 113.74 22.4945 112.152 23.3135 110.977C24.1324 109.801 25.2526 109.213 26.6741 109.213C28.1014 109.213 29.2216 109.801 30.0347 110.977C30.8478 112.146 31.2543 113.732 31.2543 115.732C31.2543 117.745 30.8478 119.339 30.0347 120.514C29.2216 121.69 28.1014 122.278 26.6741 122.278ZM24.1909 119.751C24.7876 120.734 25.6153 121.225 26.6741 121.225C27.7329 121.225 28.5606 120.734 29.1572 119.751C29.7539 118.768 30.0522 117.432 30.0522 115.741C30.0522 114.062 29.751 112.731 29.1485 111.749C28.5518 110.766 27.727 110.275 26.6741 110.275C25.627 110.275 24.8022 110.769 24.1997 111.757C23.5972 112.746 23.2959 114.071 23.2959 115.732C23.2959 117.429 23.5943 118.768 24.1909 119.751ZM37.3964 122.278C35.9633 122.278 34.8401 121.693 34.027 120.523C33.2139 119.347 32.8074 117.753 32.8074 115.741C32.8074 113.74 33.2169 112.152 34.0358 110.977C34.8548 109.801 35.975 109.213 37.3964 109.213C38.8237 109.213 39.9439 109.801 40.757 110.977C41.5701 112.146 41.9767 113.732 41.9767 115.732C41.9767 117.745 41.5701 119.339 40.757 120.514C39.9439 121.69 38.8237 122.278 37.3964 122.278ZM34.9133 119.751C35.5099 120.734 36.3376 121.225 37.3964 121.225C38.4552 121.225 39.2829 120.734 39.8796 119.751C40.4762 118.768 40.7746 117.432 40.7746 115.741C40.7746 114.062 40.4733 112.731 39.8708 111.749C39.2741 110.766 38.4493 110.275 37.3964 110.275C36.3493 110.275 35.5245 110.769 34.922 111.757C34.3195 112.746 34.0183 114.071 34.0183 115.732C34.0183 117.429 34.3166 118.768 34.9133 119.751ZM44.1001 124.498H43.1261L43.9685 120.269H45.2056L44.1001 124.498ZM51.8742 122.278C50.441 122.278 49.3179 121.693 48.5048 120.523C47.6917 119.347 47.2852 117.753 47.2852 115.741C47.2852 113.74 47.6947 112.152 48.5136 110.977C49.3325 109.801 50.4527 109.213 51.8742 109.213C53.3015 109.213 54.4217 109.801 55.2348 110.977C56.0479 112.146 56.4544 113.732 56.4544 115.732C56.4544 117.745 56.0479 119.339 55.2348 120.514C54.4217 121.69 53.3015 122.278 51.8742 122.278ZM49.391 119.751C49.9877 120.734 50.8154 121.225 51.8742 121.225C52.933 121.225 53.7607 120.734 54.3574 119.751C54.954 118.768 55.2523 117.432 55.2523 115.741C55.2523 114.062 54.9511 112.731 54.3486 111.749C53.7519 110.766 52.9271 110.275 51.8742 110.275C50.8271 110.275 50.0023 110.769 49.3998 111.757C48.7973 112.746 48.496 114.071 48.496 115.732C48.496 117.429 48.7944 118.768 49.391 119.751ZM62.5965 122.278C61.1634 122.278 60.0403 121.693 59.2272 120.523C58.4141 119.347 58.0075 117.753 58.0075 115.741C58.0075 113.74 58.417 112.152 59.2359 110.977C60.0549 109.801 61.1751 109.213 62.5965 109.213C64.0238 109.213 65.144 109.801 65.9571 110.977C66.7702 112.146 67.1768 113.732 67.1768 115.732C67.1768 117.745 66.7702 119.339 65.9571 120.514C65.144 121.69 64.0238 122.278 62.5965 122.278ZM60.1134 119.751C60.71 120.734 61.5378 121.225 62.5965 121.225C63.6553 121.225 64.483 120.734 65.0797 119.751C65.6764 118.768 65.9747 117.432 65.9747 115.741C65.9747 114.062 65.6734 112.731 65.0709 111.749C64.4743 110.766 63.6495 110.275 62.5965 110.275C61.5495 110.275 60.7247 110.769 60.1221 111.757C59.5196 112.746 59.2184 114.071 59.2184 115.732C59.2184 117.429 59.5167 118.768 60.1134 119.751Z" fill="#F0F0F0"/>
<path opacity="0.5" d="M2.36895 74.9053L8.23903 63.3494V63.3143H1.19318V62.2438H9.44113V63.3669L3.64124 74.9053H2.36895ZM11.1258 65.7887C11.1317 64.7123 11.5177 63.8203 12.284 63.1125C13.0562 62.3988 14.0214 62.042 15.1796 62.042C16.2852 62.042 17.2182 62.3754 17.9786 63.0423C18.7391 63.7091 19.1193 64.5281 19.1193 65.4991C19.1193 66.1894 18.9263 66.8591 18.5402 67.5084C18.16 68.1519 17.4434 69.0206 16.3905 70.1144L12.8632 73.7997V73.8348H19.444V74.9053H11.1872V74.0629L15.6622 69.3335C16.5689 68.38 17.1714 67.6518 17.4697 67.1487C17.7739 66.6456 17.926 66.1192 17.926 65.5693C17.926 64.879 17.6569 64.2941 17.1187 63.8144C16.5806 63.3347 15.9225 63.0949 15.1445 63.0949C14.3314 63.0949 13.6528 63.3523 13.1088 63.8671C12.5707 64.376 12.2957 65.0165 12.284 65.7887V65.7974H11.1258V65.7887ZM25.393 75.1071C24.6326 75.1071 23.9365 74.9579 23.3047 74.6596C22.6788 74.3613 22.1757 73.9459 21.7955 73.4136C21.4153 72.8813 21.1988 72.2788 21.1462 71.6061H22.322C22.4039 72.3139 22.7344 72.8989 23.3135 73.361C23.8926 73.8172 24.5916 74.0454 25.4106 74.0454C26.3524 74.0454 27.1245 73.7471 27.727 73.1504C28.3354 72.5479 28.6395 71.7816 28.6395 70.8515C28.6395 69.9273 28.3383 69.161 27.7358 68.5526C27.1391 67.9442 26.3816 67.6401 25.4632 67.6401C24.8256 67.6401 24.2436 67.7834 23.7171 68.07C23.1906 68.3566 22.7812 68.7515 22.4887 69.2546H21.3392L22.0587 62.2438H29.0783V63.3143H23.0502L22.5764 67.991H22.6115C22.9216 67.5582 23.3457 67.2189 23.8838 66.9732C24.4278 66.7217 25.0186 66.5959 25.6562 66.5959C26.8613 66.5959 27.8586 66.9966 28.6483 67.798C29.4439 68.5994 29.8416 69.6085 29.8416 70.8252C29.8416 72.077 29.4234 73.1036 28.5869 73.905C27.7504 74.7064 26.6858 75.1071 25.393 75.1071ZM35.8521 75.1071C34.419 75.1071 33.2958 74.5221 32.4827 73.3522C31.6696 72.1764 31.2631 70.5824 31.2631 68.5701C31.2631 66.5696 31.6726 64.9814 32.4915 63.8056C33.3105 62.6299 34.4307 62.042 35.8521 62.042C37.2794 62.042 38.3996 62.6299 39.2127 63.8056C40.0258 64.9756 40.4324 66.5608 40.4324 68.5614C40.4324 70.5736 40.0258 72.1677 39.2127 73.3434C38.3996 74.5192 37.2794 75.1071 35.8521 75.1071ZM33.369 72.5801C33.9656 73.5628 34.7933 74.0542 35.8521 74.0542C36.9109 74.0542 37.7386 73.5628 38.3353 72.5801C38.9319 71.5973 39.2303 70.2607 39.2303 68.5701C39.2303 66.8913 38.929 65.5605 38.3265 64.5778C37.7298 63.5951 36.905 63.1037 35.8521 63.1037C34.805 63.1037 33.9802 63.598 33.3777 64.5866C32.7752 65.5751 32.474 66.9001 32.474 68.5614C32.474 70.2578 32.7723 71.5973 33.369 72.5801ZM42.5558 77.327H41.5818L42.4242 73.0977H43.6613L42.5558 77.327ZM50.3299 75.1071C48.8967 75.1071 47.7736 74.5221 46.9605 73.3522C46.1474 72.1764 45.7409 70.5824 45.7409 68.5701C45.7409 66.5696 46.1504 64.9814 46.9693 63.8056C47.7882 62.6299 48.9084 62.042 50.3299 62.042C51.7572 62.042 52.8774 62.6299 53.6905 63.8056C54.5036 64.9756 54.9101 66.5608 54.9101 68.5614C54.9101 70.5736 54.5036 72.1677 53.6905 73.3434C52.8774 74.5192 51.7572 75.1071 50.3299 75.1071ZM47.8467 72.5801C48.4434 73.5628 49.2711 74.0542 50.3299 74.0542C51.3887 74.0542 52.2164 73.5628 52.8131 72.5801C53.4097 71.5973 53.7081 70.2607 53.7081 68.5701C53.7081 66.8913 53.4068 65.5605 52.8043 64.5778C52.2076 63.5951 51.3828 63.1037 50.3299 63.1037C49.2828 63.1037 48.458 63.598 47.8555 64.5866C47.253 65.5751 46.9518 66.9001 46.9518 68.5614C46.9518 70.2578 47.2501 71.5973 47.8467 72.5801ZM61.0522 75.1071C59.6191 75.1071 58.496 74.5221 57.6829 73.3522C56.8698 72.1764 56.4632 70.5824 56.4632 68.5701C56.4632 66.5696 56.8727 64.9814 57.6916 63.8056C58.5106 62.6299 59.6308 62.042 61.0522 62.042C62.4795 62.042 63.5997 62.6299 64.4128 63.8056C65.2259 64.9756 65.6325 66.5608 65.6325 68.5614C65.6325 70.5736 65.2259 72.1677 64.4128 73.3434C63.5997 74.5192 62.4795 75.1071 61.0522 75.1071ZM58.5691 72.5801C59.1657 73.5628 59.9935 74.0542 61.0522 74.0542C62.111 74.0542 62.9387 73.5628 63.5354 72.5801C64.1321 71.5973 64.4304 70.2607 64.4304 68.5701C64.4304 66.8913 64.1291 65.5605 63.5266 64.5778C62.93 63.5951 62.1052 63.1037 61.0522 63.1037C60.0052 63.1037 59.1804 63.598 58.5778 64.5866C57.9753 65.5751 57.6741 66.9001 57.6741 68.5614C57.6741 70.2578 57.9724 71.5973 58.5691 72.5801Z" fill="#F0F0F0"/>
<path opacity="0.5" d="M5.48387 27.9357C4.41924 27.9357 3.51547 27.6432 2.77257 27.0583C2.02967 26.4674 1.57048 25.6894 1.39499 24.7243H2.61463C2.77257 25.3677 3.11185 25.8883 3.63247 26.2861C4.15308 26.6839 4.77314 26.8828 5.49264 26.8828C6.62162 26.8828 7.50198 26.3885 8.13374 25.3999C8.7655 24.4055 9.096 23.0162 9.12525 21.232C9.12525 21.2086 9.12232 21.1648 9.11648 21.1004C9.11648 21.0302 9.11648 20.9776 9.11648 20.9425H9.1077H9.09893C8.85909 21.6561 8.39405 22.2382 7.70379 22.6886C7.01354 23.139 6.23554 23.3642 5.3698 23.3642C4.16478 23.3642 3.16157 22.9694 2.36018 22.1797C1.56463 21.3841 1.16686 20.3926 1.16686 19.2052C1.16686 17.9533 1.58218 16.918 2.41282 16.099C3.24347 15.2801 4.29347 14.8706 5.56284 14.8706C6.41688 14.8706 7.17733 15.0783 7.84419 15.4936C8.51689 15.9089 9.04628 16.4997 9.43235 17.266C9.99977 18.2546 10.2835 19.5444 10.2835 21.1355C10.2835 23.2589 9.85938 24.9231 9.01118 26.1282C8.16299 27.3332 6.98722 27.9357 5.48387 27.9357ZM5.56284 22.3025C6.46953 22.3025 7.2329 22.0042 7.85296 21.4075C8.47887 20.8109 8.79182 20.0855 8.79182 19.2315C8.79182 18.3131 8.48179 17.538 7.86173 16.9063C7.24168 16.2687 6.4783 15.9498 5.57161 15.9498C4.67077 15.9498 3.91325 16.2599 3.29904 16.8799C2.68483 17.5 2.37772 18.2634 2.37772 19.1701C2.37772 20.0592 2.67898 20.805 3.28149 21.4075C3.884 22.0042 4.64445 22.3025 5.56284 22.3025ZM16.4431 27.9357C15.01 27.9357 13.8868 27.3507 13.0737 26.1808C12.2606 25.005 11.8541 23.411 11.8541 21.3988C11.8541 19.3982 12.2636 17.81 13.0825 16.6343C13.9015 15.4585 15.0217 14.8706 16.4431 14.8706C17.8704 14.8706 18.9906 15.4585 19.8037 16.6343C20.6168 17.8042 21.0234 19.3894 21.0234 21.39C21.0234 23.4023 20.6168 24.9963 19.8037 26.172C18.9906 27.3478 17.8704 27.9357 16.4431 27.9357ZM13.96 25.4087C14.5566 26.3914 15.3843 26.8828 16.4431 26.8828C17.5019 26.8828 18.3296 26.3914 18.9263 25.4087C19.5229 24.4259 19.8213 23.0893 19.8213 21.3988C19.8213 19.7199 19.52 18.3891 18.9175 17.4064C18.3208 16.4237 17.496 15.9323 16.4431 15.9323C15.396 15.9323 14.5712 16.4266 13.9687 17.4152C13.3662 18.4038 13.065 19.7287 13.065 21.39C13.065 23.0864 13.3633 24.4259 13.96 25.4087ZM27.1654 27.9357C25.7323 27.9357 24.6092 27.3507 23.7961 26.1808C22.983 25.005 22.5764 23.411 22.5764 21.3988C22.5764 19.3982 22.9859 17.81 23.8048 16.6343C24.6238 15.4585 25.744 14.8706 27.1654 14.8706C28.5928 14.8706 29.713 15.4585 30.526 16.6343C31.3391 17.8042 31.7457 19.3894 31.7457 21.39C31.7457 23.4023 31.3391 24.9963 30.526 26.172C29.713 27.3478 28.5928 27.9357 27.1654 27.9357ZM24.6823 25.4087C25.2789 26.3914 26.1067 26.8828 27.1654 26.8828C28.2242 26.8828 29.0519 26.3914 29.6486 25.4087C30.2453 24.4259 30.5436 23.0893 30.5436 21.3988C30.5436 19.7199 30.2423 18.3891 29.6398 17.4064C29.0432 16.4237 28.2184 15.9323 27.1654 15.9323C26.1184 15.9323 25.2936 16.4266 24.6911 17.4152C24.0886 18.4038 23.7873 19.7287 23.7873 21.39C23.7873 23.0864 24.0856 24.4259 24.6823 25.4087ZM37.8878 27.9357C36.4546 27.9357 35.3315 27.3507 34.5184 26.1808C33.7053 25.005 33.2988 23.411 33.2988 21.3988C33.2988 19.3982 33.7082 17.81 34.5272 16.6343C35.3461 15.4585 36.4663 14.8706 37.8878 14.8706C39.3151 14.8706 40.4353 15.4585 41.2484 16.6343C42.0615 17.8042 42.468 19.3894 42.468 21.39C42.468 23.4023 42.0615 24.9963 41.2484 26.172C40.4353 27.3478 39.3151 27.9357 37.8878 27.9357ZM35.4046 25.4087C36.0013 26.3914 36.829 26.8828 37.8878 26.8828C38.9466 26.8828 39.7743 26.3914 40.3709 25.4087C40.9676 24.4259 41.2659 23.0893 41.2659 21.3988C41.2659 19.7199 40.9647 18.3891 40.3622 17.4064C39.7655 16.4237 38.9407 15.9323 37.8878 15.9323C36.8407 15.9323 36.0159 16.4266 35.4134 17.4152C34.8109 18.4038 34.5096 19.7287 34.5096 21.39C34.5096 23.0864 34.808 24.4259 35.4046 25.4087ZM44.5914 30.1556H43.6175L44.4598 25.9264H45.697L44.5914 30.1556ZM52.3656 27.9357C50.9324 27.9357 49.8093 27.3507 48.9962 26.1808C48.1831 25.005 47.7765 23.411 47.7765 21.3988C47.7765 19.3982 48.186 17.81 49.005 16.6343C49.8239 15.4585 50.9441 14.8706 52.3656 14.8706C53.7929 14.8706 54.9131 15.4585 55.7262 16.6343C56.5393 17.8042 56.9458 19.3894 56.9458 21.39C56.9458 23.4023 56.5393 24.9963 55.7262 26.172C54.9131 27.3478 53.7929 27.9357 52.3656 27.9357ZM49.8824 25.4087C50.4791 26.3914 51.3068 26.8828 52.3656 26.8828C53.4243 26.8828 54.2521 26.3914 54.8487 25.4087C55.4454 24.4259 55.7437 23.0893 55.7437 21.3988C55.7437 19.7199 55.4425 18.3891 54.84 17.4064C54.2433 16.4237 53.4185 15.9323 52.3656 15.9323C51.3185 15.9323 50.4937 16.4266 49.8912 17.4152C49.2887 18.4038 48.9874 19.7287 48.9874 21.39C48.9874 23.0864 49.2857 24.4259 49.8824 25.4087ZM63.0879 27.9357C61.6547 27.9357 60.5316 27.3507 59.7185 26.1808C58.9054 25.005 58.4989 23.411 58.4989 21.3988C58.4989 19.3982 58.9084 17.81 59.7273 16.6343C60.5462 15.4585 61.6664 14.8706 63.0879 14.8706C64.5152 14.8706 65.6354 15.4585 66.4485 16.6343C67.2616 17.8042 67.6681 19.3894 67.6681 21.39C67.6681 23.4023 67.2616 24.9963 66.4485 26.172C65.6354 27.3478 64.5152 27.9357 63.0879 27.9357ZM60.6047 25.4087C61.2014 26.3914 62.0291 26.8828 63.0879 26.8828C64.1467 26.8828 64.9744 26.3914 65.5711 25.4087C66.1677 24.4259 66.4661 23.0893 66.4661 21.3988C66.4661 19.7199 66.1648 18.3891 65.5623 17.4064C64.9656 16.4237 64.1408 15.9323 63.0879 15.9323C62.0408 15.9323 61.216 16.4266 60.6135 17.4152C60.011 18.4038 59.7098 19.7287 59.7098 21.39C59.7098 23.0864 60.0081 24.4259 60.6047 25.4087Z" fill="#F0F0F0"/>
<path opacity="0.5" d="M91.947 237.954V232.549H88.9462C87.9576 232.549 87.1884 232.786 86.6385 233.26C86.0945 233.728 85.8225 234.389 85.8225 235.243C85.8225 236.097 86.0974 236.764 86.6473 237.243C87.1971 237.717 87.9634 237.954 88.9462 237.954H91.947ZM89.0076 239.042L85.4452 244.123H84.0237L87.6914 238.893C86.7555 238.712 86.0067 238.296 85.4452 237.647C84.8836 236.998 84.6028 236.196 84.6028 235.243C84.6028 234.114 84.9743 233.201 85.7172 232.505C86.4659 231.809 87.4457 231.461 88.6566 231.461H93.1403V244.123H91.947V239.042H89.0076ZM101.669 244.123V239.876H96.6501V244.123H95.5007V234.997H96.6501V238.911H101.669V234.997H102.819V244.123H101.669ZM108.539 235.954H106.144V238.928H108.373C108.999 238.928 109.475 238.796 109.803 238.533C110.136 238.27 110.303 237.89 110.303 237.393C110.303 236.936 110.148 236.582 109.838 236.331C109.534 236.079 109.101 235.954 108.539 235.954ZM108.46 239.876H106.144V243.166H108.671C109.344 243.166 109.856 243.026 110.207 242.745C110.558 242.464 110.733 242.052 110.733 241.508C110.733 240.97 110.537 240.563 110.145 240.288C109.759 240.013 109.198 239.876 108.46 239.876ZM104.995 244.123V234.997H108.68C109.534 234.997 110.207 235.202 110.698 235.611C111.189 236.015 111.435 236.574 111.435 237.287C111.435 237.79 111.283 238.232 110.979 238.612C110.68 238.992 110.3 239.226 109.838 239.314V239.376C110.441 239.446 110.929 239.674 111.303 240.06C111.684 240.446 111.874 240.937 111.874 241.534C111.874 242.347 111.593 242.982 111.031 243.438C110.476 243.894 109.706 244.123 108.724 244.123H104.995ZM116.524 243.271C117.326 243.271 118.001 243.023 118.551 242.526C119.101 242.028 119.376 241.417 119.376 240.692V239.683L116.673 239.867C115.954 239.914 115.401 240.089 115.015 240.393C114.629 240.692 114.436 241.092 114.436 241.596C114.436 242.093 114.629 242.496 115.015 242.806C115.401 243.116 115.904 243.271 116.524 243.271ZM116.287 244.272C115.386 244.272 114.655 244.026 114.094 243.535C113.538 243.037 113.26 242.391 113.26 241.596C113.26 240.812 113.541 240.192 114.102 239.735C114.67 239.279 115.48 239.016 116.533 238.946L119.376 238.77V237.98C119.376 237.319 119.177 236.805 118.779 236.436C118.381 236.062 117.829 235.875 117.121 235.875C116.454 235.875 115.91 236.03 115.489 236.34C115.073 236.65 114.816 237.083 114.717 237.638H113.594C113.658 236.808 114.009 236.135 114.646 235.62C115.29 235.105 116.123 234.848 117.147 234.848C118.188 234.848 119.013 235.12 119.622 235.664C120.23 236.208 120.534 236.945 120.534 237.875V244.123H119.428V242.385H119.402C119.151 242.953 118.738 243.409 118.165 243.754C117.592 244.099 116.966 244.272 116.287 244.272ZM126.931 234.848C128.089 234.848 129.025 235.281 129.738 236.147C130.458 237.007 130.818 238.144 130.818 239.56C130.818 240.975 130.461 242.116 129.747 242.982C129.039 243.842 128.109 244.272 126.957 244.272C126.237 244.272 125.6 244.087 125.044 243.719C124.494 243.345 124.096 242.853 123.851 242.245H123.816V247.141H122.657V234.997H123.754V236.928H123.789C124.047 236.307 124.453 235.807 125.009 235.427C125.565 235.041 126.205 234.848 126.931 234.848ZM126.729 243.245C127.612 243.245 128.317 242.912 128.843 242.245C129.37 241.572 129.633 240.677 129.633 239.56C129.633 238.448 129.367 237.556 128.835 236.884C128.308 236.211 127.606 235.875 126.729 235.875C125.863 235.875 125.161 236.217 124.623 236.901C124.085 237.58 123.816 238.466 123.816 239.56C123.816 240.66 124.085 241.549 124.623 242.227C125.161 242.906 125.863 243.245 126.729 243.245ZM135.644 239.06H133.678V243.157H135.644C136.305 243.157 136.831 242.97 137.223 242.596C137.621 242.221 137.82 241.724 137.82 241.104C137.82 240.484 137.621 239.99 137.223 239.621C136.831 239.247 136.305 239.06 135.644 239.06ZM132.529 244.123V234.997H133.678V238.095H135.661C136.667 238.095 137.469 238.367 138.065 238.911C138.668 239.449 138.969 240.18 138.969 241.104C138.969 242.028 138.668 242.763 138.065 243.307C137.469 243.851 136.667 244.123 135.661 244.123H132.529Z" fill="#F0F0F0"/>
<path opacity="0.5" d="M182.06 240.344V232.183C180.691 232.213 179.606 232.596 178.805 233.333C178.003 234.064 177.603 235.041 177.603 236.264C177.603 237.492 178.003 238.472 178.805 239.203C179.606 239.934 180.691 240.314 182.06 240.344ZM186.491 239.203C187.293 238.466 187.693 237.486 187.693 236.264C187.693 235.041 187.293 234.061 186.491 233.324C185.69 232.587 184.608 232.207 183.245 232.183V240.344C184.608 240.314 185.69 239.934 186.491 239.203ZM182.06 241.423C180.317 241.4 178.937 240.923 177.919 239.993C176.901 239.063 176.392 237.82 176.392 236.264C176.392 234.708 176.901 233.467 177.919 232.543C178.937 231.619 180.317 231.139 182.06 231.104V229.814H183.245V231.104C184.982 231.128 186.36 231.604 187.377 232.534C188.395 233.465 188.904 234.708 188.904 236.264C188.904 237.82 188.395 239.063 187.377 239.993C186.36 240.917 184.982 241.394 183.245 241.423V242.774H182.06V241.423ZM194.283 234.368C193.47 234.368 192.8 234.652 192.274 235.219C191.753 235.781 191.469 236.515 191.422 237.422H197.056C197.044 236.515 196.784 235.781 196.275 235.219C195.766 234.652 195.102 234.368 194.283 234.368ZM196.985 240.037H198.135C197.995 240.838 197.579 241.496 196.889 242.011C196.205 242.52 195.365 242.774 194.371 242.774C193.09 242.774 192.078 242.356 191.335 241.519C190.592 240.677 190.22 239.533 190.22 238.089C190.22 236.667 190.592 235.524 191.335 234.658C192.078 233.786 193.066 233.35 194.301 233.35C195.506 233.35 196.465 233.76 197.179 234.579C197.892 235.398 198.249 236.489 198.249 237.852V238.343H191.414V238.413C191.414 239.443 191.683 240.259 192.221 240.861C192.759 241.458 193.484 241.756 194.397 241.756C195.07 241.756 195.637 241.598 196.099 241.283C196.561 240.967 196.857 240.551 196.985 240.037ZM203.514 234.456H201.118V237.431H203.347C203.973 237.431 204.45 237.299 204.777 237.036C205.111 236.772 205.277 236.392 205.277 235.895C205.277 235.439 205.122 235.085 204.812 234.833C204.508 234.582 204.075 234.456 203.514 234.456ZM203.435 238.378H201.118V241.669H203.645C204.318 241.669 204.83 241.528 205.181 241.247C205.532 240.967 205.707 240.554 205.707 240.01C205.707 239.472 205.511 239.066 205.119 238.791C204.733 238.516 204.172 238.378 203.435 238.378ZM199.969 242.625V233.5H203.654C204.508 233.5 205.181 233.704 205.672 234.114C206.164 234.517 206.409 235.076 206.409 235.79C206.409 236.293 206.257 236.734 205.953 237.115C205.655 237.495 205.274 237.729 204.812 237.817V237.878C205.415 237.948 205.903 238.176 206.278 238.562C206.658 238.949 206.848 239.44 206.848 240.037C206.848 240.85 206.567 241.484 206.006 241.941C205.45 242.397 204.681 242.625 203.698 242.625H199.969ZM212.867 233.35C214.025 233.35 214.961 233.783 215.675 234.649C216.394 235.509 216.754 236.647 216.754 238.062C216.754 239.478 216.397 240.619 215.684 241.484C214.976 242.344 214.046 242.774 212.893 242.774C212.174 242.774 211.536 242.59 210.981 242.221C210.431 241.847 210.033 241.356 209.787 240.747H209.752V245.643H208.594V233.5H209.691V235.43H209.726C209.983 234.81 210.39 234.31 210.946 233.93C211.501 233.543 212.142 233.35 212.867 233.35ZM212.665 241.748C213.549 241.748 214.254 241.414 214.78 240.747C215.306 240.075 215.57 239.18 215.57 238.062C215.57 236.951 215.304 236.059 214.771 235.386C214.245 234.713 213.543 234.377 212.665 234.377C211.8 234.377 211.098 234.719 210.559 235.404C210.021 236.082 209.752 236.968 209.752 238.062C209.752 239.162 210.021 240.051 210.559 240.73C211.098 241.408 211.8 241.748 212.665 241.748ZM221.378 241.774C222.18 241.774 222.855 241.525 223.405 241.028C223.955 240.531 224.23 239.92 224.23 239.194V238.185L221.528 238.369C220.808 238.416 220.255 238.592 219.869 238.896C219.483 239.194 219.29 239.595 219.29 240.098C219.29 240.595 219.483 240.999 219.869 241.309C220.255 241.619 220.758 241.774 221.378 241.774ZM221.141 242.774C220.241 242.774 219.509 242.528 218.948 242.037C218.392 241.54 218.114 240.894 218.114 240.098C218.114 239.314 218.395 238.694 218.957 238.238C219.524 237.782 220.334 237.518 221.387 237.448L224.23 237.273V236.483C224.23 235.822 224.031 235.307 223.633 234.939C223.236 234.564 222.683 234.377 221.975 234.377C221.308 234.377 220.764 234.532 220.343 234.842C219.928 235.152 219.67 235.585 219.571 236.141H218.448C218.512 235.31 218.863 234.637 219.501 234.123C220.144 233.608 220.978 233.35 222.001 233.35C223.043 233.35 223.867 233.622 224.476 234.166C225.084 234.71 225.388 235.448 225.388 236.378V242.625H224.283V240.888H224.256C224.005 241.455 223.592 241.911 223.019 242.256C222.446 242.602 221.82 242.774 221.141 242.774ZM229.626 238.685C229.58 239.323 229.506 239.87 229.407 240.326C229.313 240.777 229.176 241.192 228.995 241.572C228.813 241.946 228.57 242.23 228.266 242.423C227.962 242.61 227.596 242.704 227.169 242.704C226.982 242.704 226.81 242.675 226.652 242.616V241.563C226.792 241.61 226.947 241.633 227.117 241.633C227.561 241.633 227.889 241.379 228.1 240.87C228.316 240.355 228.459 239.615 228.529 238.65C228.553 238.41 228.611 237.571 228.705 236.132C228.804 234.687 228.863 233.81 228.88 233.5H234.724V242.625H233.575V234.465H229.925C229.843 235.956 229.743 237.363 229.626 238.685ZM240.006 237.562H238.041V241.66H240.006C240.667 241.66 241.194 241.473 241.586 241.098C241.984 240.724 242.182 240.227 242.182 239.607C242.182 238.987 241.984 238.492 241.586 238.124C241.194 237.749 240.667 237.562 240.006 237.562ZM236.892 242.625V233.5H238.041V236.597H240.024C241.03 236.597 241.832 236.869 242.428 237.413C243.031 237.951 243.332 238.682 243.332 239.607C243.332 240.531 243.031 241.265 242.428 241.809C241.832 242.353 241.03 242.625 240.024 242.625H236.892Z" fill="#F0F0F0"/>
<path opacity="0.5" d="M296.248 244.123H295.124V233.734H295.072L290.667 244.061H289.623L285.227 233.734H285.174V244.123H284.051V231.461H285.429L290.123 242.543H290.176L294.861 231.461H296.248V244.123ZM301.547 243.271C302.349 243.271 303.024 243.023 303.574 242.526C304.124 242.028 304.399 241.417 304.399 240.692V239.683L301.696 239.867C300.977 239.914 300.424 240.089 300.038 240.393C299.652 240.692 299.459 241.092 299.459 241.596C299.459 242.093 299.652 242.496 300.038 242.806C300.424 243.116 300.927 243.271 301.547 243.271ZM301.31 244.272C300.41 244.272 299.678 244.026 299.117 243.535C298.561 243.037 298.283 242.391 298.283 241.596C298.283 240.812 298.564 240.192 299.126 239.735C299.693 239.279 300.503 239.016 301.556 238.946L304.399 238.77V237.98C304.399 237.319 304.2 236.805 303.802 236.436C303.405 236.062 302.852 235.875 302.144 235.875C301.477 235.875 300.933 236.03 300.512 236.34C300.097 236.65 299.839 237.083 299.74 237.638H298.617C298.681 236.808 299.032 236.135 299.67 235.62C300.313 235.105 301.147 234.848 302.17 234.848C303.211 234.848 304.036 235.12 304.645 235.664C305.253 236.208 305.557 236.945 305.557 237.875V244.123H304.452V242.385H304.425C304.174 242.953 303.761 243.409 303.188 243.754C302.615 244.099 301.989 244.272 301.31 244.272ZM311.954 234.848C313.112 234.848 314.048 235.281 314.762 236.147C315.481 237.007 315.841 238.144 315.841 239.56C315.841 240.975 315.484 242.116 314.77 242.982C314.063 243.842 313.132 244.272 311.98 244.272C311.261 244.272 310.623 244.087 310.067 243.719C309.517 243.345 309.12 242.853 308.874 242.245H308.839V247.141H307.681V234.997H308.777V236.928H308.812C309.07 236.307 309.476 235.807 310.032 235.427C310.588 235.041 311.228 234.848 311.954 234.848ZM311.752 243.245C312.635 243.245 313.34 242.912 313.867 242.245C314.393 241.572 314.656 240.677 314.656 239.56C314.656 238.448 314.39 237.556 313.858 236.884C313.331 236.211 312.629 235.875 311.752 235.875C310.886 235.875 310.184 236.217 309.646 236.901C309.108 237.58 308.839 238.466 308.839 239.56C308.839 240.66 309.108 241.549 309.646 242.227C310.184 242.906 310.886 243.245 311.752 243.245ZM323.773 234.997V235.962H320.667V244.123H319.517V235.962H316.411V234.997H323.773Z" fill="#F0F0F0"/>
<path opacity="0.5" d="M368.089 244.123L366.685 240.244H361.368L359.964 244.123H358.692L363.43 231.461H364.623L369.353 244.123H368.089ZM364 232.944L361.728 239.209H366.326L364.053 232.944H364ZM376.82 244.123V235.962H371.88V244.123H370.73V234.997H377.969V244.123H376.82ZM384.418 234.848C385.577 234.848 386.513 235.281 387.226 236.147C387.946 237.007 388.306 238.144 388.306 239.56C388.306 240.975 387.949 242.116 387.235 242.982C386.527 243.842 385.597 244.272 384.445 244.272C383.725 244.272 383.088 244.087 382.532 243.719C381.982 243.345 381.584 242.853 381.339 242.245H381.304V247.141H380.145V234.997H381.242V236.928H381.277C381.535 236.307 381.941 235.807 382.497 235.427C383.053 235.041 383.693 234.848 384.418 234.848ZM384.217 243.245C385.1 243.245 385.805 242.912 386.331 242.245C386.858 241.572 387.121 240.677 387.121 239.56C387.121 238.448 386.855 237.556 386.323 236.884C385.796 236.211 385.094 235.875 384.217 235.875C383.351 235.875 382.649 236.217 382.111 236.901C381.573 237.58 381.304 238.466 381.304 239.56C381.304 240.66 381.573 241.549 382.111 242.227C382.649 242.906 383.351 243.245 384.217 243.245ZM393.632 235.866C392.819 235.866 392.149 236.15 391.622 236.717C391.102 237.279 390.818 238.013 390.771 238.919H396.404C396.393 238.013 396.132 237.279 395.623 236.717C395.114 236.15 394.451 235.866 393.632 235.866ZM396.334 241.534H397.484C397.343 242.336 396.928 242.994 396.238 243.508C395.553 244.017 394.714 244.272 393.719 244.272C392.438 244.272 391.426 243.853 390.683 243.017C389.941 242.175 389.569 241.031 389.569 239.586C389.569 238.165 389.941 237.021 390.683 236.155C391.426 235.284 392.415 234.848 393.649 234.848C394.854 234.848 395.814 235.257 396.527 236.076C397.241 236.895 397.598 237.986 397.598 239.349V239.841H390.762V239.911C390.762 240.94 391.031 241.756 391.57 242.359C392.108 242.956 392.833 243.254 393.746 243.254C394.418 243.254 394.986 243.096 395.448 242.78C395.91 242.464 396.205 242.049 396.334 241.534ZM401.055 240.183C401.008 240.82 400.935 241.367 400.835 241.824C400.742 242.274 400.604 242.689 400.423 243.07C400.242 243.444 399.999 243.728 399.695 243.921C399.391 244.108 399.025 244.202 398.598 244.202C398.411 244.202 398.238 244.172 398.08 244.114V243.061C398.221 243.108 398.376 243.131 398.545 243.131C398.99 243.131 399.317 242.877 399.528 242.368C399.744 241.853 399.888 241.113 399.958 240.148C399.981 239.908 400.04 239.068 400.133 237.629C400.233 236.185 400.291 235.307 400.309 234.997H406.153V244.123H405.003V235.962H401.353C401.271 237.454 401.172 238.861 401.055 240.183ZM411.435 239.06H409.469V243.157H411.435C412.096 243.157 412.622 242.97 413.014 242.596C413.412 242.221 413.611 241.724 413.611 241.104C413.611 240.484 413.412 239.99 413.014 239.621C412.622 239.247 412.096 239.06 411.435 239.06ZM408.32 244.123V234.997H409.469V238.095H411.452C412.459 238.095 413.26 238.367 413.857 238.911C414.459 239.449 414.76 240.18 414.76 241.104C414.76 242.028 414.459 242.763 413.857 243.307C413.26 243.851 412.459 244.123 411.452 244.123H408.32Z" fill="#F0F0F0"/>
<path opacity="0.5" d="M466.962 244.123H465.839V233.734H465.787L461.382 244.061H460.338L455.942 233.734H455.889V244.123H454.766V231.461H456.144L460.838 242.543H460.89L465.576 231.461H466.962V244.123ZM472.262 243.271C473.064 243.271 473.739 243.023 474.289 242.526C474.839 242.028 475.114 241.417 475.114 240.692V239.683L472.411 239.867C471.692 239.914 471.139 240.089 470.753 240.393C470.367 240.692 470.174 241.092 470.174 241.596C470.174 242.093 470.367 242.496 470.753 242.806C471.139 243.116 471.642 243.271 472.262 243.271ZM472.025 244.272C471.124 244.272 470.393 244.026 469.832 243.535C469.276 243.037 468.998 242.391 468.998 241.596C468.998 240.812 469.279 240.192 469.84 239.735C470.408 239.279 471.218 239.016 472.271 238.946L475.114 238.77V237.98C475.114 237.319 474.915 236.805 474.517 236.436C474.119 236.062 473.567 235.875 472.859 235.875C472.192 235.875 471.648 236.03 471.227 236.34C470.811 236.65 470.554 237.083 470.455 237.638H469.331C469.396 236.808 469.747 236.135 470.384 235.62C471.028 235.105 471.861 234.848 472.885 234.848C473.926 234.848 474.751 235.12 475.359 235.664C475.968 236.208 476.272 236.945 476.272 237.875V244.123H475.166V242.385H475.14C474.889 242.953 474.476 243.409 473.903 243.754C473.33 244.099 472.704 244.272 472.025 244.272ZM479.536 244.123H478.387V234.997H479.536V242.333H479.598L484.678 234.997H485.827V244.123H484.678V236.787H484.625L479.536 244.123ZM479.685 231.066H480.571C480.571 231.593 480.729 232.023 481.045 232.356C481.367 232.684 481.794 232.847 482.326 232.847C482.853 232.847 483.274 232.684 483.59 232.356C483.912 232.023 484.072 231.593 484.072 231.066H484.959C484.959 231.815 484.716 232.42 484.23 232.883C483.751 233.339 483.116 233.567 482.326 233.567C481.531 233.567 480.89 233.339 480.405 232.883C479.925 232.42 479.685 231.815 479.685 231.066Z" fill="#F0F0F0"/>
<path opacity="0.5" d="M551.039 244.123V233.435H550.934L543.554 244.123H542.37V231.461H543.554V242.175H543.66L551.039 231.461H552.224V244.123H551.039ZM561.735 244.28C560.53 244.28 559.565 243.889 558.84 243.105C558.114 242.321 557.722 241.245 557.664 239.876H555.733V244.123H554.584V234.997H555.733V238.911H557.69C557.807 237.647 558.222 236.656 558.936 235.936C559.656 235.217 560.589 234.857 561.735 234.857C562.987 234.857 563.978 235.278 564.71 236.12C565.441 236.963 565.806 238.112 565.806 239.569C565.806 241.025 565.441 242.175 564.71 243.017C563.978 243.859 562.987 244.28 561.735 244.28ZM559.612 242.271C560.126 242.92 560.834 243.245 561.735 243.245C562.636 243.245 563.341 242.92 563.85 242.271C564.364 241.622 564.622 240.721 564.622 239.569C564.622 238.416 564.364 237.515 563.85 236.866C563.341 236.217 562.636 235.892 561.735 235.892C560.834 235.892 560.126 236.217 559.612 236.866C559.103 237.515 558.848 238.416 558.848 239.569C558.848 240.721 559.103 241.622 559.612 242.271ZM573.686 244.123V239.876H568.667V244.123H567.517V234.997H568.667V238.911H573.686V234.997H574.835V244.123H573.686ZM580.126 239.06H578.161V243.157H580.126C580.787 243.157 581.314 242.97 581.706 242.596C582.103 242.221 582.302 241.724 582.302 241.104C582.302 240.484 582.103 239.99 581.706 239.621C581.314 239.247 580.787 239.06 580.126 239.06ZM577.011 244.123V234.997H578.161V238.095H580.144C581.15 238.095 581.951 238.367 582.548 238.911C583.151 239.449 583.452 240.18 583.452 241.104C583.452 242.028 583.151 242.763 582.548 243.307C581.951 243.851 581.15 244.123 580.144 244.123H577.011Z" fill="#F0F0F0"/>
</svg>
