<svg width="540" height="261" viewBox="0 0 540 261" fill="none" xmlns="http://www.w3.org/2000/svg">
<path opacity="0.5" d="M91.369 212.663L24.5137 222.85V225.079H421.826V52.21L358.79 103.147L284.931 139.759L221.259 175.733L157.269 201.202L91.369 212.663Z" fill="#0052B4"/>
<path d="M91.0507 218.393L24.5137 222.85V225.078H421.826V140.713L356.562 159.497L289.707 175.733L222.215 192.924L157.269 209.479L91.0507 218.393Z" fill="#0052B4"/>
<path d="M22.2856 225.079H423.418" stroke="#048EEC" stroke-width="0.636718"/>
<path d="M422.145 224.125L422.145 -1.14888e-05" stroke="#048EEC" stroke-width="0.636718"/>
<path d="M422.145 224.125L422.145 -1.14888e-05" stroke="url(#paint0_linear_96_1333)" stroke-width="0.636718"/>
<circle cx="24.8325" cy="225.398" r="2.54687" fill="#F0F0F0"/>
<circle cx="24.8325" cy="225.398" r="2.54687" fill="#F0F0F0"/>
<circle cx="91.0513" cy="225.398" r="2.54687" fill="#F0F0F0"/>
<circle cx="91.0513" cy="225.398" r="2.54687" fill="#F0F0F0"/>
<circle cx="157.27" cy="225.398" r="2.54687" fill="#F0F0F0"/>
<circle cx="157.27" cy="225.398" r="2.54687" fill="#F0F0F0"/>
<circle cx="223.489" cy="225.398" r="2.54687" fill="#F0F0F0"/>
<circle cx="223.489" cy="225.398" r="2.54687" fill="#F0F0F0"/>
<circle cx="289.707" cy="225.398" r="2.54687" fill="#F0F0F0"/>
<circle cx="289.707" cy="225.398" r="2.54687" fill="#F0F0F0"/>
<circle cx="355.926" cy="225.398" r="2.54687" fill="#F0F0F0"/>
<circle cx="355.926" cy="225.398" r="2.54687" fill="#F0F0F0"/>
<circle cx="422.145" cy="225.398" r="2.54687" fill="#F0F0F0"/>
<circle cx="422.145" cy="225.398" r="2.54687" fill="#F0F0F0"/>
<path opacity="0.5" d="M0.356562 255.495H9.16364V254.069H3.47648L7.45215 250.022C7.93945 249.522 8.33761 248.958 8.64663 248.328C8.95565 247.698 9.11016 247.062 9.11016 246.42C9.11016 246.04 9.0329 245.642 8.87839 245.226C8.72388 244.81 8.48618 244.424 8.16527 244.067C7.84436 243.698 7.43432 243.401 6.93513 243.176C6.43594 242.938 5.84167 242.819 5.15232 242.819C4.29657 242.819 3.55968 243.009 2.94164 243.389C2.33548 243.758 1.87195 244.281 1.55104 244.958C1.23014 245.624 1.06969 246.402 1.06969 247.294H2.58507C2.58507 246.664 2.6861 246.123 2.88815 245.671C3.0902 245.208 3.3814 244.857 3.76173 244.62C4.15395 244.37 4.61748 244.245 5.15232 244.245C5.53265 244.245 5.87139 244.311 6.16852 244.441C6.46566 244.572 6.71525 244.744 6.9173 244.958C7.13124 245.172 7.29169 245.41 7.39866 245.671C7.50563 245.933 7.55911 246.2 7.55911 246.474C7.55911 246.807 7.50563 247.127 7.39866 247.436C7.30358 247.734 7.15501 248.031 6.95296 248.328C6.76279 248.613 6.53103 248.904 6.25766 249.201L0.356562 255.495ZM12.3787 249.255C12.3787 248.53 12.45 247.864 12.5926 247.258C12.7353 246.64 12.9432 246.111 13.2166 245.671C13.49 245.22 13.8168 244.875 14.1972 244.637C14.5894 244.388 15.0232 244.263 15.4986 244.263C15.9859 244.263 16.4197 244.388 16.8001 244.637C17.1804 244.875 17.5072 245.22 17.7806 245.671C18.054 246.111 18.262 246.64 18.4046 247.258C18.5472 247.864 18.6185 248.53 18.6185 249.255C18.6185 249.98 18.5472 250.651 18.4046 251.269C18.262 251.876 18.054 252.405 17.7806 252.856C17.5072 253.296 17.1804 253.641 16.8001 253.89C16.4197 254.128 15.9859 254.247 15.4986 254.247C15.0232 254.247 14.5894 254.128 14.1972 253.89C13.8168 253.641 13.49 253.296 13.2166 252.856C12.9432 252.405 12.7353 251.876 12.5926 251.269C12.45 250.651 12.3787 249.98 12.3787 249.255ZM10.8633 249.255C10.8633 250.503 11.0594 251.608 11.4516 252.571C11.8438 253.534 12.3846 254.294 13.074 254.853C13.7752 255.4 14.5834 255.673 15.4986 255.673C16.4138 255.673 17.216 255.4 17.9054 254.853C18.6066 254.294 19.1534 253.534 19.5456 252.571C19.9378 251.608 20.1339 250.503 20.1339 249.255C20.1339 248.007 19.9378 246.902 19.5456 245.939C19.1534 244.976 18.6066 244.221 17.9054 243.675C17.216 243.116 16.4138 242.837 15.4986 242.837C14.5834 242.837 13.7752 243.116 13.074 243.675C12.3846 244.221 11.8438 244.976 11.4516 245.939C11.0594 246.902 10.8633 248.007 10.8633 249.255ZM22.2663 245.475L25.0297 244.655V255.495H26.5451V242.837L22.2663 243.906V245.475ZM38.2081 251.394C38.2081 250.562 38.0477 249.831 37.7268 249.201C37.4059 248.572 36.9602 248.078 36.3897 247.722C35.831 247.365 35.1952 247.187 34.482 247.187C34.173 247.187 33.8581 247.228 33.5372 247.312C33.2281 247.383 32.9251 247.496 32.6279 247.65L33.4658 244.352H38.1725V243.015H32.2892L30.649 249.665C31.0769 249.368 31.4513 249.142 31.7722 248.987C32.105 248.821 32.4318 248.708 32.7527 248.649C33.0855 248.577 33.448 248.542 33.8402 248.542C34.3751 248.542 34.8505 248.661 35.2665 248.898C35.6944 249.136 36.0272 249.469 36.2649 249.897C36.5145 250.325 36.6392 250.824 36.6392 251.394C36.6392 251.965 36.5263 252.464 36.3005 252.892C36.0866 253.32 35.7716 253.653 35.3556 253.89C34.9396 254.128 34.4345 254.247 33.8402 254.247C33.3886 254.247 32.9548 254.152 32.5388 253.962C32.1228 253.759 31.7543 253.504 31.4334 253.195C31.1244 252.874 30.8748 252.535 30.6847 252.179L29.401 253.052C29.6744 253.528 30.0072 253.967 30.3994 254.372C30.8035 254.764 31.2849 255.079 31.8435 255.316C32.414 255.554 33.0796 255.673 33.8402 255.673C34.4464 255.673 35.0109 255.584 35.5339 255.406C36.0569 255.227 36.5204 254.96 36.9245 254.603C37.3286 254.247 37.6436 253.801 37.8694 253.266C38.0952 252.731 38.2081 252.107 38.2081 251.394Z" fill="#F0F0F0"/>
<path opacity="0.5" d="M66.5753 255.495H75.3824V254.069H69.6952L73.6709 250.022C74.1582 249.522 74.5564 248.958 74.8654 248.328C75.1744 247.698 75.3289 247.062 75.3289 246.42C75.3289 246.04 75.2517 245.642 75.0971 245.226C74.9426 244.81 74.7049 244.424 74.384 244.067C74.0631 243.698 73.6531 243.401 73.1539 243.176C72.6547 242.938 72.0604 242.819 71.3711 242.819C70.5153 242.819 69.7784 243.009 69.1604 243.389C68.5542 243.758 68.0907 244.281 67.7698 244.958C67.4489 245.624 67.2884 246.402 67.2884 247.294H68.8038C68.8038 246.664 68.9049 246.123 69.1069 245.671C69.309 245.208 69.6001 244.857 69.9805 244.62C70.3727 244.37 70.8362 244.245 71.3711 244.245C71.7514 244.245 72.0901 244.311 72.3873 244.441C72.6844 244.572 72.934 244.744 73.1361 244.958C73.35 245.172 73.5104 245.41 73.6174 245.671C73.7244 245.933 73.7779 246.2 73.7779 246.474C73.7779 246.807 73.7244 247.127 73.6174 247.436C73.5223 247.734 73.3738 248.031 73.1717 248.328C72.9815 248.613 72.7498 248.904 72.4764 249.201L66.5753 255.495ZM78.5974 249.255C78.5974 248.53 78.6688 247.864 78.8114 247.258C78.954 246.64 79.162 246.111 79.4354 245.671C79.7087 245.22 80.0356 244.875 80.4159 244.637C80.8081 244.388 81.2419 244.263 81.7174 244.263C82.2047 244.263 82.6385 244.388 83.0188 244.637C83.3991 244.875 83.726 245.22 83.9994 245.671C84.2727 246.111 84.4807 246.64 84.6233 247.258C84.766 247.864 84.8373 248.53 84.8373 249.255C84.8373 249.98 84.766 250.651 84.6233 251.269C84.4807 251.876 84.2727 252.405 83.9994 252.856C83.726 253.296 83.3991 253.641 83.0188 253.89C82.6385 254.128 82.2047 254.247 81.7174 254.247C81.2419 254.247 80.8081 254.128 80.4159 253.89C80.0356 253.641 79.7087 253.296 79.4354 252.856C79.162 252.405 78.954 251.876 78.8114 251.269C78.6688 250.651 78.5974 249.98 78.5974 249.255ZM77.0821 249.255C77.0821 250.503 77.2782 251.608 77.6704 252.571C78.0626 253.534 78.6034 254.294 79.2927 254.853C79.994 255.4 80.8022 255.673 81.7174 255.673C82.6325 255.673 83.4348 255.4 84.1242 254.853C84.8254 254.294 85.3721 253.534 85.7643 252.571C86.1566 251.608 86.3527 250.503 86.3527 249.255C86.3527 248.007 86.1566 246.902 85.7643 245.939C85.3721 244.976 84.8254 244.221 84.1242 243.675C83.4348 243.116 82.6325 242.837 81.7174 242.837C80.8022 242.837 79.994 243.116 79.2927 243.675C78.6034 244.221 78.0626 244.976 77.6704 245.939C77.2782 246.902 77.0821 248.007 77.0821 249.255ZM88.4851 245.475L91.2484 244.655V255.495H92.7638V242.837L88.4851 243.906V245.475ZM97.4204 251.394C97.4204 250.824 97.5393 250.319 97.777 249.879C98.0266 249.427 98.3594 249.077 98.7754 248.827C99.2032 248.577 99.6846 248.453 100.219 248.453C100.754 248.453 101.23 248.577 101.646 248.827C102.074 249.077 102.406 249.427 102.644 249.879C102.894 250.319 103.018 250.824 103.018 251.394C103.018 251.965 102.894 252.47 102.644 252.91C102.406 253.338 102.074 253.676 101.646 253.926C101.23 254.175 100.754 254.3 100.219 254.3C99.6846 254.3 99.2032 254.175 98.7754 253.926C98.3594 253.676 98.0266 253.338 97.777 252.91C97.5393 252.47 97.4204 251.965 97.4204 251.394ZM100.968 243.015L96.7608 248.809C96.5231 249.142 96.3329 249.528 96.1903 249.968C96.0477 250.408 95.9764 250.883 95.9764 251.394C95.9764 252.25 96.1606 252.999 96.529 253.641C96.9094 254.282 97.4204 254.782 98.0622 255.138C98.7041 255.495 99.4231 255.673 100.219 255.673C101.028 255.673 101.747 255.495 102.377 255.138C103.018 254.782 103.524 254.282 103.892 253.641C104.272 252.999 104.463 252.25 104.463 251.394C104.463 250.824 104.367 250.295 104.177 249.808C103.987 249.308 103.72 248.875 103.375 248.506C103.042 248.138 102.65 247.852 102.198 247.65C101.759 247.448 101.283 247.347 100.772 247.347C100.368 247.347 100.006 247.395 99.6846 247.49C99.3756 247.585 99.1022 247.781 98.8645 248.078L98.9715 248.167L102.876 243.015H100.968Z" fill="#F0F0F0"/>
<path opacity="0.5" d="M132.794 255.495H141.601V254.069H135.914L139.89 250.022C140.377 249.522 140.775 248.958 141.084 248.328C141.393 247.698 141.548 247.062 141.548 246.42C141.548 246.04 141.47 245.642 141.316 245.226C141.161 244.81 140.924 244.424 140.603 244.067C140.282 243.698 139.872 243.401 139.373 243.176C138.873 242.938 138.279 242.819 137.59 242.819C136.734 242.819 135.997 243.009 135.379 243.389C134.773 243.758 134.309 244.281 133.989 244.958C133.668 245.624 133.507 246.402 133.507 247.294H135.023C135.023 246.664 135.124 246.123 135.326 245.671C135.528 245.208 135.819 244.857 136.199 244.62C136.591 244.37 137.055 244.245 137.59 244.245C137.97 244.245 138.309 244.311 138.606 244.441C138.903 244.572 139.153 244.744 139.355 244.958C139.569 245.172 139.729 245.41 139.836 245.671C139.943 245.933 139.997 246.2 139.997 246.474C139.997 246.807 139.943 247.127 139.836 247.436C139.741 247.734 139.593 248.031 139.39 248.328C139.2 248.613 138.969 248.904 138.695 249.201L132.794 255.495ZM144.816 249.255C144.816 248.53 144.888 247.864 145.03 247.258C145.173 246.64 145.381 246.111 145.654 245.671C145.927 245.22 146.254 244.875 146.635 244.637C147.027 244.388 147.461 244.263 147.936 244.263C148.423 244.263 148.857 244.388 149.238 244.637C149.618 244.875 149.945 245.22 150.218 245.671C150.491 246.111 150.699 246.64 150.842 247.258C150.985 247.864 151.056 248.53 151.056 249.255C151.056 249.98 150.985 250.651 150.842 251.269C150.699 251.876 150.491 252.405 150.218 252.856C149.945 253.296 149.618 253.641 149.238 253.89C148.857 254.128 148.423 254.247 147.936 254.247C147.461 254.247 147.027 254.128 146.635 253.89C146.254 253.641 145.927 253.296 145.654 252.856C145.381 252.405 145.173 251.876 145.03 251.269C144.888 250.651 144.816 249.98 144.816 249.255ZM143.301 249.255C143.301 250.503 143.497 251.608 143.889 252.571C144.281 253.534 144.822 254.294 145.511 254.853C146.213 255.4 147.021 255.673 147.936 255.673C148.851 255.673 149.654 255.4 150.343 254.853C151.044 254.294 151.591 253.534 151.983 252.571C152.375 251.608 152.571 250.503 152.571 249.255C152.571 248.007 152.375 246.902 151.983 245.939C151.591 244.976 151.044 244.221 150.343 243.675C149.654 243.116 148.851 242.837 147.936 242.837C147.021 242.837 146.213 243.116 145.511 243.675C144.822 244.221 144.281 244.976 143.889 245.939C143.497 246.902 143.301 248.007 143.301 249.255ZM154.704 245.475L157.467 244.655V255.495H158.983V242.837L154.704 243.906V245.475ZM161.839 244.441H168.31L163.015 255.495H164.602L170.574 243.015H161.839V244.441Z" fill="#F0F0F0"/>
<path opacity="0.5" d="M199.012 255.495H207.819V254.069H202.132L206.108 250.022C206.595 249.522 206.993 248.958 207.302 248.328C207.611 247.698 207.766 247.062 207.766 246.42C207.766 246.04 207.689 245.642 207.534 245.226C207.38 244.81 207.142 244.424 206.821 244.067C206.5 243.698 206.09 243.401 205.591 243.176C205.092 242.938 204.497 242.819 203.808 242.819C202.952 242.819 202.215 243.009 201.597 243.389C200.991 243.758 200.528 244.281 200.207 244.958C199.886 245.624 199.725 246.402 199.725 247.294H201.241C201.241 246.664 201.342 246.123 201.544 245.671C201.746 245.208 202.037 244.857 202.417 244.62C202.81 244.37 203.273 244.245 203.808 244.245C204.188 244.245 204.527 244.311 204.824 244.441C205.121 244.572 205.371 244.744 205.573 244.958C205.787 245.172 205.947 245.41 206.054 245.671C206.161 245.933 206.215 246.2 206.215 246.474C206.215 246.807 206.161 247.127 206.054 247.436C205.959 247.734 205.811 248.031 205.609 248.328C205.419 248.613 205.187 248.904 204.913 249.201L199.012 255.495ZM211.034 249.255C211.034 248.53 211.106 247.864 211.248 247.258C211.391 246.64 211.599 246.111 211.872 245.671C212.146 245.22 212.473 244.875 212.853 244.637C213.245 244.388 213.679 244.263 214.154 244.263C214.642 244.263 215.075 244.388 215.456 244.637C215.836 244.875 216.163 245.22 216.436 245.671C216.71 246.111 216.918 246.64 217.06 247.258C217.203 247.864 217.274 248.53 217.274 249.255C217.274 249.98 217.203 250.651 217.06 251.269C216.918 251.876 216.71 252.405 216.436 252.856C216.163 253.296 215.836 253.641 215.456 253.89C215.075 254.128 214.642 254.247 214.154 254.247C213.679 254.247 213.245 254.128 212.853 253.89C212.473 253.641 212.146 253.296 211.872 252.856C211.599 252.405 211.391 251.876 211.248 251.269C211.106 250.651 211.034 249.98 211.034 249.255ZM209.519 249.255C209.519 250.503 209.715 251.608 210.107 252.571C210.5 253.534 211.04 254.294 211.73 254.853C212.431 255.4 213.239 255.673 214.154 255.673C215.07 255.673 215.872 255.4 216.561 254.853C217.262 254.294 217.809 253.534 218.201 252.571C218.594 251.608 218.79 250.503 218.79 249.255C218.79 248.007 218.594 246.902 218.201 245.939C217.809 244.976 217.262 244.221 216.561 243.675C215.872 243.116 215.07 242.837 214.154 242.837C213.239 242.837 212.431 243.116 211.73 243.675C211.04 244.221 210.5 244.976 210.107 245.939C209.715 246.902 209.519 248.007 209.519 249.255ZM220.922 245.475L223.685 244.655V255.495H225.201V242.837L220.922 243.906V245.475ZM228.948 246.028C228.948 246.515 229.031 246.955 229.198 247.347C229.364 247.728 229.596 248.054 229.893 248.328C230.202 248.601 230.565 248.809 230.981 248.952C231.408 249.094 231.878 249.166 232.389 249.166C232.9 249.166 233.364 249.094 233.78 248.952C234.207 248.809 234.57 248.601 234.867 248.328C235.176 248.054 235.414 247.728 235.58 247.347C235.747 246.955 235.83 246.515 235.83 246.028C235.83 245.434 235.675 244.899 235.366 244.424C235.069 243.936 234.659 243.55 234.136 243.265C233.625 242.979 233.043 242.837 232.389 242.837C231.735 242.837 231.147 242.979 230.624 243.265C230.113 243.55 229.703 243.936 229.394 244.424C229.097 244.899 228.948 245.434 228.948 246.028ZM230.392 246.206C230.392 245.814 230.475 245.463 230.642 245.154C230.82 244.845 231.058 244.608 231.355 244.441C231.664 244.263 232.009 244.174 232.389 244.174C232.781 244.174 233.126 244.263 233.423 244.441C233.72 244.608 233.952 244.845 234.118 245.154C234.297 245.463 234.386 245.814 234.386 246.206C234.386 246.599 234.291 246.943 234.101 247.24C233.922 247.537 233.679 247.769 233.37 247.936C233.072 248.102 232.746 248.185 232.389 248.185C232.032 248.185 231.7 248.102 231.391 247.936C231.094 247.769 230.85 247.537 230.66 247.24C230.481 246.943 230.392 246.599 230.392 246.206ZM228.503 252.107C228.503 252.595 228.598 253.052 228.788 253.48C228.99 253.908 229.263 254.288 229.608 254.621C229.964 254.954 230.374 255.215 230.838 255.406C231.313 255.584 231.83 255.673 232.389 255.673C232.948 255.673 233.459 255.584 233.922 255.406C234.398 255.215 234.808 254.954 235.152 254.621C235.509 254.288 235.782 253.908 235.972 253.48C236.175 253.052 236.276 252.595 236.276 252.107C236.276 251.537 236.169 251.032 235.955 250.592C235.753 250.14 235.467 249.766 235.099 249.469C234.742 249.16 234.326 248.928 233.851 248.774C233.387 248.619 232.9 248.542 232.389 248.542C231.878 248.542 231.385 248.619 230.909 248.774C230.446 248.928 230.03 249.16 229.661 249.469C229.305 249.766 229.02 250.14 228.806 250.592C228.604 251.032 228.503 251.537 228.503 252.107ZM229.947 251.929C229.947 251.477 230.059 251.073 230.285 250.717C230.523 250.348 230.826 250.057 231.195 249.843C231.575 249.629 231.973 249.522 232.389 249.522C232.805 249.522 233.197 249.629 233.566 249.843C233.946 250.057 234.249 250.348 234.475 250.717C234.713 251.073 234.831 251.477 234.831 251.929C234.831 252.44 234.713 252.874 234.475 253.231C234.249 253.587 233.946 253.861 233.566 254.051C233.197 254.241 232.805 254.336 232.389 254.336C231.973 254.336 231.575 254.241 231.195 254.051C230.826 253.861 230.523 253.587 230.285 253.231C230.059 252.874 229.947 252.44 229.947 251.929Z" fill="#F0F0F0"/>
<path opacity="0.5" d="M265.231 255.495H274.038V254.069H268.351L272.327 250.022C272.814 249.522 273.212 248.958 273.521 248.328C273.83 247.698 273.985 247.062 273.985 246.42C273.985 246.04 273.907 245.642 273.753 245.226C273.598 244.81 273.361 244.424 273.04 244.067C272.719 243.698 272.309 243.401 271.81 243.176C271.31 242.938 270.716 242.819 270.027 242.819C269.171 242.819 268.434 243.009 267.816 243.389C267.21 243.758 266.746 244.281 266.426 244.958C266.105 245.624 265.944 246.402 265.944 247.294H267.46C267.46 246.664 267.561 246.123 267.763 245.671C267.965 245.208 268.256 244.857 268.636 244.62C269.028 244.37 269.492 244.245 270.027 244.245C270.407 244.245 270.746 244.311 271.043 244.441C271.34 244.572 271.59 244.744 271.792 244.958C272.006 245.172 272.166 245.41 272.273 245.671C272.38 245.933 272.434 246.2 272.434 246.474C272.434 246.807 272.38 247.127 272.273 247.436C272.178 247.734 272.03 248.031 271.827 248.328C271.637 248.613 271.406 248.904 271.132 249.201L265.231 255.495ZM277.253 249.255C277.253 248.53 277.325 247.864 277.467 247.258C277.61 246.64 277.818 246.111 278.091 245.671C278.364 245.22 278.691 244.875 279.072 244.637C279.464 244.388 279.898 244.263 280.373 244.263C280.86 244.263 281.294 244.388 281.675 244.637C282.055 244.875 282.382 245.22 282.655 245.671C282.928 246.111 283.136 246.64 283.279 247.258C283.422 247.864 283.493 248.53 283.493 249.255C283.493 249.98 283.422 250.651 283.279 251.269C283.136 251.876 282.928 252.405 282.655 252.856C282.382 253.296 282.055 253.641 281.675 253.89C281.294 254.128 280.86 254.247 280.373 254.247C279.898 254.247 279.464 254.128 279.072 253.89C278.691 253.641 278.364 253.296 278.091 252.856C277.818 252.405 277.61 251.876 277.467 251.269C277.325 250.651 277.253 249.98 277.253 249.255ZM275.738 249.255C275.738 250.503 275.934 251.608 276.326 252.571C276.718 253.534 277.259 254.294 277.948 254.853C278.65 255.4 279.458 255.673 280.373 255.673C281.288 255.673 282.091 255.4 282.78 254.853C283.481 254.294 284.028 253.534 284.42 252.571C284.812 251.608 285.008 250.503 285.008 249.255C285.008 248.007 284.812 246.902 284.42 245.939C284.028 244.976 283.481 244.221 282.78 243.675C282.091 243.116 281.288 242.837 280.373 242.837C279.458 242.837 278.65 243.116 277.948 243.675C277.259 244.221 276.718 244.976 276.326 245.939C275.934 246.902 275.738 248.007 275.738 249.255ZM287.141 245.475L289.904 244.655V255.495H291.42V242.837L287.141 243.906V245.475ZM301.674 247.116C301.674 247.686 301.549 248.191 301.3 248.631C301.062 249.071 300.729 249.421 300.301 249.683C299.885 249.932 299.41 250.057 298.875 250.057C298.34 250.057 297.859 249.932 297.431 249.683C297.015 249.421 296.682 249.071 296.433 248.631C296.195 248.191 296.076 247.686 296.076 247.116C296.076 246.545 296.195 246.046 296.433 245.618C296.682 245.178 297.015 244.834 297.431 244.584C297.859 244.334 298.34 244.21 298.875 244.21C299.41 244.21 299.885 244.334 300.301 244.584C300.729 244.834 301.062 245.178 301.3 245.618C301.549 246.046 301.674 246.545 301.674 247.116ZM298.126 255.495L302.334 249.701C302.572 249.368 302.762 248.982 302.904 248.542C303.047 248.102 303.118 247.627 303.118 247.116C303.118 246.26 302.928 245.511 302.548 244.869C302.179 244.227 301.674 243.728 301.032 243.372C300.402 243.015 299.683 242.837 298.875 242.837C298.079 242.837 297.36 243.015 296.718 243.372C296.076 243.728 295.565 244.227 295.185 244.869C294.816 245.511 294.632 246.26 294.632 247.116C294.632 247.686 294.727 248.221 294.917 248.72C295.108 249.207 295.369 249.635 295.702 250.004C296.046 250.372 296.439 250.657 296.878 250.859C297.33 251.061 297.811 251.163 298.323 251.163C298.727 251.163 299.083 251.115 299.392 251.02C299.713 250.925 299.992 250.729 300.23 250.432L300.123 250.342L296.219 255.495H298.126Z" fill="#F0F0F0"/>
<path opacity="0.5" d="M331.45 255.495H340.257V254.069H334.57L338.545 250.022C339.033 249.522 339.431 248.958 339.74 248.328C340.049 247.698 340.203 247.062 340.203 246.42C340.203 246.04 340.126 245.642 339.972 245.226C339.817 244.81 339.579 244.424 339.259 244.067C338.938 243.698 338.528 243.401 338.028 243.176C337.529 242.938 336.935 242.819 336.246 242.819C335.39 242.819 334.653 243.009 334.035 243.389C333.429 243.758 332.965 244.281 332.644 244.958C332.323 245.624 332.163 246.402 332.163 247.294H333.678C333.678 246.664 333.779 246.123 333.981 245.671C334.183 245.208 334.475 244.857 334.855 244.62C335.247 244.37 335.711 244.245 336.246 244.245C336.626 244.245 336.965 244.311 337.262 244.441C337.559 244.572 337.809 244.744 338.011 244.958C338.225 245.172 338.385 245.41 338.492 245.671C338.599 245.933 338.652 246.2 338.652 246.474C338.652 246.807 338.599 247.127 338.492 247.436C338.397 247.734 338.248 248.031 338.046 248.328C337.856 248.613 337.624 248.904 337.351 249.201L331.45 255.495ZM343.472 249.255C343.472 248.53 343.543 247.864 343.686 247.258C343.829 246.64 344.037 246.111 344.31 245.671C344.583 245.22 344.91 244.875 345.29 244.637C345.683 244.388 346.116 244.263 346.592 244.263C347.079 244.263 347.513 244.388 347.893 244.637C348.274 244.875 348.601 245.22 348.874 245.671C349.147 246.111 349.355 246.64 349.498 247.258C349.64 247.864 349.712 248.53 349.712 249.255C349.712 249.98 349.64 250.651 349.498 251.269C349.355 251.876 349.147 252.405 348.874 252.856C348.601 253.296 348.274 253.641 347.893 253.89C347.513 254.128 347.079 254.247 346.592 254.247C346.116 254.247 345.683 254.128 345.29 253.89C344.91 253.641 344.583 253.296 344.31 252.856C344.037 252.405 343.829 251.876 343.686 251.269C343.543 250.651 343.472 249.98 343.472 249.255ZM341.957 249.255C341.957 250.503 342.153 251.608 342.545 252.571C342.937 253.534 343.478 254.294 344.167 254.853C344.868 255.4 345.677 255.673 346.592 255.673C347.507 255.673 348.309 255.4 348.999 254.853C349.7 254.294 350.247 253.534 350.639 252.571C351.031 251.608 351.227 250.503 351.227 249.255C351.227 248.007 351.031 246.902 350.639 245.939C350.247 244.976 349.7 244.221 348.999 243.675C348.309 243.116 347.507 242.837 346.592 242.837C345.677 242.837 344.868 243.116 344.167 243.675C343.478 244.221 342.937 244.976 342.545 245.939C342.153 246.902 341.957 248.007 341.957 249.255ZM352.29 255.495H361.097V254.069H355.41L359.385 250.022C359.873 249.522 360.271 248.958 360.58 248.328C360.889 247.698 361.043 247.062 361.043 246.42C361.043 246.04 360.966 245.642 360.812 245.226C360.657 244.81 360.42 244.424 360.099 244.067C359.778 243.698 359.368 243.401 358.868 243.176C358.369 242.938 357.775 242.819 357.086 242.819C356.23 242.819 355.493 243.009 354.875 243.389C354.269 243.758 353.805 244.281 353.484 244.958C353.163 245.624 353.003 246.402 353.003 247.294H354.518C354.518 246.664 354.619 246.123 354.821 245.671C355.024 245.208 355.315 244.857 355.695 244.62C356.087 244.37 356.551 244.245 357.086 244.245C357.466 244.245 357.805 244.311 358.102 244.441C358.399 244.572 358.649 244.744 358.851 244.958C359.065 245.172 359.225 245.41 359.332 245.671C359.439 245.933 359.492 246.2 359.492 246.474C359.492 246.807 359.439 247.127 359.332 247.436C359.237 247.734 359.088 248.031 358.886 248.328C358.696 248.613 358.464 248.904 358.191 249.201L352.29 255.495ZM364.312 249.255C364.312 248.53 364.383 247.864 364.526 247.258C364.669 246.64 364.877 246.111 365.15 245.671C365.423 245.22 365.75 244.875 366.13 244.637C366.523 244.388 366.957 244.263 367.432 244.263C367.919 244.263 368.353 244.388 368.733 244.637C369.114 244.875 369.441 245.22 369.714 245.671C369.987 246.111 370.195 246.64 370.338 247.258C370.481 247.864 370.552 248.53 370.552 249.255C370.552 249.98 370.481 250.651 370.338 251.269C370.195 251.876 369.987 252.405 369.714 252.856C369.441 253.296 369.114 253.641 368.733 253.89C368.353 254.128 367.919 254.247 367.432 254.247C366.957 254.247 366.523 254.128 366.13 253.89C365.75 253.641 365.423 253.296 365.15 252.856C364.877 252.405 364.669 251.876 364.526 251.269C364.383 250.651 364.312 249.98 364.312 249.255ZM362.797 249.255C362.797 250.503 362.993 251.608 363.385 252.571C363.777 253.534 364.318 254.294 365.007 254.853C365.709 255.4 366.517 255.673 367.432 255.673C368.347 255.673 369.149 255.4 369.839 254.853C370.54 254.294 371.087 253.534 371.479 252.571C371.871 251.608 372.067 250.503 372.067 249.255C372.067 248.007 371.871 246.902 371.479 245.939C371.087 244.976 370.54 244.221 369.839 243.675C369.149 243.116 368.347 242.837 367.432 242.837C366.517 242.837 365.709 243.116 365.007 243.675C364.318 244.221 363.777 244.976 363.385 245.939C362.993 246.902 362.797 248.007 362.797 249.255Z" fill="#F0F0F0"/>
<path opacity="0.5" d="M397.669 255.495H406.476V254.069H400.788L404.764 250.022C405.251 249.522 405.65 248.958 405.959 248.328C406.268 247.698 406.422 247.062 406.422 246.42C406.422 246.04 406.345 245.642 406.19 245.226C406.036 244.81 405.798 244.424 405.477 244.067C405.156 243.698 404.746 243.401 404.247 243.176C403.748 242.938 403.154 242.819 402.464 242.819C401.609 242.819 400.872 243.009 400.254 243.389C399.647 243.758 399.184 244.281 398.863 244.958C398.542 245.624 398.382 246.402 398.382 247.294H399.897C399.897 246.664 399.998 246.123 400.2 245.671C400.402 245.208 400.693 244.857 401.074 244.62C401.466 244.37 401.929 244.245 402.464 244.245C402.845 244.245 403.183 244.311 403.481 244.441C403.778 244.572 404.027 244.744 404.229 244.958C404.443 245.172 404.604 245.41 404.711 245.671C404.818 245.933 404.871 246.2 404.871 246.474C404.871 246.807 404.818 247.127 404.711 247.436C404.616 247.734 404.467 248.031 404.265 248.328C404.075 248.613 403.843 248.904 403.57 249.201L397.669 255.495ZM409.691 249.255C409.691 248.53 409.762 247.864 409.905 247.258C410.047 246.64 410.255 246.111 410.529 245.671C410.802 245.22 411.129 244.875 411.509 244.637C411.901 244.388 412.335 244.263 412.811 244.263C413.298 244.263 413.732 244.388 414.112 244.637C414.492 244.875 414.819 245.22 415.093 245.671C415.366 246.111 415.574 246.64 415.717 247.258C415.859 247.864 415.931 248.53 415.931 249.255C415.931 249.98 415.859 250.651 415.717 251.269C415.574 251.876 415.366 252.405 415.093 252.856C414.819 253.296 414.492 253.641 414.112 253.89C413.732 254.128 413.298 254.247 412.811 254.247C412.335 254.247 411.901 254.128 411.509 253.89C411.129 253.641 410.802 253.296 410.529 252.856C410.255 252.405 410.047 251.876 409.905 251.269C409.762 250.651 409.691 249.98 409.691 249.255ZM408.175 249.255C408.175 250.503 408.371 251.608 408.764 252.571C409.156 253.534 409.697 254.294 410.386 254.853C411.087 255.4 411.895 255.673 412.811 255.673C413.726 255.673 414.528 255.4 415.217 254.853C415.919 254.294 416.465 253.534 416.858 252.571C417.25 251.608 417.446 250.503 417.446 249.255C417.446 248.007 417.25 246.902 416.858 245.939C416.465 244.976 415.919 244.221 415.217 243.675C414.528 243.116 413.726 242.837 412.811 242.837C411.895 242.837 411.087 243.116 410.386 243.675C409.697 244.221 409.156 244.976 408.764 245.939C408.371 246.902 408.175 248.007 408.175 249.255ZM418.509 255.495H427.316V254.069H421.629L425.604 250.022C426.092 249.522 426.49 248.958 426.799 248.328C427.108 247.698 427.262 247.062 427.262 246.42C427.262 246.04 427.185 245.642 427.03 245.226C426.876 244.81 426.638 244.424 426.317 244.067C425.996 243.698 425.586 243.401 425.087 243.176C424.588 242.938 423.994 242.819 423.304 242.819C422.449 242.819 421.712 243.009 421.094 243.389C420.488 243.758 420.024 244.281 419.703 244.958C419.382 245.624 419.222 246.402 419.222 247.294H420.737C420.737 246.664 420.838 246.123 421.04 245.671C421.242 245.208 421.533 244.857 421.914 244.62C422.306 244.37 422.77 244.245 423.304 244.245C423.685 244.245 424.023 244.311 424.321 244.441C424.618 244.572 424.867 244.744 425.069 244.958C425.283 245.172 425.444 245.41 425.551 245.671C425.658 245.933 425.711 246.2 425.711 246.474C425.711 246.807 425.658 247.127 425.551 247.436C425.456 247.734 425.307 248.031 425.105 248.328C424.915 248.613 424.683 248.904 424.41 249.201L418.509 255.495ZM429.729 245.475L432.492 244.655V255.495H434.007V242.837L429.729 243.906V245.475Z" fill="#F0F0F0"/>
<path d="M396.676 133.246C406.17 133.246 413.867 125.371 413.867 115.658C413.867 105.945 406.17 98.0703 396.676 98.0703C387.181 98.0703 379.484 105.945 379.484 115.658C379.484 125.371 387.181 133.246 396.676 133.246Z" fill="#ED4C5C"/>
<path d="M402.005 119.762L402.063 116.596L398.968 115.658L402.063 114.72L402.005 111.554L403.896 114.075L406.991 113.137L405.1 115.658L406.991 118.179L403.896 117.241L402.005 119.762Z" fill="#F0F0F0"/>
<path d="M397.363 122.694C393.581 122.694 390.544 119.528 390.544 115.659C390.544 111.789 393.581 108.624 397.363 108.624C398.795 108.624 400.113 109.093 401.26 109.855C399.712 108.037 397.42 106.865 394.841 106.865C390.142 106.865 386.36 110.793 386.36 115.659C386.36 120.525 390.142 124.452 394.841 124.452C397.42 124.452 399.712 123.28 401.26 121.463C400.171 122.225 398.853 122.694 397.363 122.694Z" fill="#F0F0F0"/>
<mask id="mask0_96_1333" style="mask-type:luminance" maskUnits="userSpaceOnUse" x="379" y="167" width="35" height="36">
<path d="M396.676 202.293C406.17 202.293 413.867 194.419 413.867 184.705C413.867 174.992 406.17 167.118 396.676 167.118C387.181 167.118 379.484 174.992 379.484 184.705C379.484 194.419 387.181 202.293 396.676 202.293Z" fill="white"/>
</mask>
<g mask="url(#mask0_96_1333)">
<path d="M379.484 167.118H413.867V202.293H379.484V167.118Z" fill="#113A6B"/>
<path d="M396.676 174.001L397.233 175.753H399.026L397.569 176.832L398.126 178.591L396.669 177.505L395.212 178.591L395.769 176.832L394.312 175.753H396.112L396.676 174.001ZM389.276 177.134L390.887 177.972L392.156 176.667L391.874 178.488L393.479 179.326L391.7 179.614L391.418 181.435L390.599 179.786L388.819 180.082L390.095 178.776L389.276 177.134ZM386.213 184.705L387.926 184.135V182.301L388.98 183.791L390.699 183.221L389.638 184.712L390.699 186.203L388.98 185.633L387.926 187.124V185.282L386.213 184.705ZM389.276 192.276L390.095 190.627L388.819 189.329L390.599 189.617L391.418 187.975L391.7 189.796L393.479 190.085L391.868 190.923L392.156 192.743L390.881 191.438L389.276 192.276ZM396.676 195.409L396.119 193.657H394.326L395.783 192.578L395.225 190.82L396.683 191.905L398.14 190.82L397.583 192.578L399.04 193.657H397.24L396.676 195.409ZM404.076 192.276L402.465 191.438L401.195 192.743L401.477 190.923L399.872 190.085L401.652 189.796L401.934 187.975L402.753 189.624L404.533 189.329L403.257 190.634L404.076 192.276ZM407.139 184.705L405.426 185.275V187.11L404.372 185.619L402.653 186.189L403.714 184.698L402.653 183.208L404.372 183.778L405.426 182.287V184.128L407.139 184.705ZM404.076 177.134L403.257 178.783L404.533 180.082L402.753 179.793L401.934 181.435L401.652 179.614L399.872 179.326L401.484 178.488L401.195 176.667L402.471 177.972L404.076 177.134Z" fill="#FFDA44"/>
</g>
<path d="M6.38247 42.6101V58.6554H7.64317V42.6101H6.38247ZM7.09304 43.802H10.1416C11.3183 43.802 12.2734 44.1077 13.0069 44.7189C13.7404 45.3149 14.1071 46.1936 14.1071 47.3549C14.1071 48.501 13.7404 49.3797 13.0069 49.9909C12.2734 50.6022 11.3183 50.9078 10.1416 50.9078H7.09304V52.0997H10.1416C11.1502 52.0997 12.0442 51.9164 12.8235 51.5496C13.6181 51.1676 14.2447 50.6175 14.7031 49.8993C15.1615 49.181 15.3907 48.3329 15.3907 47.3549C15.3907 46.3616 15.1615 45.5135 14.7031 44.8106C14.2447 44.1077 13.6181 43.5652 12.8235 43.1832C12.0442 42.8011 11.1502 42.6101 10.1416 42.6101H7.09304V43.802ZM17.2148 53.3834C17.2148 54.4378 17.4517 55.3852 17.9254 56.2257C18.3991 57.0509 19.0409 57.7003 19.8508 58.174C20.676 58.6478 21.6005 58.8846 22.6244 58.8846C23.6482 58.8846 24.5651 58.6478 25.375 58.174C26.2002 57.7003 26.8496 57.0509 27.3234 56.2257C27.7971 55.3852 28.0339 54.4378 28.0339 53.3834C28.0339 52.3137 27.7971 51.3663 27.3234 50.5411C26.8496 49.7159 26.2002 49.0664 25.375 48.5927C24.5651 48.119 23.6482 47.8821 22.6244 47.8821C21.6005 47.8821 20.676 48.119 19.8508 48.5927C19.0409 49.0664 18.3991 49.7159 17.9254 50.5411C17.4517 51.3663 17.2148 52.3137 17.2148 53.3834ZM18.4297 53.3834C18.4297 52.5276 18.6131 51.7712 18.9798 51.1141C19.3466 50.457 19.8432 49.9451 20.4697 49.5783C21.1115 49.1963 21.8298 49.0053 22.6244 49.0053C23.419 49.0053 24.1296 49.1963 24.7561 49.5783C25.3979 49.9451 25.9022 50.4647 26.269 51.137C26.6357 51.7941 26.8191 52.5429 26.8191 53.3834C26.8191 54.2391 26.6357 54.9955 26.269 55.6526C25.9022 56.3097 25.3979 56.8293 24.7561 57.2113C24.1296 57.5781 23.419 57.7614 22.6244 57.7614C21.8298 57.7614 21.1115 57.5781 20.4697 57.2113C19.8432 56.8293 19.3466 56.3097 18.9798 55.6526C18.6131 54.9955 18.4297 54.2391 18.4297 53.3834ZM30.8281 53.3834C30.8281 52.5276 31.0114 51.7712 31.3782 51.1141C31.7449 50.457 32.2416 49.9451 32.8681 49.5783C33.5099 49.1963 34.2281 49.0053 35.0228 49.0053C35.5882 49.0053 36.1154 49.0893 36.6044 49.2574C37.0934 49.4255 37.5136 49.6395 37.8651 49.8993C38.2318 50.159 38.4916 50.4341 38.6444 50.7244V49.2345C38.3235 48.8678 37.8269 48.5545 37.1545 48.2947C36.4974 48.0197 35.7868 47.8821 35.0228 47.8821C33.9989 47.8821 33.0821 48.119 32.2721 48.5927C31.4622 49.0664 30.8128 49.7159 30.3238 50.5411C29.8501 51.3663 29.6132 52.3137 29.6132 53.3834C29.6132 54.4378 29.8501 55.3852 30.3238 56.2257C30.8128 57.0509 31.4622 57.7003 32.2721 58.174C33.0821 58.6478 33.9989 58.8846 35.0228 58.8846C35.7868 58.8846 36.4974 58.7547 37.1545 58.4949C37.8269 58.2352 38.3235 57.9143 38.6444 57.5322V56.0423C38.4916 56.3174 38.2318 56.5924 37.8651 56.8675C37.5136 57.1273 37.0934 57.3412 36.6044 57.5093C36.1154 57.6774 35.5882 57.7614 35.0228 57.7614C34.2281 57.7614 33.5099 57.5781 32.8681 57.2113C32.2416 56.8293 31.7449 56.3097 31.3782 55.6526C31.0114 54.9955 30.8281 54.2391 30.8281 53.3834ZM39.8946 48.1113V49.2345H46.0834V48.1113H39.8946ZM42.393 48.4323V58.6554H43.585V48.4323H42.393ZM62.9786 49.1428L63.0932 47.3091L55.0248 57.6239L54.9101 59.4577L62.9786 49.1428ZM56.1021 48.1113H54.9101V59.4577L56.1021 57.7614V48.1113ZM63.0932 47.3091L61.9013 49.0053V58.6554H63.0932V47.3091ZM67.3476 53.6355H75.0493V52.5123H67.3476V53.6355ZM74.3158 48.1113V58.6554H75.5077V48.1113H74.3158ZM66.637 48.1113V58.6554H67.8289V48.1113H66.637ZM84.679 49.9222L88.5069 58.1511H89.8364L84.679 47.3091L79.5216 58.1511H80.851L84.679 49.9222ZM90.0198 58.6554V60.7184H91.2117V57.5322H78.1463V60.7184H79.407V58.6554H90.0198ZM93.8998 53.6814H103C103.015 53.5897 103.023 53.498 103.023 53.4063C103.038 53.2993 103.046 53.2 103.046 53.1083C103.046 52.0539 102.832 51.137 102.404 50.3577C101.991 49.5783 101.418 48.9747 100.685 48.5469C99.9512 48.1037 99.126 47.8821 98.2091 47.8821C97.3687 47.8821 96.6046 48.0579 95.917 48.4093C95.2293 48.7455 94.6639 49.2269 94.2207 49.8534C93.7776 50.4647 93.4643 51.1752 93.2809 51.9851C93.2351 52.2144 93.1969 52.4436 93.1663 52.6728C93.1511 52.8867 93.1434 53.116 93.1434 53.3605C93.1434 54.4149 93.3574 55.3623 93.7852 56.2028C94.2131 57.0432 94.7938 57.7003 95.5273 58.174C96.2761 58.6478 97.1089 58.8846 98.0258 58.8846C98.9579 58.8846 99.722 58.7624 100.318 58.5179C100.914 58.2581 101.411 57.9295 101.808 57.5322C102.205 57.1196 102.557 56.6765 102.862 56.2028L101.9 55.5839C101.67 55.9659 101.388 56.325 101.051 56.6612C100.731 56.9821 100.333 57.2495 99.8595 57.4635C99.4011 57.6621 98.8357 57.7614 98.1633 57.7614C97.4145 57.7614 96.7498 57.5857 96.1691 57.2342C95.6037 56.8675 95.1605 56.3556 94.8396 55.6985C94.5187 55.0261 94.3583 54.2468 94.3583 53.3605L94.3812 52.9479C94.3812 52.1227 94.5569 51.4121 94.9084 50.8161C95.2599 50.2049 95.7259 49.7388 96.3066 49.4179C96.8873 49.097 97.5215 48.9365 98.2091 48.9365C98.8968 48.9365 99.5004 49.097 100.02 49.4179C100.555 49.7388 100.975 50.182 101.281 50.7474C101.586 51.2975 101.739 51.9317 101.739 52.6499H93.8998V53.6814ZM105.742 48.1113V58.6554H106.934V48.1113H105.742ZM111.45 48.1113L106.499 52.4665L111.908 58.6554H113.421L108.012 52.4665L112.986 48.1113H111.45ZM115.8 53.3834C115.8 52.5276 115.983 51.7712 116.35 51.1141C116.717 50.457 117.214 49.9451 117.84 49.5783C118.482 49.1963 119.2 49.0053 119.995 49.0053C120.56 49.0053 121.087 49.0893 121.576 49.2574C122.065 49.4255 122.486 49.6395 122.837 49.8993C123.204 50.159 123.464 50.4341 123.616 50.7244V49.2345C123.295 48.8678 122.799 48.5545 122.126 48.2947C121.469 48.0197 120.759 47.8821 119.995 47.8821C118.971 47.8821 118.054 48.119 117.244 48.5927C116.434 49.0664 115.785 49.7159 115.296 50.5411C114.822 51.3663 114.585 52.3137 114.585 53.3834C114.585 54.4378 114.822 55.3852 115.296 56.2257C115.785 57.0509 116.434 57.7003 117.244 58.174C118.054 58.6478 118.971 58.8846 119.995 58.8846C120.759 58.8846 121.469 58.7547 122.126 58.4949C122.799 58.2352 123.295 57.9143 123.616 57.5322V56.0423C123.464 56.3174 123.204 56.5924 122.837 56.8675C122.486 57.1273 122.065 57.3412 121.576 57.5093C121.087 57.6774 120.56 57.7614 119.995 57.7614C119.2 57.7614 118.482 57.5781 117.84 57.2113C117.214 56.8293 116.717 56.3097 116.35 55.6526C115.983 54.9955 115.8 54.2391 115.8 53.3834ZM126.746 55.5609C126.746 55.0261 126.884 54.5753 127.159 54.2086C127.434 53.8418 127.808 53.5667 128.282 53.3834C128.771 53.1847 129.321 53.0854 129.932 53.0854C130.65 53.0854 131.269 53.1847 131.789 53.3834C132.324 53.5667 132.805 53.8189 133.233 54.1398V53.4063C133.111 53.2688 132.904 53.1007 132.614 52.902C132.339 52.7034 131.972 52.5276 131.514 52.3748C131.071 52.222 130.528 52.1456 129.886 52.1456C129.061 52.1456 128.32 52.2831 127.663 52.5582C127.006 52.818 126.486 53.2076 126.104 53.7272C125.722 54.2315 125.531 54.858 125.531 55.6068C125.531 56.3556 125.699 56.9745 126.036 57.4635C126.372 57.9372 126.807 58.2963 127.342 58.5408C127.892 58.77 128.481 58.8846 129.107 58.8846C129.856 58.8846 130.521 58.7394 131.101 58.4491C131.697 58.1435 132.163 57.7309 132.499 57.2113C132.851 56.6765 133.027 56.0729 133.027 55.4005L132.752 54.7128C132.752 55.3699 132.606 55.9277 132.316 56.3861C132.026 56.8446 131.621 57.196 131.101 57.4405C130.597 57.685 130.024 57.8073 129.382 57.8073C128.924 57.8073 128.488 57.7309 128.076 57.5781C127.678 57.41 127.357 57.1655 127.113 56.8446C126.868 56.5084 126.746 56.0805 126.746 55.5609ZM127.044 50.1972C127.258 50.0139 127.518 49.8228 127.823 49.6242C128.144 49.4255 128.511 49.2651 128.924 49.1428C129.336 49.0053 129.795 48.9365 130.299 48.9365C131.032 48.9365 131.621 49.1352 132.064 49.5325C132.522 49.9145 132.752 50.4647 132.752 51.1829V58.6554H133.944V51.1829C133.944 50.4952 133.798 49.9069 133.508 49.4179C133.218 48.9289 132.797 48.5545 132.247 48.2947C131.713 48.0197 131.063 47.8821 130.299 47.8821C129.397 47.8821 128.626 48.0349 127.984 48.3406C127.357 48.6462 126.845 48.9595 126.448 49.2804L127.044 50.1972ZM152.422 57.5322V48.1113H151.23V57.5322H145.66V48.1113H144.468V58.6554H153.202V60.7184H154.256V57.5322H152.422ZM156.711 53.6814H165.811C165.826 53.5897 165.834 53.498 165.834 53.4063C165.849 53.2993 165.857 53.2 165.857 53.1083C165.857 52.0539 165.643 51.137 165.215 50.3577C164.802 49.5783 164.229 48.9747 163.496 48.5469C162.762 48.1037 161.937 47.8821 161.02 47.8821C160.18 47.8821 159.416 48.0579 158.728 48.4093C158.041 48.7455 157.475 49.2269 157.032 49.8534C156.589 50.4647 156.276 51.1752 156.092 51.9851C156.046 52.2144 156.008 52.4436 155.978 52.6728C155.962 52.8867 155.955 53.116 155.955 53.3605C155.955 54.4149 156.169 55.3623 156.596 56.2028C157.024 57.0432 157.605 57.7003 158.338 58.174C159.087 58.6478 159.92 58.8846 160.837 58.8846C161.769 58.8846 162.533 58.7624 163.129 58.5179C163.725 58.2581 164.222 57.9295 164.619 57.5322C165.016 57.1196 165.368 56.6765 165.673 56.2028L164.711 55.5839C164.482 55.9659 164.199 56.325 163.863 56.6612C163.542 56.9821 163.144 57.2495 162.671 57.4635C162.212 57.6621 161.647 57.7614 160.975 57.7614C160.226 57.7614 159.561 57.5857 158.98 57.2342C158.415 56.8675 157.972 56.3556 157.651 55.6985C157.33 55.0261 157.169 54.2468 157.169 53.3605L157.192 52.9479C157.192 52.1227 157.368 51.4121 157.72 50.8161C158.071 50.2049 158.537 49.7388 159.118 49.4179C159.699 49.097 160.333 48.9365 161.02 48.9365C161.708 48.9365 162.312 49.097 162.831 49.4179C163.366 49.7388 163.786 50.182 164.092 50.7474C164.397 51.2975 164.55 51.9317 164.55 52.6499H156.711V53.6814ZM169.287 53.6355H176.989V52.5123H169.287V53.6355ZM176.255 48.1113V58.6554H177.447V48.1113H176.255ZM168.576 48.1113V58.6554H169.768V48.1113H168.576ZM6.88675 83.6355H14.5885V82.5123H6.88675V83.6355ZM13.855 78.1113V88.6554H15.0469V78.1113H13.855ZM6.17617 78.1113V88.6554H7.3681V78.1113H6.17617ZM18.7628 85.5609C18.7628 85.0261 18.9003 84.5753 19.1754 84.2086C19.4504 83.8418 19.8248 83.5667 20.2985 83.3834C20.7875 83.1847 21.3377 83.0854 21.9489 83.0854C22.6671 83.0854 23.286 83.1847 23.8056 83.3834C24.3404 83.5667 24.8218 83.8189 25.2496 84.1398V83.4063C25.1274 83.2688 24.9211 83.1007 24.6308 82.902C24.3557 82.7034 23.9889 82.5276 23.5305 82.3748C23.0874 82.222 22.5449 82.1456 21.9031 82.1456C21.0779 82.1456 20.3367 82.2831 19.6796 82.5582C19.0225 82.818 18.503 83.2076 18.121 83.7272C17.7389 84.2315 17.5479 84.858 17.5479 85.6068C17.5479 86.3556 17.716 86.9745 18.0522 87.4635C18.3884 87.9372 18.8239 88.2963 19.3587 88.5408C19.9089 88.77 20.4972 88.8846 21.1237 88.8846C21.8725 88.8846 22.5372 88.7394 23.1179 88.4491C23.7139 88.1435 24.18 87.7309 24.5161 87.2113C24.8676 86.6765 25.0434 86.0729 25.0434 85.4005L24.7683 84.7128C24.7683 85.3699 24.6231 85.9277 24.3328 86.3861C24.0424 86.8446 23.6375 87.196 23.1179 87.4405C22.6136 87.685 22.0406 87.8073 21.3988 87.8073C20.9403 87.8073 20.5048 87.7309 20.0922 87.5781C19.6949 87.41 19.374 87.1655 19.1295 86.8446C18.885 86.5084 18.7628 86.0805 18.7628 85.5609ZM19.0608 80.1972C19.2747 80.0139 19.5345 79.8228 19.8401 79.6242C20.161 79.4255 20.5277 79.2651 20.9403 79.1428C21.3529 79.0053 21.8114 78.9365 22.3157 78.9365C23.0492 78.9365 23.6375 79.1352 24.0806 79.5325C24.5391 79.9145 24.7683 80.4647 24.7683 81.1829V88.6554H25.9602V81.1829C25.9602 80.4952 25.8151 79.9069 25.5247 79.4179C25.2344 78.9289 24.8141 78.5545 24.264 78.2947C23.7292 78.0197 23.0797 77.8821 22.3157 77.8821C21.4141 77.8821 20.6424 78.0349 20.0005 78.3406C19.374 78.6462 18.8621 78.9595 18.4648 79.2804L19.0608 80.1972ZM46.1579 78.1113L41.757 82.4665L46.6164 88.6554H48.1292L43.1093 82.604L47.6708 78.1113H46.1579ZM42.0549 78.1113H40.9318V88.6554H42.0549V78.1113ZM36.8058 78.1113H35.3159L39.8544 82.604L34.8575 88.6554H36.3474L41.2297 82.4665L36.8058 78.1113ZM58.1212 79.1428L58.2358 77.3091L50.1673 87.6239L50.0527 89.4577L58.1212 79.1428ZM51.2446 78.1113H50.0527V89.4577L51.2446 87.7614V78.1113ZM58.2358 77.3091L57.0438 79.0053V88.6554H58.2358V77.3091ZM70.3752 78.1113H61.9629V84.9879C61.9629 85.8742 61.7948 86.5237 61.4586 86.9363C61.1377 87.3489 60.7481 87.5551 60.2896 87.5551V88.6554C60.9009 88.6554 61.4204 88.5255 61.8483 88.2657C62.2762 87.9907 62.5971 87.5857 62.811 87.0509C63.0402 86.5007 63.1548 85.8131 63.1548 84.9879V79.2345H69.1833V88.6554H70.3752V78.1113ZM82.0716 78.1113H80.7422L77.0059 87.0509L77.556 87.0967L73.7281 78.1113H72.3069L76.5704 87.5781L73.8656 93.6982H75.1951L82.0716 78.1113ZM84.7404 83.6814H88.6371V82.5582H84.7404V83.6814ZM84.0298 78.1113V88.6554H85.2218V78.1113H84.0298ZM87.789 83.3834C87.789 84.4378 88.0259 85.3852 88.4996 86.2257C88.9733 87.0509 89.6228 87.7003 90.448 88.174C91.2731 88.6478 92.19 88.8846 93.1986 88.8846C94.2224 88.8846 95.1393 88.6478 95.9492 88.174C96.7591 87.7003 97.4009 87.0509 97.8746 86.2257C98.3636 85.3852 98.6081 84.4378 98.6081 83.3834C98.6081 82.3137 98.3636 81.3663 97.8746 80.5411C97.4009 79.7159 96.7591 79.0664 95.9492 78.5927C95.1393 78.119 94.2224 77.8821 93.1986 77.8821C92.1747 77.8821 91.2502 78.119 90.425 78.5927C89.6151 79.0664 88.9733 79.7159 88.4996 80.5411C88.0259 81.3663 87.789 82.3137 87.789 83.3834ZM89.0039 83.3834C89.0039 82.5276 89.1873 81.7712 89.554 81.1141C89.9208 80.457 90.4174 79.9451 91.0439 79.5783C91.6857 79.1963 92.4039 79.0053 93.1986 79.0053C93.9932 79.0053 94.7038 79.1963 95.3303 79.5783C95.9721 79.9451 96.4764 80.4647 96.8431 81.137C97.2099 81.7941 97.3933 82.5429 97.3933 83.3834C97.3933 84.2391 97.2099 84.9955 96.8431 85.6526C96.4764 86.3097 95.9721 86.8293 95.3303 87.2113C94.7038 87.5781 93.9932 87.7614 93.1986 87.7614C92.4039 87.7614 91.6857 87.5781 91.0439 87.2113C90.4174 86.8293 89.9208 86.3097 89.554 85.6526C89.1873 84.9955 89.0039 84.2391 89.0039 83.3834ZM108.804 83.6355H116.506V82.5123H108.804V83.6355ZM115.772 78.1113V88.6554H116.964V78.1113H115.772ZM108.093 78.1113V88.6554H109.285V78.1113H108.093ZM120.336 83.6814H129.436C129.451 83.5897 129.459 83.498 129.459 83.4063C129.474 83.2993 129.482 83.2 129.482 83.1083C129.482 82.0539 129.268 81.137 128.84 80.3577C128.427 79.5783 127.854 78.9747 127.121 78.5469C126.387 78.1037 125.562 77.8821 124.645 77.8821C123.805 77.8821 123.041 78.0579 122.353 78.4093C121.666 78.7455 121.1 79.2269 120.657 79.8534C120.214 80.4647 119.901 81.1752 119.717 81.9851C119.671 82.2144 119.633 82.4436 119.603 82.6728C119.587 82.8867 119.58 83.116 119.58 83.3605C119.58 84.4149 119.794 85.3623 120.221 86.2028C120.649 87.0432 121.23 87.7003 121.964 88.174C122.712 88.6478 123.545 88.8846 124.462 88.8846C125.394 88.8846 126.158 88.7624 126.754 88.5179C127.35 88.2581 127.847 87.9295 128.244 87.5322C128.641 87.1196 128.993 86.6765 129.298 86.2028L128.336 85.5839C128.107 85.9659 127.824 86.325 127.488 86.6612C127.167 86.9821 126.769 87.2495 126.296 87.4635C125.837 87.6621 125.272 87.7614 124.6 87.7614C123.851 87.7614 123.186 87.5857 122.605 87.2342C122.04 86.8675 121.597 86.3556 121.276 85.6985C120.955 85.0261 120.794 84.2468 120.794 83.3605L120.817 82.9479C120.817 82.1227 120.993 81.4121 121.345 80.8161C121.696 80.2049 122.162 79.7388 122.743 79.4179C123.324 79.097 123.958 78.9365 124.645 78.9365C125.333 78.9365 125.937 79.097 126.456 79.4179C126.991 79.7388 127.411 80.182 127.717 80.7474C128.023 81.2975 128.175 81.9317 128.175 82.6499H120.336V83.6814ZM136.79 79.9222L140.618 88.1511H141.948L136.79 77.3091L131.633 88.1511H132.962L136.79 79.9222ZM142.131 88.6554V90.7184H143.323V87.5322H130.258V90.7184H131.518V88.6554H142.131ZM146.768 83.2458V83.8647H149.816C150.168 83.8647 150.504 83.8953 150.825 83.9564C151.146 84.0175 151.428 84.1169 151.673 84.2544C151.917 84.3919 152.108 84.5753 152.246 84.8045C152.399 85.0185 152.475 85.3012 152.475 85.6526C152.475 86.1875 152.277 86.6459 151.879 87.0279C151.497 87.41 150.871 87.601 150 87.601H146.768V88.6554H150.275C151.482 88.6554 152.345 88.3803 152.865 87.8302C153.4 87.2648 153.667 86.5848 153.667 85.7902C153.667 85.1025 153.499 84.5753 153.163 84.2086C152.827 83.8418 152.368 83.5897 151.788 83.4521C151.207 83.3146 150.55 83.2458 149.816 83.2458H146.768ZM146.768 83.5209H149.587C150.244 83.5209 150.84 83.4369 151.375 83.2688C151.925 83.0854 152.368 82.8103 152.704 82.4436C153.041 82.0615 153.209 81.5725 153.209 80.9766C153.209 80.2889 153.041 79.7388 152.704 79.3262C152.368 78.8983 151.925 78.5927 151.375 78.4093C150.84 78.2107 150.244 78.1113 149.587 78.1113H146.768V79.1658H149.587C150.305 79.1658 150.886 79.3262 151.329 79.6471C151.788 79.968 152.017 80.4341 152.017 81.0453C152.017 81.3663 151.94 81.6413 151.788 81.8705C151.65 82.0845 151.459 82.2678 151.214 82.4207C150.985 82.5735 150.725 82.6804 150.435 82.7416C150.145 82.8027 149.862 82.8332 149.587 82.8332H146.768V83.5209ZM146.08 78.1113V88.6554H147.272V78.1113H146.08ZM164.247 79.1428L164.361 77.3091L156.293 87.6239L156.178 89.4577L164.247 79.1428ZM157.37 78.1113H156.178V89.4577L157.37 87.7614V78.1113ZM164.361 77.3091L163.169 79.0053V88.6554H164.361V77.3091ZM177.578 78.1113L173.177 82.4665L178.036 88.6554H179.549L174.529 82.604L179.091 78.1113H177.578ZM173.475 78.1113H172.352V88.6554H173.475V78.1113ZM168.226 78.1113H166.736L171.274 82.604L166.278 88.6554H167.767L172.65 82.4665L168.226 78.1113ZM189.541 79.1428L189.656 77.3091L181.587 87.6239L181.473 89.4577L189.541 79.1428ZM182.665 78.1113H181.473V89.4577L182.665 87.7614V78.1113ZM189.656 77.3091L188.464 79.0053V88.6554H189.656V77.3091ZM203.927 88.6554H205.279L202.529 77.3091L201.887 79.4637L203.927 88.6554ZM197.99 87.6239L198.403 89.366L202.643 79.8763L202.529 77.3091L197.99 87.6239ZM198.403 89.366L198.815 87.6239L194.346 77.3091L194.231 79.8763L198.403 89.366ZM191.595 88.6554H192.97L194.987 79.4637L194.346 77.3091L191.595 88.6554ZM206.298 83.3834C206.298 84.4378 206.534 85.3852 207.008 86.2257C207.482 87.0509 208.124 87.7003 208.934 88.174C209.759 88.6478 210.683 88.8846 211.707 88.8846C212.731 88.8846 213.648 88.6478 214.458 88.174C215.283 87.7003 215.932 87.0509 216.406 86.2257C216.88 85.3852 217.117 84.4378 217.117 83.3834C217.117 82.3137 216.88 81.3663 216.406 80.5411C215.932 79.7159 215.283 79.0664 214.458 78.5927C213.648 78.119 212.731 77.8821 211.707 77.8821C210.683 77.8821 209.759 78.119 208.934 78.5927C208.124 79.0664 207.482 79.7159 207.008 80.5411C206.534 81.3663 206.298 82.3137 206.298 83.3834ZM207.512 83.3834C207.512 82.5276 207.696 81.7712 208.063 81.1141C208.429 80.457 208.926 79.9451 209.553 79.5783C210.194 79.1963 210.913 79.0053 211.707 79.0053C212.502 79.0053 213.212 79.1963 213.839 79.5783C214.481 79.9451 214.985 80.4647 215.352 81.137C215.718 81.7941 215.902 82.5429 215.902 83.3834C215.902 84.2391 215.718 84.9955 215.352 85.6526C214.985 86.3097 214.481 86.8293 213.839 87.2113C213.212 87.5781 212.502 87.7614 211.707 87.7614C210.913 87.7614 210.194 87.5781 209.553 87.2113C208.926 86.8293 208.429 86.3097 208.063 85.6526C207.696 84.9955 207.512 84.2391 207.512 83.3834ZM219.911 83.3834C219.911 82.5276 220.094 81.7712 220.461 81.1141C220.828 80.457 221.324 79.9451 221.951 79.5783C222.593 79.1963 223.311 79.0053 224.106 79.0053C224.671 79.0053 225.198 79.0893 225.687 79.2574C226.176 79.4255 226.596 79.6395 226.948 79.8993C227.315 80.159 227.574 80.4341 227.727 80.7244V79.2345C227.406 78.8678 226.91 78.5545 226.237 78.2947C225.58 78.0197 224.87 77.8821 224.106 77.8821C223.082 77.8821 222.165 78.119 221.355 78.5927C220.545 79.0664 219.896 79.7159 219.407 80.5411C218.933 81.3663 218.696 82.3137 218.696 83.3834C218.696 84.4378 218.933 85.3852 219.407 86.2257C219.896 87.0509 220.545 87.7003 221.355 88.174C222.165 88.6478 223.082 88.8846 224.106 88.8846C224.87 88.8846 225.58 88.7547 226.237 88.4949C226.91 88.2352 227.406 87.9143 227.727 87.5322V86.0423C227.574 86.3174 227.315 86.5924 226.948 86.8675C226.596 87.1273 226.176 87.3412 225.687 87.5093C225.198 87.6774 224.671 87.7614 224.106 87.7614C223.311 87.7614 222.593 87.5781 221.951 87.2113C221.324 86.8293 220.828 86.3097 220.461 85.6526C220.094 84.9955 219.911 84.2391 219.911 83.3834ZM228.977 78.1113V79.2345H235.166V78.1113H228.977ZM231.476 78.4323V88.6554H232.668V78.4323H231.476ZM237.006 78.1113V88.6554H238.198V78.1113H237.006ZM237.671 83.1542H240.72C241.529 83.1542 242.171 83.3452 242.645 83.7272C243.134 84.0939 243.379 84.6441 243.379 85.3776C243.379 85.8819 243.264 86.3021 243.035 86.6383C242.821 86.9592 242.515 87.2037 242.118 87.3718C241.721 87.5246 241.254 87.601 240.72 87.601H237.671V88.6554H240.72C241.453 88.6554 242.11 88.5408 242.691 88.3116C243.272 88.0823 243.73 87.7232 244.066 87.2342C244.402 86.7452 244.57 86.1264 244.57 85.3776C244.57 84.2468 244.196 83.4216 243.447 82.902C242.714 82.3672 241.805 82.0997 240.72 82.0997H237.671V83.1542ZM6.86382 113.246V113.865H9.91243C10.2639 113.865 10.6001 113.895 10.921 113.956C11.2419 114.018 11.5246 114.117 11.7691 114.254C12.0136 114.392 12.2046 114.575 12.3421 114.805C12.495 115.018 12.5714 115.301 12.5714 115.653C12.5714 116.187 12.3727 116.646 11.9754 117.028C11.5934 117.41 10.9668 117.601 10.0958 117.601H6.86382V118.655H10.3709C11.5781 118.655 12.4415 118.38 12.961 117.83C13.4959 117.265 13.7633 116.585 13.7633 115.79C13.7633 115.103 13.5952 114.575 13.259 114.209C12.9228 113.842 12.4644 113.59 11.8837 113.452C11.303 113.315 10.6459 113.246 9.91243 113.246H6.86382ZM6.86382 113.521H9.68321C10.3403 113.521 10.9363 113.437 11.4711 113.269C12.0212 113.085 12.4644 112.81 12.8006 112.444C13.1368 112.062 13.3049 111.573 13.3049 110.977C13.3049 110.289 13.1368 109.739 12.8006 109.326C12.4644 108.898 12.0212 108.593 11.4711 108.409C10.9363 108.211 10.3403 108.111 9.68321 108.111H6.86382V109.166H9.68321C10.4014 109.166 10.9821 109.326 11.4253 109.647C11.8837 109.968 12.1129 110.434 12.1129 111.045C12.1129 111.366 12.0365 111.641 11.8837 111.871C11.7462 112.084 11.5552 112.268 11.3107 112.421C11.0814 112.573 10.8217 112.68 10.5313 112.742C10.241 112.803 9.95827 112.833 9.68321 112.833H6.86382V113.521ZM6.17617 108.111V118.655H7.3681V108.111H6.17617ZM21.6335 103.802H25.8512V118.655H27.1119V103.802H31.3295V102.61H21.6335V103.802ZM41.1302 108.111H39.8007L36.0645 117.051L36.6146 117.097L32.7866 108.111H31.3655L35.6289 117.578L32.9242 123.698H34.2536L41.1302 108.111ZM44.2574 123.698V108.111H43.0655V123.698H44.2574ZM53.2657 113.383C53.2657 112.237 53.0365 111.259 52.578 110.449C52.1349 109.624 51.5236 108.99 50.7443 108.547C49.9802 108.104 49.1245 107.882 48.177 107.882C47.2907 107.882 46.5114 108.127 45.839 108.616C45.1666 109.089 44.6394 109.739 44.2574 110.564C43.8906 111.389 43.7073 112.329 43.7073 113.383C43.7073 114.422 43.8906 115.362 44.2574 116.203C44.6394 117.028 45.1666 117.685 45.839 118.174C46.5114 118.648 47.2907 118.885 48.177 118.885C49.1245 118.885 49.9802 118.663 50.7443 118.22C51.5236 117.777 52.1349 117.143 52.578 116.317C53.0365 115.492 53.2657 114.514 53.2657 113.383ZM52.0737 113.383C52.0737 114.3 51.8904 115.087 51.5236 115.744C51.1569 116.401 50.6679 116.906 50.0566 117.257C49.4454 117.593 48.7654 117.761 48.0166 117.761C47.3748 117.761 46.7635 117.57 46.1828 117.188C45.6021 116.806 45.1361 116.287 44.7846 115.63C44.4331 114.973 44.2574 114.224 44.2574 113.383C44.2574 112.543 44.4331 111.794 44.7846 111.137C45.1361 110.48 45.6021 109.96 46.1828 109.578C46.7635 109.196 47.3748 109.005 48.0166 109.005C48.7654 109.005 49.4454 109.181 50.0566 109.533C50.6679 109.869 51.1569 110.365 51.5236 111.022C51.8904 111.68 52.0737 112.466 52.0737 113.383ZM64.1149 117.532V108.111H62.9229V117.532H57.3529V108.111H56.161V118.655H64.8942V120.718H65.9486V117.532H64.1149ZM76.6556 109.143L76.7702 107.309L68.7018 117.624L68.5871 119.458L76.6556 109.143ZM69.7791 108.111H68.5871V119.458L69.7791 117.761V108.111ZM76.7702 107.309L75.5783 109.005V118.655H76.7702V107.309ZM88.4971 109.143L88.6117 107.309L80.5432 117.624L80.4286 119.458L88.4971 109.143ZM81.6205 108.111H80.4286V119.458L81.6205 117.761V108.111ZM88.6117 107.309L87.4198 109.005V118.655H88.6117V107.309Z" fill="#F0F0F0"/>
<path d="M434.544 82.467H438.528V96.4951H439.718V82.467H443.702V81.3412H434.544V82.467ZM452.958 86.5369H451.702L448.173 94.9797L448.693 95.023L445.078 86.5369H443.736L447.762 95.4776L445.208 101.258H446.463L452.958 86.5369ZM455.911 101.258V86.5369H454.786V101.258H455.911ZM464.419 91.516C464.419 90.4336 464.203 89.5099 463.77 88.745C463.351 87.9656 462.774 87.3667 462.038 86.9482C461.316 86.5296 460.508 86.3204 459.613 86.3204C458.776 86.3204 458.04 86.5513 457.405 87.0131C456.77 87.4605 456.272 88.0739 455.911 88.8532C455.565 89.6326 455.392 90.5202 455.392 91.516C455.392 92.4974 455.565 93.385 455.911 94.1787C456.272 94.9581 456.77 95.5787 457.405 96.0405C458.04 96.4879 458.776 96.7116 459.613 96.7116C460.508 96.7116 461.316 96.5023 462.038 96.0838C462.774 95.6653 463.351 95.0663 463.77 94.287C464.203 93.5076 464.419 92.584 464.419 91.516ZM463.293 91.516C463.293 92.3819 463.12 93.1252 462.774 93.7458C462.427 94.3664 461.966 94.8426 461.388 95.1746C460.811 95.4921 460.169 95.6508 459.462 95.6508C458.855 95.6508 458.278 95.4704 457.73 95.1096C457.181 94.7488 456.741 94.2581 456.409 93.6375C456.077 93.0169 455.911 92.3098 455.911 91.516C455.911 90.7222 456.077 90.015 456.409 89.3944C456.741 88.7739 457.181 88.2832 457.73 87.9223C458.278 87.5615 458.855 87.3811 459.462 87.3811C460.169 87.3811 460.811 87.5471 461.388 87.8791C461.966 88.1966 462.427 88.6656 462.774 89.2862C463.12 89.9068 463.293 90.65 463.293 91.516ZM474.666 95.4343V86.5369H473.54V95.4343H468.279V86.5369H467.154V96.4951H475.402V98.4435H476.397V95.4343H474.666ZM486.51 87.511L486.618 85.7792L478.998 95.5209L478.889 97.2528L486.51 87.511ZM480.015 86.5369H478.889V97.2528L480.015 95.6508V86.5369ZM486.618 85.7792L485.492 87.3811V96.4951H486.618V85.7792ZM490.744 96.4951L494.208 91.7108H492.952L489.488 96.4951H490.744ZM497.109 96.4951V86.5369H495.983V96.4951H497.109ZM496.438 91.516H493.602C493.097 91.516 492.656 91.451 492.281 91.3211C491.906 91.1768 491.61 90.9603 491.393 90.6717C491.191 90.3686 491.09 89.9862 491.09 89.5243C491.09 89.0481 491.191 88.6656 491.393 88.377C491.61 88.0883 491.906 87.8791 492.281 87.7492C492.656 87.6048 493.097 87.5327 493.602 87.5327H496.438V86.5369H493.602C492.923 86.5369 492.303 86.6379 491.74 86.8399C491.191 87.042 490.758 87.3595 490.441 87.7925C490.123 88.2254 489.965 88.8027 489.965 89.5243C489.965 90.2315 490.123 90.8088 490.441 91.2562C490.758 91.6892 491.191 92.0067 491.74 92.2087C492.303 92.4108 492.923 92.5118 493.602 92.5118H496.438V91.516ZM434.674 124.495H445.368V122.763H438.463L443.29 117.849C443.882 117.243 444.365 116.557 444.741 115.792C445.116 115.028 445.304 114.255 445.304 113.476C445.304 113.014 445.21 112.531 445.022 112.026C444.834 111.521 444.546 111.051 444.156 110.618C443.767 110.171 443.269 109.81 442.662 109.536C442.056 109.247 441.335 109.103 440.498 109.103C439.458 109.103 438.564 109.334 437.813 109.796C437.077 110.243 436.514 110.878 436.125 111.701C435.735 112.509 435.54 113.454 435.54 114.537H437.38C437.38 113.772 437.503 113.115 437.748 112.567C437.994 112.004 438.347 111.578 438.809 111.29C439.285 110.987 439.848 110.835 440.498 110.835C440.959 110.835 441.371 110.914 441.732 111.073C442.092 111.232 442.395 111.441 442.641 111.701C442.901 111.961 443.095 112.249 443.225 112.567C443.355 112.884 443.42 113.209 443.42 113.541C443.42 113.945 443.355 114.335 443.225 114.71C443.11 115.071 442.929 115.432 442.684 115.792C442.453 116.139 442.172 116.492 441.84 116.853L434.674 124.495ZM446.999 124.495H457.694V122.763H450.788L455.615 117.849C456.207 117.243 456.691 116.557 457.066 115.792C457.441 115.028 457.629 114.255 457.629 113.476C457.629 113.014 457.535 112.531 457.347 112.026C457.16 111.521 456.871 111.051 456.481 110.618C456.092 110.171 455.594 109.81 454.988 109.536C454.381 109.247 453.66 109.103 452.823 109.103C451.784 109.103 450.889 109.334 450.138 109.796C449.402 110.243 448.84 110.878 448.45 111.701C448.06 112.509 447.865 113.454 447.865 114.537H449.705C449.705 113.772 449.828 113.115 450.073 112.567C450.319 112.004 450.672 111.578 451.134 111.29C451.611 110.987 452.173 110.835 452.823 110.835C453.285 110.835 453.696 110.914 454.057 111.073C454.418 111.232 454.721 111.441 454.966 111.701C455.226 111.961 455.421 112.249 455.551 112.567C455.68 112.884 455.745 113.209 455.745 113.541C455.745 113.945 455.68 114.335 455.551 114.71C455.435 115.071 455.255 115.432 455.009 115.792C454.778 116.139 454.497 116.492 454.165 116.853L446.999 124.495ZM470.235 119.516C470.235 118.506 470.041 117.618 469.651 116.853C469.261 116.088 468.72 115.489 468.027 115.056C467.349 114.623 466.577 114.407 465.711 114.407C465.336 114.407 464.953 114.457 464.564 114.559C464.188 114.645 463.82 114.782 463.459 114.97L464.477 110.965H470.192V109.341H463.048L461.056 117.416C461.576 117.055 462.031 116.781 462.42 116.593C462.824 116.391 463.221 116.254 463.611 116.182C464.015 116.096 464.455 116.052 464.932 116.052C465.581 116.052 466.158 116.197 466.663 116.485C467.183 116.774 467.587 117.178 467.876 117.698C468.179 118.217 468.33 118.823 468.33 119.516C468.33 120.209 468.193 120.815 467.919 121.334C467.659 121.854 467.277 122.258 466.772 122.547C466.267 122.835 465.653 122.98 464.932 122.98C464.383 122.98 463.856 122.864 463.351 122.633C462.846 122.388 462.399 122.078 462.009 121.702C461.634 121.313 461.331 120.901 461.1 120.469L459.541 121.529C459.873 122.107 460.277 122.641 460.753 123.131C461.244 123.608 461.829 123.99 462.507 124.279C463.2 124.567 464.008 124.712 464.932 124.712C465.668 124.712 466.353 124.603 466.988 124.387C467.623 124.17 468.186 123.846 468.677 123.413C469.167 122.98 469.55 122.439 469.824 121.789C470.098 121.14 470.235 120.382 470.235 119.516ZM471.869 112.588C471.869 113.224 472.006 113.808 472.28 114.342C472.569 114.862 472.973 115.28 473.492 115.598C474.012 115.901 474.611 116.052 475.289 116.052C475.982 116.052 476.581 115.901 477.086 115.598C477.606 115.28 478.003 114.862 478.277 114.342C478.565 113.808 478.71 113.224 478.71 112.588C478.71 111.939 478.565 111.355 478.277 110.835C478.003 110.315 477.606 109.904 477.086 109.601C476.581 109.284 475.982 109.125 475.289 109.125C474.611 109.125 474.012 109.284 473.492 109.601C472.973 109.904 472.569 110.315 472.28 110.835C472.006 111.355 471.869 111.939 471.869 112.588ZM473.406 112.588C473.406 112.213 473.478 111.874 473.622 111.571C473.781 111.254 473.998 111.001 474.272 110.813C474.56 110.626 474.9 110.532 475.289 110.532C475.693 110.532 476.033 110.626 476.307 110.813C476.581 111.001 476.79 111.254 476.935 111.571C477.093 111.874 477.173 112.213 477.173 112.588C477.173 112.949 477.093 113.288 476.935 113.606C476.79 113.923 476.581 114.176 476.307 114.364C476.033 114.551 475.693 114.645 475.289 114.645C474.9 114.645 474.56 114.551 474.272 114.364C473.998 114.176 473.781 113.923 473.622 113.606C473.478 113.288 473.406 112.949 473.406 112.588ZM479.771 121.248C479.771 121.883 479.908 122.467 480.182 123.001C480.47 123.521 480.875 123.939 481.394 124.257C481.914 124.56 482.513 124.712 483.191 124.712C483.884 124.712 484.483 124.56 484.988 124.257C485.507 123.939 485.904 123.521 486.178 123.001C486.467 122.467 486.611 121.883 486.611 121.248C486.611 120.598 486.467 120.014 486.178 119.494C485.904 118.975 485.507 118.563 484.988 118.26C484.483 117.943 483.884 117.784 483.191 117.784C482.513 117.784 481.914 117.943 481.394 118.26C480.875 118.563 480.47 118.975 480.182 119.494C479.908 120.014 479.771 120.598 479.771 121.248ZM481.308 121.248C481.308 120.873 481.38 120.533 481.524 120.23C481.683 119.913 481.899 119.66 482.173 119.473C482.462 119.285 482.801 119.191 483.191 119.191C483.595 119.191 483.934 119.285 484.208 119.473C484.483 119.66 484.692 119.913 484.836 120.23C484.995 120.533 485.074 120.873 485.074 121.248C485.074 121.609 484.995 121.948 484.836 122.265C484.692 122.583 484.483 122.835 484.208 123.023C483.934 123.211 483.595 123.304 483.191 123.304C482.801 123.304 482.462 123.211 482.173 123.023C481.899 122.835 481.683 122.583 481.524 122.265C481.38 121.948 481.308 121.609 481.308 121.248ZM483.299 109.341L473.557 124.495H475.181L484.923 109.341H483.299Z" fill="#F0F0F0"/>
<path d="M436.687 177.995H444.199V176.869H436.687V177.995ZM436.687 163.966H444.199V162.841H436.687V163.966ZM436.687 170.245H443.767V169.119H436.687V170.245ZM436.06 162.841V177.995H437.25V162.841H436.06ZM448.417 172.886V173.47H451.296C451.628 173.47 451.945 173.499 452.248 173.557C452.552 173.614 452.819 173.708 453.049 173.838C453.28 173.968 453.461 174.141 453.591 174.358C453.735 174.56 453.807 174.827 453.807 175.159C453.807 175.664 453.62 176.097 453.244 176.458C452.883 176.818 452.292 176.999 451.469 176.999H448.417V177.995H451.729C452.869 177.995 453.684 177.735 454.175 177.215C454.68 176.681 454.933 176.039 454.933 175.289C454.933 174.639 454.774 174.141 454.457 173.795C454.139 173.448 453.706 173.21 453.158 173.08C452.609 172.951 451.989 172.886 451.296 172.886H448.417ZM448.417 173.145H451.079C451.7 173.145 452.263 173.066 452.768 172.907C453.288 172.734 453.706 172.474 454.024 172.128C454.341 171.767 454.5 171.305 454.5 170.742C454.5 170.093 454.341 169.573 454.024 169.184C453.706 168.78 453.288 168.491 452.768 168.318C452.263 168.13 451.7 168.036 451.079 168.036H448.417V169.032H451.079C451.758 169.032 452.306 169.184 452.725 169.487C453.158 169.79 453.374 170.23 453.374 170.807C453.374 171.11 453.302 171.37 453.158 171.587C453.028 171.789 452.847 171.962 452.616 172.106C452.4 172.251 452.155 172.352 451.88 172.409C451.606 172.467 451.339 172.496 451.079 172.496H448.417V173.145ZM447.767 168.036V177.995H448.893V168.036H447.767ZM458.3 182.757V168.036H457.174V182.757H458.3ZM466.808 173.015C466.808 171.933 466.592 171.009 466.159 170.245C465.74 169.465 465.163 168.866 464.427 168.448C463.705 168.029 462.897 167.82 462.002 167.82C461.165 167.82 460.429 168.051 459.794 168.513C459.159 168.96 458.661 169.573 458.3 170.353C457.954 171.132 457.781 172.02 457.781 173.015C457.781 173.997 457.954 174.884 458.3 175.678C458.661 176.458 459.159 177.078 459.794 177.54C460.429 177.987 461.165 178.211 462.002 178.211C462.897 178.211 463.705 178.002 464.427 177.583C465.163 177.165 465.74 176.566 466.159 175.786C466.592 175.007 466.808 174.083 466.808 173.015ZM465.682 173.015C465.682 173.881 465.509 174.625 465.163 175.245C464.816 175.866 464.355 176.342 463.777 176.674C463.2 176.992 462.558 177.15 461.851 177.15C461.244 177.15 460.667 176.97 460.119 176.609C459.57 176.248 459.13 175.758 458.798 175.137C458.466 174.516 458.3 173.809 458.3 173.015C458.3 172.222 458.466 171.515 458.798 170.894C459.13 170.273 459.57 169.783 460.119 169.422C460.667 169.061 461.244 168.881 461.851 168.881C462.558 168.881 463.2 169.047 463.777 169.379C464.355 169.696 464.816 170.165 465.163 170.786C465.509 171.406 465.682 172.15 465.682 173.015ZM468.763 173.015C468.763 174.011 468.987 174.906 469.434 175.7C469.882 176.479 470.488 177.093 471.253 177.54C472.032 177.987 472.905 178.211 473.872 178.211C474.839 178.211 475.705 177.987 476.47 177.54C477.249 177.093 477.863 176.479 478.31 175.7C478.757 174.906 478.981 174.011 478.981 173.015C478.981 172.005 478.757 171.11 478.31 170.331C477.863 169.552 477.249 168.938 476.47 168.491C475.705 168.044 474.839 167.82 473.872 167.82C472.905 167.82 472.032 168.044 471.253 168.491C470.488 168.938 469.882 169.552 469.434 170.331C468.987 171.11 468.763 172.005 468.763 173.015ZM469.911 173.015C469.911 172.207 470.084 171.493 470.43 170.872C470.776 170.252 471.245 169.768 471.837 169.422C472.443 169.061 473.122 168.881 473.872 168.881C474.623 168.881 475.294 169.061 475.885 169.422C476.492 169.768 476.968 170.259 477.314 170.894C477.661 171.515 477.834 172.222 477.834 173.015C477.834 173.824 477.661 174.538 477.314 175.159C476.968 175.779 476.492 176.27 475.885 176.631C475.294 176.977 474.623 177.15 473.872 177.15C473.122 177.15 472.443 176.977 471.837 176.631C471.245 176.27 470.776 175.779 470.43 175.159C470.084 174.538 469.911 173.824 469.911 173.015ZM481.62 173.015C481.62 172.207 481.793 171.493 482.14 170.872C482.486 170.252 482.955 169.768 483.547 169.422C484.153 169.061 484.831 168.881 485.582 168.881C486.116 168.881 486.614 168.96 487.075 169.119C487.537 169.278 487.934 169.48 488.266 169.725C488.613 169.97 488.858 170.23 489.002 170.504V169.097C488.699 168.751 488.23 168.455 487.595 168.21C486.974 167.95 486.303 167.82 485.582 167.82C484.615 167.82 483.749 168.044 482.984 168.491C482.219 168.938 481.606 169.552 481.144 170.331C480.696 171.11 480.473 172.005 480.473 173.015C480.473 174.011 480.696 174.906 481.144 175.7C481.606 176.479 482.219 177.093 482.984 177.54C483.749 177.987 484.615 178.211 485.582 178.211C486.303 178.211 486.974 178.088 487.595 177.843C488.23 177.598 488.699 177.295 489.002 176.934V175.527C488.858 175.786 488.613 176.046 488.266 176.306C487.934 176.551 487.537 176.753 487.075 176.912C486.614 177.071 486.116 177.15 485.582 177.15C484.831 177.15 484.153 176.977 483.547 176.631C482.955 176.27 482.486 175.779 482.14 175.159C481.793 174.538 481.62 173.824 481.62 173.015ZM490.919 173.015C490.919 174.011 491.143 174.906 491.59 175.7C492.037 176.479 492.644 177.093 493.408 177.54C494.188 177.987 495.061 178.211 496.028 178.211C496.995 178.211 497.861 177.987 498.626 177.54C499.405 177.093 500.018 176.479 500.466 175.7C500.913 174.906 501.137 174.011 501.137 173.015C501.137 172.005 500.913 171.11 500.466 170.331C500.018 169.552 499.405 168.938 498.626 168.491C497.861 168.044 496.995 167.82 496.028 167.82C495.061 167.82 494.188 168.044 493.408 168.491C492.644 168.938 492.037 169.552 491.59 170.331C491.143 171.11 490.919 172.005 490.919 173.015ZM492.066 173.015C492.066 172.207 492.239 171.493 492.586 170.872C492.932 170.252 493.401 169.768 493.993 169.422C494.599 169.061 495.277 168.881 496.028 168.881C496.778 168.881 497.45 169.061 498.041 169.422C498.647 169.768 499.124 170.259 499.47 170.894C499.816 171.515 499.99 172.222 499.99 173.015C499.99 173.824 499.816 174.538 499.47 175.159C499.124 175.779 498.647 176.27 498.041 176.631C497.45 176.977 496.778 177.15 496.028 177.15C495.277 177.15 494.599 176.977 493.993 176.631C493.401 176.27 492.932 175.779 492.586 175.159C492.239 174.538 492.066 173.824 492.066 173.015ZM504.187 173.297H507.867V172.236H504.187V173.297ZM503.516 168.036V177.995H504.642V168.036H503.516ZM507.066 173.015C507.066 174.011 507.29 174.906 507.738 175.7C508.185 176.479 508.798 177.093 509.578 177.54C510.357 177.987 511.223 178.211 512.175 178.211C513.142 178.211 514.008 177.987 514.773 177.54C515.538 177.093 516.144 176.479 516.592 175.7C517.054 174.906 517.284 174.011 517.284 173.015C517.284 172.005 517.054 171.11 516.592 170.331C516.144 169.552 515.538 168.938 514.773 168.491C514.008 168.044 513.142 167.82 512.175 167.82C511.208 167.82 510.335 168.044 509.556 168.491C508.791 168.938 508.185 169.552 507.738 170.331C507.29 171.11 507.066 172.005 507.066 173.015ZM508.214 173.015C508.214 172.207 508.387 171.493 508.733 170.872C509.08 170.252 509.549 169.768 510.141 169.422C510.747 169.061 511.425 168.881 512.175 168.881C512.926 168.881 513.597 169.061 514.189 169.422C514.795 169.768 515.271 170.259 515.618 170.894C515.964 171.515 516.137 172.222 516.137 173.015C516.137 173.824 515.964 174.538 515.618 175.159C515.271 175.779 514.795 176.27 514.189 176.631C513.597 176.977 512.926 177.15 512.175 177.15C511.425 177.15 510.747 176.977 510.141 176.631C509.549 176.27 509.08 175.779 508.733 175.159C508.387 174.538 508.214 173.824 508.214 173.015ZM523.411 172.907C524.551 172.907 525.424 172.676 526.03 172.215C526.651 171.753 526.961 171.161 526.961 170.439C526.961 169.934 526.81 169.487 526.507 169.097C526.218 168.707 525.821 168.397 525.316 168.166C524.811 167.935 524.241 167.82 523.606 167.82C522.927 167.82 522.307 167.957 521.744 168.231C521.196 168.505 520.755 168.873 520.423 169.335C520.106 169.797 519.947 170.302 519.947 170.851H521.095C521.095 170.533 521.188 170.223 521.376 169.92C521.578 169.602 521.867 169.342 522.242 169.14C522.617 168.938 523.065 168.837 523.584 168.837C524.248 168.837 524.782 168.989 525.186 169.292C525.605 169.595 525.814 170.006 525.814 170.526C525.814 171.017 525.612 171.421 525.208 171.738C524.804 172.041 524.205 172.193 523.411 172.193V172.907ZM523.541 178.211C524.219 178.211 524.854 178.096 525.446 177.865C526.038 177.619 526.507 177.266 526.853 176.804C527.214 176.342 527.394 175.786 527.394 175.137C527.394 174.242 527.041 173.578 526.334 173.145C525.641 172.698 524.667 172.474 523.411 172.474V173.189C523.974 173.189 524.472 173.261 524.905 173.405C525.338 173.549 525.677 173.766 525.922 174.055C526.168 174.343 526.29 174.711 526.29 175.159C526.29 175.606 526.16 175.981 525.901 176.284C525.655 176.587 525.323 176.818 524.905 176.977C524.501 177.136 524.046 177.215 523.541 177.215C522.632 177.215 521.939 176.984 521.463 176.523C520.986 176.046 520.698 175.491 520.597 174.856H519.449C519.565 175.823 519.983 176.624 520.705 177.259C521.427 177.894 522.372 178.211 523.541 178.211ZM435.973 193.828L439.329 192.832V205.995H441.169V190.624L435.973 191.923V193.828ZM449.464 198.526C450.446 198.526 451.304 198.353 452.04 198.006C452.776 197.66 453.354 197.191 453.772 196.599C454.191 196.007 454.4 195.358 454.4 194.651C454.4 193.929 454.227 193.265 453.881 192.659C453.549 192.053 453.065 191.562 452.43 191.187C451.81 190.812 451.066 190.624 450.2 190.624C449.378 190.624 448.642 190.797 447.992 191.144C447.357 191.476 446.852 191.938 446.477 192.529C446.116 193.121 445.936 193.814 445.936 194.608H447.689C447.689 193.944 447.934 193.395 448.425 192.962C448.916 192.515 449.515 192.291 450.222 192.291C450.727 192.291 451.146 192.392 451.478 192.594C451.824 192.796 452.084 193.085 452.257 193.46C452.43 193.821 452.517 194.24 452.517 194.716C452.517 195.077 452.445 195.416 452.3 195.733C452.17 196.051 451.975 196.332 451.716 196.578C451.456 196.808 451.138 196.996 450.763 197.14C450.388 197.27 449.955 197.335 449.464 197.335V198.526ZM450.114 206.211C451.023 206.211 451.831 206.038 452.538 205.692C453.246 205.345 453.801 204.854 454.205 204.219C454.624 203.584 454.833 202.841 454.833 201.99C454.833 201.239 454.689 200.597 454.4 200.063C454.126 199.529 453.736 199.096 453.231 198.764C452.74 198.418 452.17 198.165 451.521 198.006C450.886 197.848 450.2 197.768 449.464 197.768V198.959C449.955 198.959 450.41 199.017 450.828 199.132C451.247 199.248 451.615 199.428 451.932 199.673C452.25 199.904 452.495 200.2 452.668 200.561C452.856 200.907 452.95 201.311 452.95 201.773C452.95 202.322 452.834 202.798 452.603 203.202C452.372 203.606 452.04 203.924 451.607 204.155C451.189 204.371 450.691 204.479 450.114 204.479C449.536 204.479 449.024 204.371 448.577 204.155C448.129 203.938 447.776 203.642 447.516 203.267C447.271 202.892 447.148 202.466 447.148 201.99H445.286C445.286 202.581 445.402 203.137 445.632 203.657C445.863 204.162 446.188 204.609 446.607 204.999C447.025 205.374 447.53 205.67 448.122 205.886C448.714 206.103 449.378 206.211 450.114 206.211ZM465.439 195.82C465.439 196.513 465.287 197.126 464.984 197.66C464.695 198.194 464.291 198.62 463.772 198.937C463.267 199.24 462.689 199.392 462.04 199.392C461.39 199.392 460.806 199.24 460.286 198.937C459.781 198.62 459.377 198.194 459.074 197.66C458.785 197.126 458.641 196.513 458.641 195.82C458.641 195.127 458.785 194.521 459.074 194.001C459.377 193.467 459.781 193.049 460.286 192.746C460.806 192.443 461.39 192.291 462.04 192.291C462.689 192.291 463.267 192.443 463.772 192.746C464.291 193.049 464.695 193.467 464.984 194.001C465.287 194.521 465.439 195.127 465.439 195.82ZM461.131 205.995L466.24 198.959C466.528 198.555 466.759 198.086 466.932 197.552C467.106 197.018 467.192 196.44 467.192 195.82C467.192 194.781 466.961 193.872 466.499 193.092C466.052 192.313 465.439 191.707 464.659 191.274C463.894 190.841 463.021 190.624 462.04 190.624C461.073 190.624 460.2 190.841 459.42 191.274C458.641 191.707 458.02 192.313 457.559 193.092C457.111 193.872 456.887 194.781 456.887 195.82C456.887 196.513 457.003 197.162 457.234 197.768C457.465 198.36 457.782 198.88 458.186 199.327C458.605 199.774 459.081 200.121 459.615 200.366C460.164 200.611 460.748 200.734 461.369 200.734C461.859 200.734 462.292 200.676 462.668 200.561C463.057 200.445 463.396 200.207 463.685 199.846L463.555 199.738L458.814 205.995H461.131ZM469.96 203.613L468.055 209.22L469.311 209.675L471.692 204.263L469.96 203.613ZM476.251 201.015C476.251 200.323 476.396 199.709 476.684 199.175C476.988 198.627 477.392 198.201 477.897 197.898C478.416 197.595 479.001 197.444 479.65 197.444C480.3 197.444 480.877 197.595 481.382 197.898C481.902 198.201 482.306 198.627 482.594 199.175C482.898 199.709 483.049 200.323 483.049 201.015C483.049 201.708 482.898 202.322 482.594 202.856C482.306 203.375 481.902 203.786 481.382 204.09C480.877 204.393 480.3 204.544 479.65 204.544C479.001 204.544 478.416 204.393 477.897 204.09C477.392 203.786 476.988 203.375 476.684 202.856C476.396 202.322 476.251 201.708 476.251 201.015ZM480.559 190.841L475.45 197.876C475.162 198.281 474.931 198.75 474.758 199.284C474.585 199.818 474.498 200.395 474.498 201.015C474.498 202.055 474.722 202.964 475.169 203.743C475.631 204.523 476.251 205.129 477.031 205.562C477.81 205.995 478.683 206.211 479.65 206.211C480.632 206.211 481.505 205.995 482.27 205.562C483.049 205.129 483.662 204.523 484.11 203.743C484.572 202.964 484.803 202.055 484.803 201.015C484.803 200.323 484.687 199.681 484.456 199.089C484.225 198.483 483.901 197.956 483.482 197.508C483.078 197.061 482.602 196.715 482.053 196.469C481.519 196.224 480.942 196.101 480.321 196.101C479.831 196.101 479.39 196.159 479.001 196.274C478.626 196.39 478.294 196.628 478.005 196.989L478.135 197.097L482.876 190.841H480.559ZM486.646 194.088C486.646 194.723 486.784 195.308 487.058 195.842C487.346 196.361 487.75 196.78 488.27 197.097C488.79 197.4 489.389 197.552 490.067 197.552C490.76 197.552 491.359 197.4 491.864 197.097C492.383 196.78 492.78 196.361 493.054 195.842C493.343 195.308 493.487 194.723 493.487 194.088C493.487 193.439 493.343 192.854 493.054 192.334C492.78 191.815 492.383 191.404 491.864 191.101C491.359 190.783 490.76 190.624 490.067 190.624C489.389 190.624 488.79 190.783 488.27 191.101C487.75 191.404 487.346 191.815 487.058 192.334C486.784 192.854 486.646 193.439 486.646 194.088ZM488.183 194.088C488.183 193.713 488.256 193.374 488.4 193.071C488.559 192.753 488.775 192.5 489.049 192.313C489.338 192.125 489.677 192.031 490.067 192.031C490.471 192.031 490.81 192.125 491.084 192.313C491.359 192.5 491.568 192.753 491.712 193.071C491.871 193.374 491.95 193.713 491.95 194.088C491.95 194.449 491.871 194.788 491.712 195.105C491.568 195.423 491.359 195.676 491.084 195.863C490.81 196.051 490.471 196.145 490.067 196.145C489.677 196.145 489.338 196.051 489.049 195.863C488.775 195.676 488.559 195.423 488.4 195.105C488.256 194.788 488.183 194.449 488.183 194.088ZM494.548 202.747C494.548 203.382 494.685 203.967 494.959 204.501C495.248 205.02 495.652 205.439 496.172 205.756C496.691 206.06 497.29 206.211 497.969 206.211C498.661 206.211 499.26 206.06 499.765 205.756C500.285 205.439 500.682 205.02 500.956 204.501C501.245 203.967 501.389 203.382 501.389 202.747C501.389 202.098 501.245 201.513 500.956 200.994C500.682 200.474 500.285 200.063 499.765 199.76C499.26 199.442 498.661 199.284 497.969 199.284C497.29 199.284 496.691 199.442 496.172 199.76C495.652 200.063 495.248 200.474 494.959 200.994C494.685 201.513 494.548 202.098 494.548 202.747ZM496.085 202.747C496.085 202.372 496.157 202.033 496.302 201.73C496.46 201.412 496.677 201.16 496.951 200.972C497.24 200.785 497.579 200.691 497.969 200.691C498.373 200.691 498.712 200.785 498.986 200.972C499.26 201.16 499.469 201.412 499.614 201.73C499.773 202.033 499.852 202.372 499.852 202.747C499.852 203.108 499.773 203.447 499.614 203.765C499.469 204.082 499.26 204.335 498.986 204.523C498.712 204.71 498.373 204.804 497.969 204.804C497.579 204.804 497.24 204.71 496.951 204.523C496.677 204.335 496.46 204.082 496.302 203.765C496.157 203.447 496.085 203.108 496.085 202.747ZM498.077 190.841L488.335 205.995H489.959L499.7 190.841H498.077Z" fill="#F0F0F0"/>
<defs>
<linearGradient id="paint0_linear_96_1333" x1="422.145" y1="62.3983" x2="422.145" y2="-1.52588e-05" gradientUnits="userSpaceOnUse">
<stop stop-opacity="0"/>
<stop offset="1" stop-color="#010E27"/>
</linearGradient>
</defs>
</svg>
