<svg width="64" height="66" viewBox="0 0 64 66" fill="none" xmlns="http://www.w3.org/2000/svg">
<path d="M57.6 15.5783H63.1998C63.4124 15.5783 63.6155 15.4921 63.7656 15.3391C63.9157 15.1856 64 14.9772 64 14.7602V0.846976C64 0.629462 63.9157 0.421652 63.7656 0.268093C63.6155 0.114534 63.4124 0.0283203 63.1998 0.0283203H0.800223C0.358255 0.0283203 0 0.394834 0 0.84699V64.685C0 64.9025 0.0842626 65.1103 0.23437 65.2639C0.384478 65.4174 0.587611 65.5037 0.80021 65.5037H63.1998C63.4124 65.5037 63.6155 65.4175 63.7656 65.2639C63.9157 65.1103 64 64.9025 64 64.685V25.4001C64 24.4958 63.2835 23.7628 62.4001 23.7628C61.5162 23.7628 60.8003 24.4958 60.8003 25.4001V31.9477L50.4002 31.9471C49.5163 31.9471 48.8004 32.6802 48.8004 33.5845C48.8004 34.4882 49.5163 35.2212 50.4002 35.2212H57.5999V58.1374H41.6657V43.5561C41.6657 42.6518 40.9492 41.9188 40.0659 41.9188C39.1819 41.9188 38.4654 42.6518 38.4654 43.5561V58.1374H7.99994V35.2212H13.5998V42.5868C13.5998 43.4911 14.3163 44.2235 15.1996 44.2235C16.0835 44.2235 16.8 43.4911 16.8 42.5868V35.2212H42.3998C43.2832 35.2212 43.9997 34.4882 43.9997 33.5845C43.9997 32.6802 43.2832 31.9471 42.3998 31.9471H41.5996V29.4923C41.5996 28.588 40.8837 27.855 39.9998 27.855C39.1159 27.855 38.3999 28.588 38.3999 29.4923V31.9477L8.00014 31.9472V7.39407H38.3999V20.4893C38.3999 21.3936 39.1159 22.1261 39.9998 22.1261C40.8837 22.1261 41.5996 21.3936 41.5996 20.4893V19.6707H51.1994C52.0833 19.6707 52.7998 18.9382 52.7998 18.0339C52.7998 17.1302 52.0833 16.3972 51.1994 16.3972H41.5996V7.39413H56.7995V14.7603C56.7995 14.9773 56.8838 15.1857 57.0333 15.3392C57.1834 15.4922 57.3871 15.5784 57.5992 15.5784L57.6 15.5783Z" fill="#0052B4"/>
</svg>
