<svg width="142" height="39" viewBox="0 0 142 39" fill="none" xmlns="http://www.w3.org/2000/svg">
<g clip-path="url(#clip0_96_721)">
<path d="M19.7345 39L17.1427 37.4877L28.0176 31.1291V27.0215L18.7244 32.5166L1.79853 22.6144V11.0751L4.39038 9.56284V21.1021L18.616 29.4222L18.7244 29.4871L28.0176 24.0868V21.4415L19.7345 16.5952L16.7091 18.362L14.1172 16.8498L19.7296 13.5657L30.6046 19.9242V32.6414L19.7345 39ZM11.6633 35.4614L14.2552 33.9491L2.59185 27.1263L0 28.6386L11.6633 35.4614ZM24.3368 22.1552L21.745 20.6429L18.7244 22.4098L10.4413 17.5635V14.9182L19.7345 9.51792L19.8429 9.5828L34.0686 17.9029V29.4422L36.6604 27.9299V16.3856L19.7345 6.48835L10.4413 11.9785V7.87087L21.3163 1.51229L18.7244 0L7.84947 6.35859V19.0758L18.7244 25.4393L24.3368 22.1552ZM35.8671 11.8737L38.459 10.3614L26.7907 3.53865L24.1988 5.05093L35.8671 11.8737Z" fill="#222222"/>
<path d="M49.5063 32.7511V26.4424H52.1475C52.4333 26.4424 52.6944 26.5023 52.9359 26.6221C53.1773 26.7418 53.3843 26.9016 53.5617 27.1012C53.739 27.3008 53.877 27.5254 53.9805 27.775C54.079 28.0245 54.1283 28.2791 54.1283 28.5386C54.1283 28.893 54.0446 29.2324 53.8819 29.5518C53.7193 29.8712 53.4927 30.1308 53.2069 30.3354C52.9211 30.535 52.5811 30.6398 52.1918 30.6398H50.7185V32.756H49.5063V32.7511ZM50.7185 29.5618H52.1228C52.2707 29.5618 52.3988 29.5219 52.517 29.437C52.6353 29.3522 52.7289 29.2324 52.7979 29.0777C52.8669 28.9229 52.9014 28.7433 52.9014 28.5386C52.9014 28.319 52.862 28.1343 52.7831 27.9796C52.7043 27.8249 52.6008 27.7101 52.4776 27.6352C52.3495 27.5604 52.2165 27.5204 52.0686 27.5204H50.7185V29.5618Z" fill="#222222"/>
<path d="M58.4795 32.7511V26.4424H59.6917V31.673H62.8649V32.7461H58.4795V32.7511Z" fill="#222222"/>
<path d="M68.8026 26.4424H70.0295L72.3208 32.7511H71.0741L70.5567 31.1789H68.2704L67.753 32.7511H66.5063L68.8026 26.4424ZM70.2709 30.3154L69.4136 27.7151L68.5512 30.3154H70.2709Z" fill="#222222"/>
<path d="M80.589 27.5155H78.5983V32.7461H77.396V27.5155H75.4053V26.4424H80.589V27.5155Z" fill="#222222"/>
<path d="M84.8706 32.7511V26.4424H89.054V27.5155H86.0828V29.1425H88.5564V30.1358H86.0828V32.7461H84.8706V32.7511Z" fill="#222222"/>
<path d="M95.9723 32.7909C95.519 32.7909 95.1051 32.701 94.7306 32.5264C94.3611 32.3467 94.0408 32.1071 93.7747 31.8027C93.5086 31.4982 93.3016 31.1538 93.1538 30.7745C93.0109 30.3902 92.937 30.0009 92.937 29.5966C92.937 29.1774 93.0159 28.7731 93.1686 28.3938C93.3263 28.0144 93.5382 27.6701 93.8092 27.3706C94.0802 27.0711 94.4005 26.8366 94.775 26.6619C95.1445 26.4872 95.5535 26.4023 95.997 26.4023C96.4454 26.4023 96.8593 26.4922 97.2288 26.6769C97.5984 26.8615 97.9187 27.1061 98.1798 27.4155C98.441 27.725 98.648 28.0694 98.7958 28.4437C98.9387 28.823 99.0126 29.2123 99.0126 29.6166C99.0126 30.0308 98.9387 30.4301 98.7859 30.8094C98.6332 31.1937 98.4213 31.5331 98.1503 31.8326C97.8793 32.1321 97.5541 32.3666 97.1845 32.5363C96.8149 32.706 96.4109 32.7909 95.9723 32.7909ZM94.164 29.5966C94.164 29.8711 94.2034 30.1356 94.2871 30.3852C94.3709 30.6397 94.4892 30.8693 94.6419 31.064C94.7996 31.2636 94.9868 31.4183 95.2135 31.5331C95.4402 31.6479 95.6964 31.7078 95.9822 31.7078C96.2729 31.7078 96.5341 31.6479 96.7607 31.5281C96.9874 31.4084 97.1796 31.2437 97.3323 31.039C97.4851 30.8344 97.6033 30.6048 97.6772 30.3552C97.7561 30.1057 97.7955 29.8512 97.7955 29.5966C97.7955 29.3221 97.7512 29.0626 97.6674 28.813C97.5836 28.5635 97.4604 28.3339 97.3077 28.1392C97.1549 27.9396 96.9628 27.7849 96.7361 27.6701C96.5094 27.5553 96.2581 27.4954 95.9773 27.4954C95.6767 27.4954 95.4155 27.5553 95.1938 27.68C94.9721 27.8048 94.7799 27.9645 94.6271 28.1642C94.4744 28.3638 94.3611 28.5884 94.2822 28.838C94.2034 29.0825 94.164 29.3321 94.164 29.5966Z" fill="#222222"/>
<path d="M103.452 32.7511V26.4424H106.207C106.492 26.4424 106.758 26.5023 107 26.6221C107.246 26.7418 107.453 26.9016 107.631 27.1012C107.808 27.3008 107.946 27.5254 108.045 27.775C108.138 28.0245 108.187 28.2791 108.187 28.5386C108.187 28.8031 108.143 29.0627 108.049 29.3072C107.961 29.5518 107.833 29.7664 107.66 29.9511C107.493 30.1358 107.291 30.2755 107.064 30.3753L108.483 32.7461H107.153L105.872 30.6299H104.659V32.7461H103.452V32.7511ZM104.664 29.5618H106.182C106.335 29.5618 106.468 29.5169 106.586 29.422C106.704 29.3322 106.798 29.2074 106.867 29.0527C106.936 28.898 106.97 28.7283 106.97 28.5386C106.97 28.339 106.931 28.1593 106.847 28.0096C106.763 27.8598 106.66 27.7401 106.537 27.6502C106.409 27.5604 106.276 27.5155 106.133 27.5155H104.669V29.5618H104.664Z" fill="#222222"/>
<path d="M117.87 32.7511V28.6135L116.274 31.6979H115.599L114.002 28.6135V32.7511H112.79V26.4424H114.086L115.929 30.0309L117.791 26.4424H119.082V32.7511H117.87Z" fill="#222222"/>
<path d="M84.2008 8.26025H81.7075V17.863V20.3885V20.4035L93.3906 20.3885V17.863H84.2008V8.26025Z" fill="#222222"/>
<path d="M101.752 8.2251L101.782 8.29996L94.647 20.3883L97.8301 20.4032L102.733 11.9634L107.641 20.4032L110.819 20.3883L103.645 8.2251H101.752Z" fill="#222222"/>
<path d="M71.3793 8.2251L71.4138 8.29996L64.2788 20.3883L67.457 20.4032L72.3648 11.9634L77.2676 20.4032L80.4508 20.3883L73.2715 8.2251H71.3793Z" fill="#222222"/>
<path d="M125.779 8.24506L122.31 8.2251L119.186 11.9684L116.057 8.2251L112.588 8.24506L117.441 14.0546L112.154 20.3883L115.623 20.4032L119.186 16.1359L122.748 20.4032L126.217 20.3883L120.925 14.0546L125.779 8.24506Z" fill="#222222"/>
<path d="M48.856 11.3194V17.3087C48.856 19.0156 50.2258 20.4031 51.911 20.4031H62.9436V20.3782V17.9176V15.7415V13.6652H60.2089H56.6266V15.7415H60.2089V17.9176H53.6208C52.7536 17.9176 52.0539 17.2089 52.0539 16.3305V10.9351H62.9436V8.22999H51.911C50.2258 8.225 48.856 9.61251 48.856 11.3194Z" fill="#222222"/>
<path d="M138.403 8.2251L134.752 12.4675L131.1 8.2251H127.503L133.057 14.5388V20.4032H136.442V14.5388L142 8.2251H138.403Z" fill="#222222"/>
</g>
<defs>
<clipPath id="clip0_96_721">
<rect width="142" height="39" fill="white"/>
</clipPath>
</defs>
</svg>
